<?xml version="1.0" encoding="UTF-8"?><svg xmlns="http://www.w3.org/2000/svg" xmlns:xlink="http://www.w3.org/1999/xlink" viewBox="0 0 422.79 443.2"><defs><style>.cls-1{stroke:#603813;stroke-linecap:round;stroke-linejoin:round;stroke-width:13px;}.cls-1,.cls-2{fill:none;}.cls-3{isolation:isolate;}.cls-4{fill:#603813;}.cls-5{fill:url(#radial-gradient);}.cls-6{clip-path:url(#clippath);}.cls-7{fill:url(#radial-gradient-2);}.cls-7,.cls-8{opacity:.5;}.cls-9{mix-blend-mode:darken;opacity:.7;}.cls-10{fill:#2a1810;}.cls-11{fill:url(#radial-gradient-3);}.cls-12{fill:url(#radial-gradient-4);}.cls-8{fill:url(#radial-gradient-5);}.cls-13{fill:url(#radial-gradient-6);}.cls-14{fill:#fff;}.cls-15{fill:#fd0d25;}.cls-16{fill:#8ec541;}</style><clipPath id="clippath"><ellipse cx="149.49" cy="173.77" rx="33.56" ry="56.64"/></clipPath><radialGradient id="radial-gradient" cx="149.49" cy="176.66" r="43.14" gradientUnits="userSpaceOnUse"><stop offset="0" stop-color="#603813"/><stop offset="1" stop-color="#b26f41"/></radialGradient><radialGradient id="radial-gradient-2" cx="275.02" cy="176.66" r="43.14" xlink:href="#radial-gradient"/><radialGradient id="radial-gradient-3" cx="103.82" cy="193.48" r="26.19" gradientUnits="userSpaceOnUse"><stop offset="0" stop-color="#2a1810"/><stop offset="1" stop-color="#603813"/></radialGradient><radialGradient id="radial-gradient-4" cx="330.79" cy="193.48" r="26.19" xlink:href="#radial-gradient-3"/><radialGradient id="radial-gradient-5" cx="103.82" cy="193.48" r="26.19" gradientUnits="userSpaceOnUse"><stop offset="0" stop-color="#603813"/><stop offset="1" stop-color="#2a1810"/></radialGradient><radialGradient id="radial-gradient-6" cx="330.79" cy="193.48" r="26.19" xlink:href="#radial-gradient-5"/></defs><g class="cls-3"><g id="Layer_1" data-name="Layer 1"><ellipse class="cls-5" cx="149.49" cy="176.66" rx="43.14" ry="74.84"/><ellipse class="cls-7" cx="275.02" cy="176.66" rx="43.14" ry="74.84"/><circle class="cls-14" cx="149.49" cy="163.78" r="27.71"/><circle class="cls-14" cx="275.02" cy="163.78" r="27.71"/><ellipse class="cls-11" cx="103.82" cy="193.48" rx="26.19" ry="6.93"/><ellipse class="cls-12" cx="330.79" cy="193.48" rx="26.19" ry="6.93"/><ellipse class="cls-8" cx="103.82" cy="193.48" rx="26.19" ry="6.93"/><ellipse class="cls-13" cx="330.79" cy="193.48" rx="26.19" ry="6.93"/><circle class="cls-10" cx="137.31" cy="157.24" r="12.3"/><circle class="cls-10" cx="262.84" cy="157.24" r="12.3"/><path class="cls-14" d="m144.01,150.57c4.1,2.36,6.7,6.75,6.7,11.67s-2.6,9.31-6.7,11.67"/><path class="cls-14" d="m269.54,150.57c4.1,2.36,6.7,6.75,6.7,11.67s-2.6,9.31-6.7,11.67"/><path class="cls-16" d="m212.25,281.08c-26.27,0-47.56,21.29-47.56,47.56s21.29,47.56,47.56,47.56,47.56-21.29,47.56-47.56-21.29-47.56-47.56-47.56Z"/><circle class="cls-15" cx="212.25" cy="328.64" r="22.79"/><circle class="cls-14" cx="212.25" cy="328.64" r="11.39"/><g class="cls-6"><path class="cls-9" d="m133.01,217.4c0-24.15,7.37-43.72,16.47-43.72s16.47,19.57,16.47,43.72-7.37,43.72-16.47,43.72-16.47-19.57-16.47-43.72Z"/></g><path class="cls-1" d="m152.27,265.71c24.83-14.97,59.79-14.97,84.62,0"/><circle class="cls-2" cx="212.25" cy="247.68" r="205.06"/></g></g></svg>