<?xml version="1.0" encoding="UTF-8"?><svg xmlns="http://www.w3.org/2000/svg" xmlns:xlink="http://www.w3.org/1999/xlink" viewBox="0 0 480.86 465.48"><defs><style>.cls-1{fill:#fff;}.cls-2{fill:#fd0d25;}.cls-3{isolation:isolate;}.cls-4{fill:url(#radial-gradient-3);}.cls-4,.cls-5,.cls-6,.cls-7{opacity:.5;}.cls-8{fill:#603813;}.cls-9{fill:url(#radial-gradient);}.cls-10{clip-path:url(#clippath);}.cls-11{fill:none;}.cls-5{fill:url(#radial-gradient-2);}.cls-12{fill:url(#linear-gradient);}.cls-13{fill:url(#radial-gradient-4);}.cls-6{fill:url(#radial-gradient-5);}.cls-7{fill:url(#radial-gradient-6);}.cls-14{fill:#2a1810;}.cls-15{fill:#8ec541;}.cls-16{mix-blend-mode:darken;opacity:.7;}</style><clipPath id="clippath"><ellipse cx="149.49" cy="173.77" rx="33.56" ry="56.64"/></clipPath><linearGradient id="linear-gradient" x1="149.49" y1="117.13" x2="149.49" y2="230.41" gradientUnits="userSpaceOnUse"><stop offset="0" stop-color="#b26f41"/><stop offset="1" stop-color="#603813"/></linearGradient><radialGradient id="radial-gradient" cx="149.49" cy="176.66" r="43.14" gradientUnits="userSpaceOnUse"><stop offset="0" stop-color="#603813"/><stop offset="1" stop-color="#b26f41"/></radialGradient><radialGradient id="radial-gradient-2" cx="333.37" cy="176.66" r="43.14" xlink:href="#radial-gradient"/><radialGradient id="radial-gradient-3" cx="103.82" cy="193.48" r="26.19" gradientUnits="userSpaceOnUse"><stop offset="0" stop-color="#2a1810"/><stop offset="1" stop-color="#603813"/></radialGradient><radialGradient id="radial-gradient-4" cx="389.14" cy="193.48" r="26.19" xlink:href="#radial-gradient-3"/><radialGradient id="radial-gradient-5" cx="103.82" cy="193.48" r="26.19" gradientUnits="userSpaceOnUse"><stop offset="0" stop-color="#603813"/><stop offset="1" stop-color="#2a1810"/></radialGradient><radialGradient id="radial-gradient-6" cx="389.14" cy="193.48" r="26.19" xlink:href="#radial-gradient-5"/></defs><g class="cls-3"><g id="Layer_1" data-name="Layer 1"><ellipse class="cls-9" cx="149.49" cy="176.66" rx="43.14" ry="74.84"/><ellipse class="cls-5" cx="333.37" cy="176.66" rx="43.14" ry="74.84"/><circle class="cls-1" cx="149.49" cy="163.78" r="27.71"/><circle class="cls-1" cx="333.37" cy="163.78" r="27.71"/><ellipse class="cls-4" cx="103.82" cy="193.48" rx="26.19" ry="6.93"/><ellipse class="cls-13" cx="389.14" cy="193.48" rx="26.19" ry="6.93"/><ellipse class="cls-6" cx="103.82" cy="193.48" rx="26.19" ry="6.93"/><ellipse class="cls-7" cx="389.14" cy="193.48" rx="26.19" ry="6.93"/><circle class="cls-14" cx="137.31" cy="157.24" r="12.3"/><circle class="cls-14" cx="321.19" cy="157.24" r="12.3"/><path class="cls-1" d="m144.01,150.57c4.1,2.36,6.7,6.75,6.7,11.67s-2.6,9.31-6.7,11.67"/><path class="cls-1" d="m327.89,150.57c4.1,2.36,6.7,6.75,6.7,11.67s-2.6,9.31-6.7,11.67"/><path class="cls-15" d="m241.43,300.76c-26.27,0-47.56,21.29-47.56,47.56s21.29,47.56,47.56,47.56,47.56-21.29,47.56-47.56-21.29-47.56-47.56-47.56Z"/><circle class="cls-2" cx="241.43" cy="348.32" r="22.79"/><circle class="cls-1" cx="241.43" cy="348.32" r="11.39"/><g class="cls-10"><path class="cls-12" d="m115.93,117.13c0,0,0,113.28,33.56,113.28s33.56-113.28,33.56-113.28H115.93Z"/><path class="cls-16" d="m133.01,217.4c0-24.15,7.37-43.72,16.47-43.72s16.47,19.57,16.47,43.72-7.37,43.72-16.47,43.72-16.47-19.57-16.47-43.72Z"/></g><path class="cls-8" d="m181.45,265.71c24.83-14.97,59.79-14.97,84.62,0" stroke="#603813" stroke-width="13" stroke-linecap="round" stroke-linejoin="round" fill="none"/><circle class="cls-11" cx="241.43" cy="247.68" r="233.99"/></g></g></svg>