<svg version="1.1" id="Layer_1" xmlns="http://www.w3.org/2000/svg" xmlns:xlink="http://www.w3.org/1999/xlink" x="0px" y="0px"
	 width="100%" viewBox="0 0 200 200" enable-background="new 0 0 200 200" xml:space="preserve">
<path fill="#FFFFFF" opacity="1.000000" stroke="none" 
	d="
M116.000000,201.000000 
	C77.357201,201.000000 39.214397,201.000000 1.035799,201.000000 
	C1.035799,134.398911 1.035799,67.797783 1.035799,1.098330 
	C67.559296,1.098330 134.118790,1.098330 200.839142,1.098330 
	C200.839142,67.666351 200.839142,134.333145 200.839142,201.000000 
	C172.798065,201.000000 144.649033,201.000000 116.000000,201.000000 
M149.800873,62.508354 
	C149.548370,62.267986 149.295853,62.027618 148.911575,61.138916 
	C142.610016,55.737656 136.308456,50.336391 129.591873,44.394196 
	C120.314629,39.064583 110.358017,36.888573 99.702797,37.954960 
	C96.410271,38.284485 93.117668,38.613342 89.092690,38.958233 
	C87.721268,39.344078 86.349854,39.729919 84.372200,39.917099 
	C79.918159,41.611843 75.464127,43.306591 70.328026,45.142040 
	C58.893593,52.120750 50.009968,61.318516 44.793350,74.659653 
	C43.850903,78.073502 42.908459,81.487343 41.528286,85.535400 
	C34.548653,120.623421 58.268784,153.311050 93.858337,157.649048 
	C131.626343,162.252579 165.727509,128.720245 160.762665,91.245285 
	C160.561783,90.499519 160.360901,89.753761 160.328400,88.461609 
	C159.912048,87.891182 159.495682,87.320763 159.140503,85.898987 
	C157.111908,79.905396 155.083313,73.911812 153.016663,67.986000 
	C153.016663,67.986000 153.092972,67.971237 152.999542,67.338234 
	C152.365250,66.515312 151.730972,65.692398 151.067886,64.950432 
	C151.067886,64.950432 151.153763,64.953362 151.094742,64.361069 
	C150.722183,63.922108 150.349625,63.483150 150.003021,63.002121 
	C150.003021,63.002121 149.954849,63.013195 149.800873,62.508354 
z"/>
<path fill="#C67E36" opacity="1.000000" stroke="none" 
	d="
M160.602966,92.017754 
	C165.727509,128.720245 131.626343,162.252579 93.858337,157.649048 
	C58.268784,153.311050 34.548653,120.623421 41.745811,85.661461 
	C42.302120,90.283089 42.653164,94.777763 42.977230,99.274391 
	C43.756813,110.091530 47.872547,119.536995 54.108326,128.351227 
	C69.819183,150.558395 90.945076,157.397842 115.123596,151.718842 
	C127.268364,148.866302 136.964035,141.857132 144.666428,131.907959 
	C152.980164,121.169128 158.719650,109.570122 159.068558,95.707565 
	C159.099823,94.465546 160.069244,93.247131 160.602966,92.017754 
z"/>
<path fill="#D58E37" opacity="1.000000" stroke="none" 
	d="
M160.682816,91.631516 
	C160.069244,93.247131 159.099823,94.465546 159.068558,95.707565 
	C158.719650,109.570122 152.980164,121.169128 144.666428,131.907959 
	C136.964035,141.857132 127.268364,148.866302 115.123596,151.718842 
	C90.945076,157.397842 69.819183,150.558395 54.108326,128.351227 
	C47.872547,119.536995 43.756813,110.091530 42.977230,99.274391 
	C42.653164,94.777763 42.302120,90.283089 41.964676,85.344360 
	C42.908459,81.487343 43.850903,78.073502 45.236565,74.635925 
	C45.457333,78.073311 45.234886,81.534416 44.729416,85.252335 
	C44.156681,87.858719 42.491661,90.832649 46.959602,91.270462 
	C46.968182,91.514671 46.988861,92.002945 46.859428,92.295700 
	C46.482422,93.392387 46.234844,94.196320 45.701225,95.274536 
	C45.329971,97.350853 44.890701,99.218994 45.212978,100.944916 
	C49.621761,124.555687 63.835941,139.932739 86.006279,147.944839 
	C91.763367,150.025391 98.367508,151.086746 104.441689,150.651245 
	C113.298874,150.016174 121.749504,147.144333 129.372894,141.931290 
	C146.693253,130.087250 156.112167,114.000435 157.264053,92.780304 
	C158.003250,91.375519 158.482773,90.180054 159.162323,88.988510 
	C159.362366,88.992424 159.761414,88.989197 159.761414,88.989197 
	C159.761414,88.989197 160.160034,89.007996 160.160034,89.007996 
	C160.360901,89.753761 160.561783,90.499519 160.682816,91.631516 
z"/>
<path fill="#EEA443" opacity="1.000000" stroke="none" 
	d="
M45.012440,84.995529 
	C45.234886,81.534416 45.457333,78.073311 45.431637,74.328979 
	C50.009968,61.318516 58.893593,52.120750 70.886002,45.185471 
	C71.720413,45.425602 71.912117,45.684952 71.862907,46.306023 
	C67.268730,50.778847 62.345268,54.561382 58.558807,59.260159 
	C55.915306,62.540585 54.828594,67.075531 53.029594,71.365753 
	C52.994503,72.102882 52.976326,72.524376 52.686562,73.162376 
	C51.937031,74.917976 51.459091,76.457062 50.735332,78.162445 
	C50.325291,78.886047 50.161068,79.443375 49.867771,80.293747 
	C49.492783,81.391029 49.246868,82.195267 48.891541,83.258377 
	C48.523418,84.014832 48.264709,84.512405 47.759071,85.009300 
	C47.512138,85.008621 47.018288,85.004562 46.683800,85.002228 
	C45.903690,84.998436 45.458065,84.996979 45.012440,84.995529 
z"/>
<path fill="#F6C347" opacity="1.000000" stroke="none" 
	d="
M53.046516,71.050125 
	C54.828594,67.075531 55.915306,62.540585 58.558807,59.260159 
	C62.345268,54.561382 67.268730,50.778847 72.237320,46.298370 
	C76.838081,44.033012 80.908257,42.074387 84.978432,40.115761 
	C86.349854,39.729919 87.721268,39.344078 89.906204,38.970177 
	C92.500221,39.004269 94.280716,39.026417 95.962875,39.417107 
	C94.705833,40.195641 93.525543,40.553661 92.392181,41.024628 
	C87.461380,43.073612 81.010590,41.957230 77.739037,48.174511 
	C75.626907,49.545498 73.737511,50.675621 71.568748,51.951729 
	C70.143639,52.995785 68.997887,53.893852 67.549263,54.868408 
	C66.493454,55.624146 65.740524,56.303402 64.699387,57.095444 
	C63.587868,58.118439 62.764542,59.028645 61.666969,60.096497 
	C60.565296,61.464771 59.737865,62.675400 58.632759,64.049789 
	C57.871040,65.131378 57.386997,66.049210 56.628708,67.117996 
	C55.885242,68.162216 55.416016,69.055473 54.697495,70.066330 
	C53.980972,70.472672 53.513744,70.761398 53.046516,71.050125 
z"/>
<path fill="#EDA143" opacity="1.000000" stroke="none" 
	d="
M130.006897,44.935127 
	C136.308456,50.336391 142.610016,55.737656 149.053436,61.718460 
	C149.448471,62.536404 149.701660,62.774799 149.954849,63.013195 
	C149.954849,63.013195 150.003021,63.002121 150.025299,63.325062 
	C150.416290,64.083122 150.785034,64.518242 151.153763,64.953362 
	C151.153763,64.953362 151.067886,64.950432 151.074677,65.249023 
	C151.751953,66.355492 152.422470,67.163361 153.092972,67.971237 
	C153.092972,67.971237 153.016663,67.986000 153.024994,68.364441 
	C154.021423,75.491692 155.009491,82.240509 155.778473,89.101006 
	C155.286591,89.415276 155.097946,89.678238 154.744629,90.000793 
	C154.495819,90.000008 153.998199,89.998779 153.996170,89.747986 
	C153.989960,89.330040 153.985794,89.162880 153.982956,88.645782 
	C153.656570,87.197105 153.328873,86.098366 153.001358,84.633835 
	C152.668381,83.178658 152.335205,82.089264 151.968552,80.650726 
	C151.294449,78.862816 150.653824,77.424065 150.007874,75.654877 
	C149.994095,74.883545 149.985687,74.442650 150.232727,73.793381 
	C148.294586,62.400887 141.084930,54.996349 131.662872,48.970734 
	C130.876495,48.293652 130.406235,47.666489 129.953430,46.688896 
	C129.982895,45.870686 129.994888,45.402905 130.006897,44.935127 
z"/>
<path fill="#F1B050" opacity="1.000000" stroke="none" 
	d="
M129.799377,44.664661 
	C129.994888,45.402905 129.982895,45.870686 129.611420,46.676750 
	C128.173035,46.675491 127.094101,46.335949 125.969070,45.673149 
	C125.269073,44.906101 124.615181,44.462311 123.564728,44.014832 
	C122.110329,44.008232 121.052498,44.005322 119.826401,43.761681 
	C119.108330,43.349991 118.558517,43.179031 117.943634,42.644054 
	C113.565414,41.202148 109.252281,40.124264 104.494118,39.042393 
	C101.386467,39.041794 98.723846,39.045181 96.061218,39.048569 
	C94.280716,39.026417 92.500221,39.004269 90.272415,38.962311 
	C93.117668,38.613342 96.410271,38.284485 99.702797,37.954960 
	C110.358017,36.888573 120.314629,39.064583 129.799377,44.664661 
z"/>
<path fill="#E39443" opacity="1.000000" stroke="none" 
	d="
M155.997559,88.989319 
	C155.009491,82.240509 154.021423,75.491692 153.044037,68.330551 
	C155.083313,73.911812 157.111908,79.905396 159.085846,86.696945 
	C159.008224,87.991463 158.985260,88.488029 158.962311,88.984589 
	C158.482773,90.180054 158.003250,91.375519 157.230865,92.435547 
	C156.624542,91.196518 156.311050,90.092918 155.997559,88.989319 
z"/>
<path fill="#EFAC4C" opacity="1.000000" stroke="none" 
	d="
M84.675316,40.016426 
	C80.908257,42.074387 76.838081,44.033012 72.393509,45.999294 
	C71.912117,45.684952 71.720413,45.425602 71.227028,45.115116 
	C75.464127,43.306591 79.918159,41.611843 84.675316,40.016426 
z"/>
<path fill="#C67E36" opacity="1.000000" stroke="none" 
	d="
M159.162338,88.988510 
	C158.985260,88.488029 159.008224,87.991463 159.055267,87.122620 
	C159.495682,87.320763 159.912048,87.891182 160.244217,88.734802 
	C160.160034,89.007996 159.761414,88.989197 159.761414,88.989197 
	C159.761414,88.989197 159.362366,88.992424 159.162338,88.988510 
z"/>
<path fill="#E39443" opacity="1.000000" stroke="none" 
	d="
M153.046265,67.654739 
	C152.422470,67.163361 151.751953,66.355492 151.089081,65.208557 
	C151.730972,65.692398 152.365250,66.515312 153.046265,67.654739 
z"/>
<path fill="#E39443" opacity="1.000000" stroke="none" 
	d="
M151.124252,64.657211 
	C150.785034,64.518242 150.416290,64.083122 150.012314,63.346096 
	C150.349625,63.483150 150.722183,63.922108 151.124252,64.657211 
z"/>
<path fill="#E39443" opacity="1.000000" stroke="none" 
	d="
M149.877869,62.760773 
	C149.701660,62.774799 149.448471,62.536404 149.119324,62.042625 
	C149.295853,62.027618 149.548370,62.267986 149.877869,62.760773 
z"/>
<path fill="#ECAC40" opacity="1.000000" stroke="none" 
	d="
M153.998199,89.998779 
	C153.998199,89.998779 154.495819,90.000008 154.746704,90.442871 
	C154.696365,101.543228 152.104141,111.567711 146.191864,120.508026 
	C133.155579,140.221024 114.477623,149.097687 92.117073,145.598145 
	C70.901276,142.277771 57.028786,128.679657 49.494095,108.766434 
	C47.828880,104.365486 47.130726,99.598618 45.987274,95.000244 
	C46.234844,94.196320 46.482422,93.392387 47.233242,92.359009 
	C48.485497,93.507843 49.809212,94.852356 49.892479,96.269745 
	C50.551205,107.482864 56.236435,116.385361 63.227936,124.427361 
	C66.023499,127.642952 70.364380,129.515106 74.334579,132.000092 
	C75.111046,132.001907 75.554756,132.002426 76.038322,132.358337 
	C83.199318,139.941788 92.839424,140.670944 101.736977,140.562744 
	C117.200378,140.374741 130.553909,133.838562 140.610092,121.784584 
	C147.034332,114.084099 151.995819,105.538071 151.996490,94.599915 
	C151.999557,93.135017 152.001251,92.069633 152.300385,90.982445 
	C153.064621,90.640022 153.531403,90.319405 153.998199,89.998779 
z"/>
<path fill="#DF9D3A" opacity="1.000000" stroke="none" 
	d="
M45.701229,95.274536 
	C47.130726,99.598618 47.828880,104.365486 49.494095,108.766434 
	C57.028786,128.679657 70.901276,142.277771 92.117073,145.598145 
	C114.477623,149.097687 133.155579,140.221024 146.191864,120.508026 
	C152.104141,111.567711 154.696365,101.543228 154.995514,90.443649 
	C155.097946,89.678238 155.286591,89.415276 155.778473,89.101006 
	C156.311050,90.092918 156.624542,91.196518 156.971222,92.644867 
	C156.112167,114.000435 146.693253,130.087250 129.372894,141.931290 
	C121.749504,147.144333 113.298874,150.016174 104.441689,150.651245 
	C98.367508,151.086746 91.763367,150.025391 86.006279,147.944839 
	C63.835941,139.932739 49.621761,124.555687 45.212978,100.944916 
	C44.890701,99.218994 45.329971,97.350853 45.701229,95.274536 
z"/>
<path fill="#F2B546" opacity="1.000000" stroke="none" 
	d="
M74.001831,131.998779 
	C70.364380,129.515106 66.023499,127.642952 63.227936,124.427361 
	C56.236435,116.385361 50.551205,107.482864 49.892479,96.269745 
	C49.809212,94.852356 48.485497,93.507843 47.362675,92.066254 
	C46.988861,92.002945 46.968182,91.514671 46.978645,90.839478 
	C46.998833,88.444374 47.008560,86.724472 47.018288,85.004562 
	C47.018288,85.004562 47.512138,85.008621 47.818512,85.365189 
	C49.409840,88.886497 51.422840,91.955803 51.852470,95.232689 
	C53.618359,108.701584 61.321552,118.417290 71.431808,126.364182 
	C73.813812,128.236496 73.936241,129.763947 74.001831,131.998779 
z"/>
<path fill="#DF9D3A" opacity="1.000000" stroke="none" 
	d="
M46.683800,85.002228 
	C47.008560,86.724472 46.998833,88.444374 46.970066,90.595276 
	C42.491661,90.832649 44.156681,87.858719 44.729416,85.252335 
	C45.458065,84.996979 45.903690,84.998436 46.683800,85.002228 
z"/>
<path fill="#F7CD55" opacity="1.000000" stroke="none" 
	d="
M49.996845,80.000694 
	C50.161068,79.443375 50.325291,78.886047 51.080956,78.195717 
	C53.781551,79.708984 55.890705,81.355255 58.035339,83.350494 
	C68.462265,96.540108 76.300774,112.130280 93.831314,117.390625 
	C91.772659,118.140808 89.903023,118.578812 87.643539,119.005165 
	C85.503448,119.330330 83.753204,119.667137 81.645035,119.966827 
	C73.448601,117.248138 68.543358,111.427597 64.736549,104.441772 
	C61.032200,97.643990 57.412418,90.798706 53.599270,84.062714 
	C52.727383,82.522507 51.214638,81.345085 49.996845,80.000694 
z"/>
<path fill="#F6C452" opacity="1.000000" stroke="none" 
	d="
M49.867771,80.293747 
	C51.214638,81.345085 52.727383,82.522507 53.599270,84.062714 
	C57.412418,90.798706 61.032200,97.643990 64.736549,104.441772 
	C68.543358,111.427597 73.448601,117.248138 81.501205,120.256920 
	C80.793938,121.685265 79.872581,122.786407 78.950531,123.930511 
	C78.949844,123.973473 78.864990,123.959915 78.473557,123.967842 
	C76.653610,123.716667 74.892944,123.904427 73.848770,123.128258 
	C64.947990,116.512138 57.782440,108.886513 55.735485,97.145058 
	C54.871490,92.189140 51.327019,87.700523 49.000957,82.999496 
	C49.246868,82.195267 49.492783,81.391029 49.867771,80.293747 
z"/>
<path fill="#F1BA4B" opacity="1.000000" stroke="none" 
	d="
M48.891541,83.258377 
	C51.327019,87.700523 54.871490,92.189140 55.735485,97.145058 
	C57.782440,108.886513 64.947990,116.512138 73.848770,123.128258 
	C74.892944,123.904427 76.653610,123.716667 78.336464,124.275391 
	C78.391052,125.836143 78.191315,127.097275 77.740402,128.559723 
	C76.992317,129.841690 76.495399,130.922333 75.998474,132.002960 
	C75.554756,132.002426 75.111046,132.001907 74.334579,132.000092 
	C73.936241,129.763947 73.813812,128.236496 71.431808,126.364182 
	C61.321552,118.417290 53.618359,108.701584 51.852470,95.232689 
	C51.422840,91.955803 49.409840,88.886497 48.065441,85.365860 
	C48.264709,84.512405 48.523418,84.014832 48.891541,83.258377 
z"/>
<path fill="#F8D561" opacity="1.000000" stroke="none" 
	d="
M57.999859,83.001526 
	C55.890705,81.355255 53.781551,79.708984 51.326775,78.029434 
	C51.459091,76.457062 51.937031,74.917976 52.843307,73.467285 
	C55.847317,75.370766 58.422989,77.185837 61.031082,79.346184 
	C61.375565,80.794502 61.687630,81.897560 61.599716,83.000549 
	C60.133110,83.000839 59.066486,83.001183 57.999859,83.001526 
z"/>
<path fill="#F9DB6B" opacity="1.000000" stroke="none" 
	d="
M60.998665,79.000916 
	C58.422989,77.185837 55.847317,75.370766 53.114899,73.250778 
	C52.976326,72.524376 52.994503,72.102882 53.029594,71.365753 
	C53.513744,70.761398 53.980972,70.472672 54.899010,70.343109 
	C57.566341,71.670128 59.782864,72.837959 62.001984,74.355698 
	C62.336891,75.804199 62.669209,76.902809 62.833946,78.246719 
	C62.110466,78.661659 61.554562,78.831291 60.998665,79.000916 
z"/>
<path fill="#FFFCC9" opacity="1.000000" stroke="none" 
	d="
M71.848114,51.805748 
	C73.737511,50.675621 75.626907,49.545498 78.006577,48.208687 
	C78.675522,48.020557 78.854202,48.039112 79.256050,48.320274 
	C90.273598,54.268215 101.451744,56.007172 113.243561,51.999748 
	C116.623978,50.850918 120.083145,49.933811 123.850235,48.877853 
	C126.517067,50.235912 128.839859,51.626568 130.721649,53.010582 
	C128.320480,53.248196 126.299881,53.269451 124.412086,53.780869 
	C119.784500,55.034512 115.297035,57.270962 110.612190,57.759296 
	C97.254326,59.151684 84.232048,57.287971 71.848114,51.805748 
z"/>
<path fill="#FEF9AC" opacity="1.000000" stroke="none" 
	d="
M64.987587,56.982658 
	C65.740524,56.303402 66.493454,55.624146 67.780014,55.188995 
	C84.435654,60.625549 100.705887,63.871506 117.592293,59.257401 
	C123.082474,57.757248 128.586639,56.308285 134.368774,54.982353 
	C135.532120,56.050415 136.411087,56.972034 136.888321,57.956821 
	C124.990486,60.347679 113.494408,62.675365 101.598938,65.002289 
	C100.133598,65.001991 99.067642,65.002441 97.580811,65.000511 
	C89.041245,63.594086 80.880836,62.386593 72.826897,60.677441 
	C70.076302,60.093727 67.593010,58.250439 64.987587,56.982658 
z"/>
<path fill="#FEFAB9" opacity="1.000000" stroke="none" 
	d="
M134.084396,54.835907 
	C128.586639,56.308285 123.082474,57.757248 117.592293,59.257401 
	C100.705887,63.871506 84.435654,60.625549 68.082893,55.112514 
	C68.997887,53.893852 70.143639,52.995785 71.568748,51.951733 
	C84.232048,57.287971 97.254326,59.151684 110.612190,57.759296 
	C115.297035,57.270962 119.784500,55.034512 124.412086,53.780869 
	C126.299881,53.269451 128.320480,53.248196 130.958466,53.200069 
	C132.420303,53.610950 133.204361,53.825699 134.016296,54.238842 
	C134.044205,54.437237 134.084396,54.835907 134.084396,54.835907 
z"/>
<path fill="#FADF57" opacity="1.000000" stroke="none" 
	d="
M79.032883,48.057671 
	C78.854202,48.039112 78.675522,48.020557 78.229309,47.967823 
	C81.010590,41.957230 87.461380,43.073612 92.392181,41.024628 
	C93.525543,40.553661 94.705833,40.195641 95.962875,39.417107 
	C98.723846,39.045181 101.386467,39.041794 104.596176,39.416752 
	C109.431740,40.866085 113.720222,41.937077 118.008705,43.008072 
	C118.558517,43.179031 119.108330,43.349991 119.825661,44.121410 
	C120.000511,45.441406 120.007843,46.160942 119.668098,46.922966 
	C118.400932,46.930218 117.480835,46.894985 116.399368,46.474995 
	C106.153976,42.491005 96.040749,41.634995 85.512268,45.820469 
	C83.111038,46.601826 81.071960,47.329746 79.032883,48.057671 
z"/>
<path fill="#FEF7A0" opacity="1.000000" stroke="none" 
	d="
M64.699387,57.095444 
	C67.593010,58.250439 70.076302,60.093727 72.826897,60.677441 
	C80.880836,62.386593 89.041245,63.594086 97.580338,65.374634 
	C97.999786,66.499725 97.998825,67.248306 97.581741,67.997391 
	C95.778366,67.996773 94.391090,67.995651 92.931152,67.626053 
	C91.238281,66.839386 89.618088,66.421188 87.664917,66.002686 
	C86.887955,66.002129 86.443977,66.001884 85.740295,65.717560 
	C78.986610,64.289993 72.492630,63.146523 65.662582,61.973007 
	C64.198082,61.274929 63.069649,60.606892 61.941216,59.938850 
	C62.764542,59.028645 63.587868,58.118439 64.699387,57.095444 
z"/>
<path fill="#FCEC81" opacity="1.000000" stroke="none" 
	d="
M56.902950,66.967033 
	C57.386997,66.049210 57.871040,65.131378 58.812740,64.382378 
	C62.179287,65.369675 65.088181,66.188148 68.052856,67.354126 
	C70.740242,69.472183 73.371857,71.242752 75.747772,73.294250 
	C72.660240,73.388680 69.828400,73.202179 66.804352,72.739761 
	C63.375751,70.631577 60.139351,68.799309 56.902950,66.967033 
z"/>
<path fill="#FAE477" opacity="1.000000" stroke="none" 
	d="
M56.628708,67.117996 
	C60.139351,68.799309 63.375751,70.631577 66.554970,73.016701 
	C64.998322,73.714966 63.498856,73.860382 61.999390,74.005798 
	C59.782864,72.837959 57.566341,71.670128 55.148300,70.225510 
	C55.416016,69.055473 55.885242,68.162216 56.628708,67.117996 
z"/>
<path fill="#FCED90" opacity="1.000000" stroke="none" 
	d="
M67.997070,67.006622 
	C65.088181,66.188148 62.179287,65.369675 59.090416,64.218613 
	C59.737865,62.675400 60.565296,61.464771 61.666969,60.096497 
	C63.069649,60.606892 64.198082,61.274929 65.704048,62.293449 
	C66.720543,63.096760 67.359512,63.549583 67.998573,64.335541 
	C67.999519,65.112854 68.000374,65.557037 68.000381,66.252571 
	C67.998711,66.671486 67.997887,66.839058 67.997070,67.006622 
z"/>
<path fill="#F7CD54" opacity="1.000000" stroke="none" 
	d="
M150.013214,75.985321 
	C150.653824,77.424065 151.294449,78.862816 151.611969,80.690231 
	C149.047440,84.345940 146.535339,87.466141 144.656464,90.929840 
	C143.326981,93.380692 142.854446,96.296387 141.654633,99.055420 
	C138.324539,103.197227 135.362427,107.305382 132.348907,111.375481 
	C126.593918,119.148239 121.137787,120.641190 112.050797,116.650551 
	C121.198013,111.327797 128.631851,104.729630 134.002014,95.657143 
	C136.715912,91.072212 140.627899,87.196426 144.298752,82.853821 
	C146.403961,80.466858 148.208588,78.226089 150.013214,75.985321 
z"/>
<path fill="#F5C14F" opacity="1.000000" stroke="none" 
	d="
M141.999390,99.004578 
	C142.854446,96.296387 143.326981,93.380692 144.656464,90.929840 
	C146.535339,87.466141 149.047440,84.345940 151.645447,81.039391 
	C152.335205,82.089264 152.668381,83.178658 152.640930,84.699982 
	C151.853745,85.770897 151.281357,86.356155 151.023102,87.057144 
	C148.359589,94.287003 146.664474,102.066696 142.864914,108.631310 
	C138.973953,115.353806 133.035782,120.891388 127.953186,126.997498 
	C127.912674,127.047379 127.843864,127.155914 127.586044,127.044891 
	C126.839485,126.379150 126.350746,125.824440 126.013290,124.943527 
	C134.506882,117.974037 141.628922,110.576347 141.999390,99.004578 
z"/>
<path fill="#F3B948" opacity="1.000000" stroke="none" 
	d="
M127.993698,126.947617 
	C133.035782,120.891388 138.973953,115.353806 142.864914,108.631310 
	C146.664474,102.066696 148.359589,94.287003 151.023102,87.057144 
	C151.281357,86.356155 151.853745,85.770897 152.640747,85.065773 
	C153.328873,86.098366 153.656570,87.197105 153.664337,88.689491 
	C152.897263,89.723503 152.450104,90.363876 152.002960,91.004250 
	C152.001251,92.069633 151.999557,93.135017 151.673279,94.774673 
	C150.898727,96.198303 150.222260,97.000320 150.033325,97.904243 
	C147.808319,108.549164 142.169617,117.164787 134.125320,124.226570 
	C132.521332,125.634666 130.059799,126.065926 127.993698,126.947617 
z"/>
<path fill="#F4B943" opacity="1.000000" stroke="none" 
	d="
M134.368774,54.982353 
	C134.084396,54.835907 134.044205,54.437237 133.990494,53.891357 
	C133.284180,51.903866 132.631592,50.462261 131.979004,49.020653 
	C141.084930,54.996349 148.294586,62.400887 149.992874,73.637611 
	C149.010071,73.116104 148.522552,72.542007 147.991364,71.632294 
	C146.990036,69.841095 146.032364,68.385498 144.980362,66.719597 
	C144.716278,66.235504 144.477844,66.049942 144.095917,65.627014 
	C142.765381,63.852978 141.509689,62.404522 140.089569,60.677719 
	C139.046768,59.564129 138.168427,58.728889 137.290070,57.893650 
	C136.411087,56.972034 135.532120,56.050415 134.368774,54.982353 
z"/>
<path fill="#F8D662" opacity="1.000000" stroke="none" 
	d="
M148.035034,71.967903 
	C148.522552,72.542007 149.010071,73.116104 149.737427,73.845978 
	C149.985687,74.442650 149.994095,74.883545 150.007874,75.654877 
	C148.208588,78.226089 146.403961,80.466858 143.899933,82.854233 
	C141.133881,83.332901 139.067245,83.664970 137.034363,83.652191 
	C138.712585,80.872681 140.357071,78.438019 142.343933,75.968704 
	C144.469193,74.612007 146.252121,73.289955 148.035034,71.967903 
z"/>
<path fill="#F7CF4D" opacity="1.000000" stroke="none" 
	d="
M131.662872,48.970734 
	C132.631592,50.462261 133.284180,51.903866 133.962585,53.692963 
	C133.204361,53.825699 132.420303,53.610950 131.399460,53.206711 
	C128.839859,51.626568 126.517067,50.235912 123.617203,48.607689 
	C122.031822,47.873573 121.023499,47.377026 120.015175,46.880482 
	C120.007843,46.160942 120.000511,45.441406 119.993919,44.362137 
	C121.052498,44.005322 122.110329,44.008232 123.618774,44.334129 
	C124.717979,45.103546 125.366577,45.549973 126.015167,45.996407 
	C127.094101,46.335949 128.173035,46.675491 129.593979,47.027184 
	C130.406235,47.666489 130.876495,48.293652 131.662872,48.970734 
z"/>
<path fill="#F2B546" opacity="1.000000" stroke="none" 
	d="
M152.300385,90.982445 
	C152.450104,90.363876 152.897263,89.723503 153.663025,89.039429 
	C153.985794,89.162880 153.989960,89.330040 153.996170,89.747986 
	C153.531403,90.319405 153.064621,90.640022 152.300385,90.982445 
z"/>
<path fill="#F6C347" opacity="1.000000" stroke="none" 
	d="
M117.943634,42.644051 
	C113.720222,41.937077 109.431740,40.866085 105.041199,39.420738 
	C109.252281,40.124264 113.565414,41.202148 117.943634,42.644051 
z"/>
<path fill="#F4B943" opacity="1.000000" stroke="none" 
	d="
M125.969070,45.673149 
	C125.366577,45.549973 124.717979,45.103546 124.015335,44.337818 
	C124.615181,44.462311 125.269073,44.906101 125.969070,45.673149 
z"/>
<path fill="#F2B546" opacity="1.000000" stroke="none" 
	d="
M127.953186,126.997498 
	C130.059799,126.065926 132.521332,125.634666 134.125320,124.226570 
	C142.169617,117.164787 147.808319,108.549164 150.033325,97.904243 
	C150.222260,97.000320 150.898727,96.198303 151.671921,95.174187 
	C151.995819,105.538071 147.034332,114.084099 140.610092,121.784584 
	C130.553909,133.838562 117.200378,140.374741 101.736977,140.562744 
	C92.839424,140.670944 83.199318,139.941788 76.038322,132.358337 
	C76.495399,130.922333 76.992317,129.841690 77.993385,128.448059 
	C78.680916,128.153397 78.864311,128.171707 79.197784,128.489700 
	C80.702110,129.921738 81.883636,131.466507 83.439278,132.118027 
	C92.075287,135.734894 101.177582,136.025070 110.146759,134.246368 
	C114.659500,133.351410 118.813293,130.646561 123.479034,128.838409 
	C125.741653,129.640060 128.048294,131.261063 127.843864,127.155914 
	C127.843864,127.155914 127.912674,127.047379 127.953186,126.997498 
z"/>
<path fill="#F8D657" opacity="1.000000" stroke="none" 
	d="
M137.000610,83.997032 
	C139.067245,83.664970 141.133881,83.332901 143.599335,83.000412 
	C140.627899,87.196426 136.715912,91.072212 134.002014,95.657143 
	C128.631851,104.729630 121.198013,111.327797 111.682571,116.645172 
	C109.510727,116.977379 107.760063,116.970284 105.548378,116.964096 
	C101.398354,117.002815 97.709343,117.040634 94.020340,117.078445 
	C76.300774,112.130280 68.462265,96.540108 58.035339,83.350494 
	C59.066486,83.001183 60.133110,83.000839 61.796883,83.274956 
	C65.594154,85.035240 68.794281,86.521065 72.031029,88.360397 
	C73.378326,90.475739 74.689011,92.237579 76.059227,94.362976 
	C78.410599,95.486168 80.702438,96.245781 83.035515,97.360741 
	C83.534912,98.368980 83.848289,99.264748 84.473503,99.637459 
	C91.237793,103.670029 98.689430,105.336250 106.268082,103.553818 
	C111.266670,102.378189 117.033974,101.606796 120.371597,96.126038 
	C124.914040,95.561882 127.199493,93.383141 127.118927,88.743980 
	C127.186958,88.274521 127.173424,88.082321 127.190598,87.563171 
	C127.123695,86.809769 127.026085,86.383324 126.978531,85.594360 
	C127.278366,83.826744 127.528122,82.421631 128.095871,81.226440 
	C128.773560,83.130028 129.133270,84.823677 129.526474,86.675026 
	C132.184250,85.722740 134.592438,84.859886 137.000610,83.997032 
z"/>
<path fill="#633611" opacity="1.000000" stroke="none" 
	d="
M93.831314,117.390625 
	C97.709343,117.040634 101.398354,117.002815 105.783035,117.241196 
	C112.939812,120.101501 119.400902,122.685616 125.862000,125.269730 
	C126.350746,125.824440 126.839485,126.379150 127.586044,127.044891 
	C128.048294,131.261063 125.741653,129.640060 123.335320,128.607620 
	C122.321838,128.172134 121.801682,128.045715 121.154884,127.664398 
	C120.685265,127.288567 120.342285,127.167641 119.841614,126.970627 
	C119.683914,126.894531 119.333923,126.906540 119.195236,126.560944 
	C107.124565,119.226089 95.053993,120.043320 82.941025,125.654724 
	C81.820168,126.173958 80.923981,127.178200 79.701782,128.005096 
	C79.480095,128.052948 79.047707,128.190033 79.047707,128.190033 
	C78.864311,128.171707 78.680916,128.153397 78.244553,128.246735 
	C78.191315,127.097275 78.391052,125.836143 78.727890,124.267471 
	C78.864990,123.959915 78.949844,123.973473 79.309998,123.909241 
	C82.457909,122.235611 85.245651,120.626213 88.033394,119.016808 
	C89.903023,118.578812 91.772659,118.140808 93.831314,117.390625 
z"/>
<path fill="#F1BA4B" opacity="1.000000" stroke="none" 
	d="
M87.643539,119.005165 
	C85.245651,120.626213 82.457909,122.235611 79.310692,123.866280 
	C79.872581,122.786407 80.793938,121.685265 81.859131,120.294037 
	C83.753204,119.667137 85.503448,119.330330 87.643539,119.005165 
z"/>
<path fill="#F7DE5F" opacity="1.000000" stroke="none" 
	d="
M71.994408,88.006882 
	C68.794281,86.521065 65.594154,85.035240 62.196861,83.275009 
	C61.687630,81.897560 61.375565,80.794502 61.031082,79.346184 
	C61.554562,78.831291 62.110466,78.661659 63.168152,78.395332 
	C66.921318,79.241570 70.172699,80.184502 73.326721,81.538177 
	C73.152924,83.632401 73.076477,85.315880 72.779793,87.108597 
	C72.285484,87.419472 72.097099,87.682487 71.994408,88.006882 
z"/>
<path fill="#F5E26A" opacity="1.000000" stroke="none" 
	d="
M73.424080,81.127434 
	C70.172699,80.184502 66.921318,79.241570 63.335732,78.150024 
	C62.669209,76.902809 62.336891,75.804199 62.001984,74.355698 
	C63.498856,73.860382 64.998322,73.714966 66.747169,73.292610 
	C69.828400,73.202179 72.660240,73.388680 76.035217,73.302406 
	C77.054604,73.298622 77.530853,73.567604 77.837769,74.136482 
	C76.253654,76.666733 74.838867,78.897087 73.424080,81.127434 
z"/>
<path fill="#FFFDD9" opacity="1.000000" stroke="none" 
	d="
M119.668098,46.922966 
	C121.023499,47.377026 122.031822,47.873573 123.273178,48.640289 
	C120.083145,49.933811 116.623978,50.850918 113.243561,51.999748 
	C101.451744,56.007172 90.273598,54.268215 79.256050,48.320274 
	C81.071960,47.329746 83.111038,46.601826 85.680611,46.159767 
	C91.520309,50.203922 97.382439,51.910236 103.801270,50.510349 
	C108.114655,49.569637 112.311668,48.095333 116.560745,46.859756 
	C117.480835,46.894985 118.400932,46.930218 119.668098,46.922966 
z"/>
<path fill="#FEF7A0" opacity="1.000000" stroke="none" 
	d="
M136.888321,57.956821 
	C138.168427,58.728889 139.046768,59.564129 139.697083,60.720139 
	C137.980118,61.361877 136.491196,61.682846 134.579727,62.003643 
	C127.771454,63.336185 121.385727,64.668900 114.600281,66.001595 
	C113.134636,66.002373 112.068710,66.003166 110.636368,66.002663 
	C109.179970,66.335083 108.089989,66.668808 106.630859,67.006470 
	C104.841499,67.338959 103.421272,67.667503 102.000809,67.621849 
	C101.999825,66.499451 101.999077,65.751251 101.998322,65.003052 
	C113.494408,62.675365 124.990486,60.347679 136.888321,57.956821 
z"/>
<path fill="#FEF899" opacity="1.000000" stroke="none" 
	d="
M101.598938,65.002289 
	C101.999077,65.751251 101.999825,66.499451 101.807724,67.878189 
	C100.409210,68.338112 99.203537,68.167496 97.997864,67.996887 
	C97.998825,67.248306 97.999786,66.499725 98.001213,65.377022 
	C99.067642,65.002441 100.133598,65.001991 101.598938,65.002289 
z"/>
<path fill="#FFFDE2" opacity="1.000000" stroke="none" 
	d="
M116.399368,46.474995 
	C112.311668,48.095333 108.114655,49.569637 103.801270,50.510349 
	C97.382439,51.910236 91.520309,50.203922 86.042770,46.106331 
	C96.040749,41.634995 106.153976,42.491005 116.399368,46.474995 
z"/>
<path fill="#FEF892" opacity="1.000000" stroke="none" 
	d="
M97.581749,67.997391 
	C99.203537,68.167496 100.409210,68.338112 101.807968,68.252380 
	C103.421272,67.667503 104.841499,67.338959 106.852402,67.271332 
	C108.629646,67.022820 109.816216,66.513397 111.002785,66.003967 
	C112.068710,66.003166 113.134636,66.002373 114.853745,66.282928 
	C121.338562,65.710442 127.170197,64.856590 133.001602,64.377159 
	C132.999481,65.500320 132.997604,66.249062 132.563400,66.998268 
	C126.424011,67.829773 120.732018,68.790695 115.005646,69.455376 
	C109.270073,70.121132 103.414978,71.356422 97.764069,70.800110 
	C87.782387,69.817436 77.915916,67.664383 68.001221,66.001221 
	C68.000374,65.557037 67.999519,65.112854 68.394485,64.382202 
	C74.526863,64.731033 80.263428,65.366341 86.000000,66.001648 
	C86.443977,66.001884 86.887955,66.002129 87.736923,66.371475 
	C89.762550,67.158562 91.383186,67.576538 93.003822,67.994522 
	C94.391090,67.995651 95.778366,67.996773 97.581749,67.997391 
z"/>
<path fill="#FEF899" opacity="1.000000" stroke="none" 
	d="
M85.740295,65.717560 
	C80.263428,65.366341 74.526863,64.731033 68.394379,64.049065 
	C67.359512,63.549583 66.720543,63.096760 66.040115,62.323494 
	C72.492630,63.146523 78.986610,64.289993 85.740295,65.717560 
z"/>
<path fill="#FEF899" opacity="1.000000" stroke="none" 
	d="
M92.931152,67.626053 
	C91.383186,67.576538 89.762550,67.158562 88.069901,66.371796 
	C89.618088,66.421188 91.238281,66.839386 92.931152,67.626053 
z"/>
<path fill="#FEF688" opacity="1.000000" stroke="none" 
	d="
M68.000381,66.252579 
	C77.915916,67.664383 87.782387,69.817436 97.764069,70.800110 
	C103.414978,71.356422 109.270073,70.121132 115.005646,69.455376 
	C120.732018,68.790695 126.424011,67.829773 132.861816,67.019485 
	C134.061584,67.359955 134.530579,67.679672 134.774475,68.272438 
	C131.337875,70.445152 128.126373,72.344818 124.560715,74.095795 
	C121.804283,73.920219 119.402000,73.893341 116.904182,73.492439 
	C116.604706,72.868637 116.400002,72.399803 116.196930,72.400513 
	C105.773933,72.436760 95.351044,72.509583 84.928345,72.601646 
	C84.626083,72.604324 84.326004,72.855751 83.770203,72.895935 
	C82.652748,72.919914 81.789986,73.039154 80.574677,73.290512 
	C79.483788,73.560616 78.745445,73.698601 78.007111,73.836586 
	C77.530853,73.567604 77.054604,73.298622 76.290909,73.021469 
	C73.371857,71.242752 70.740242,69.472183 68.052856,67.354126 
	C67.997887,66.839058 67.998711,66.671486 68.000381,66.252579 
z"/>
<path fill="#F1BF50" opacity="1.000000" stroke="none" 
	d="
M126.013290,124.943527 
	C119.400902,122.685616 112.939812,120.101501 106.244057,117.240280 
	C107.760063,116.970284 109.510727,116.977379 111.629608,116.989868 
	C121.137787,120.641190 126.593918,119.148239 132.348907,111.375481 
	C135.362427,107.305382 138.324539,103.197227 141.654633,99.055420 
	C141.628922,110.576347 134.506882,117.974037 126.013290,124.943527 
z"/>
<path fill="#FBEB7D" opacity="1.000000" stroke="none" 
	d="
M124.914864,74.244484 
	C128.126373,72.344818 131.337875,70.445152 135.167618,68.265656 
	C138.580826,67.308083 141.375793,66.630341 144.170761,65.952591 
	C144.477844,66.049942 144.716278,66.235504 144.787292,66.991119 
	C143.125290,68.982674 141.562027,70.492409 139.625671,72.042252 
	C134.879730,73.384338 130.506897,74.686302 125.977386,75.767624 
	C125.518761,75.112816 125.216812,74.678650 124.914864,74.244484 
z"/>
<path fill="#FCED8F" opacity="1.000000" stroke="none" 
	d="
M144.095917,65.627014 
	C141.375793,66.630341 138.580826,67.308083 135.392731,67.992607 
	C134.530579,67.679672 134.061584,67.359955 133.294159,67.019028 
	C132.997604,66.249062 132.999481,65.500320 133.321991,64.335106 
	C134.095825,63.280361 134.549057,62.642090 135.002274,62.003815 
	C136.491196,61.682846 137.980118,61.361877 139.861511,60.998489 
	C141.509689,62.404522 142.765381,63.852978 144.095917,65.627014 
z"/>
<path fill="#F9DD73" opacity="1.000000" stroke="none" 
	d="
M139.998779,72.002136 
	C141.562027,70.492409 143.125290,68.982674 144.881622,67.201431 
	C146.032364,68.385498 146.990036,69.841095 147.991364,71.632294 
	C146.252121,73.289955 144.469193,74.612007 142.010010,75.967232 
	C140.888550,75.999657 140.443359,75.998909 139.998871,75.598579 
	C139.999298,74.133377 139.999039,73.067757 139.998779,72.002136 
z"/>
<path fill="#FAE064" opacity="1.000000" stroke="none" 
	d="
M139.998169,75.998161 
	C140.443359,75.998909 140.888550,75.999657 141.667664,76.001877 
	C140.357071,78.438019 138.712585,80.872681 137.034363,83.652191 
	C134.592438,84.859886 132.184250,85.722740 129.526474,86.675026 
	C129.133270,84.823677 128.773560,83.130028 128.040237,81.034309 
	C127.666626,80.632248 127.790489,80.251595 128.189682,80.167755 
	C132.391968,78.721992 136.195068,77.360077 139.998169,75.998161 
z"/>
<path fill="#F4BC4D" opacity="1.000000" stroke="none" 
	d="
M119.333923,126.906540 
	C119.333923,126.906540 119.683914,126.894531 119.989639,127.198898 
	C120.624084,127.641937 120.952805,127.780617 121.281532,127.919296 
	C121.801682,128.045715 122.321838,128.172134 122.985703,128.529358 
	C118.813293,130.646561 114.659500,133.351410 110.146759,134.246368 
	C101.177582,136.025070 92.075287,135.734894 83.439278,132.118027 
	C81.883636,131.466507 80.702110,129.921738 79.197784,128.489700 
	C79.047707,128.190033 79.480095,128.052948 80.093704,128.018707 
	C82.469208,127.661469 84.231087,127.338486 86.058228,127.378220 
	C86.853493,128.364548 87.549767,129.482208 88.318771,129.534714 
	C95.378906,130.016846 102.457817,130.622849 109.517075,130.481979 
	C111.701469,130.438400 113.842407,128.217010 116.419495,126.996056 
	C117.668465,126.968445 118.501190,126.937492 119.333923,126.906540 
z"/>
<path fill="#F9DF58" opacity="1.000000" stroke="none" 
	d="
M119.990631,96.184792 
	C117.033974,101.606796 111.266670,102.378189 106.268082,103.553818 
	C98.689430,105.336250 91.237793,103.670029 84.473503,99.637459 
	C83.848289,99.264748 83.534912,98.368980 83.241425,97.078094 
	C86.618225,92.791298 90.832413,92.845642 95.214615,92.996590 
	C100.082214,93.164253 104.963417,92.918571 109.838913,92.884911 
	C111.906227,92.870636 113.974113,92.938019 116.026260,92.974915 
	C116.010788,92.981537 116.026222,92.960197 116.054237,93.279953 
	C116.697609,94.067284 117.312958,94.534851 118.112198,95.248764 
	C118.860939,95.724998 119.425789,95.954895 119.990631,96.184792 
z"/>
<path fill="#F3E05A" opacity="1.000000" stroke="none" 
	d="
M116.041740,92.968285 
	C113.974113,92.938019 111.906227,92.870636 109.838913,92.884911 
	C104.963417,92.918571 100.082214,93.164253 95.214615,92.996590 
	C90.832413,92.845642 86.618225,92.791298 83.200195,96.722755 
	C80.702438,96.245781 78.410599,95.486168 76.136742,94.285263 
	C76.154724,93.843987 76.309486,93.688263 76.651382,93.842552 
	C82.568764,96.159187 84.285339,95.169594 87.865097,87.988106 
	C96.348709,87.992027 104.390190,87.992027 112.942856,87.992027 
	C112.942856,85.557480 112.942856,83.782745 113.151054,81.998611 
	C113.359253,81.989220 113.772209,82.045876 114.025131,82.056824 
	C114.444344,82.096573 114.610634,82.125381 114.789215,82.579910 
	C114.827019,85.005035 114.852539,87.004440 114.972336,89.344604 
	C115.391655,90.779678 115.716698,91.873978 116.041740,92.968285 
z"/>
<path fill="#6E4216" opacity="1.000000" stroke="none" 
	d="
M114.776932,82.154190 
	C114.610634,82.125381 114.444344,82.096573 114.071609,81.676048 
	C113.853683,80.520943 113.842186,79.757545 113.979355,78.692490 
	C114.373093,77.592087 114.618156,76.793335 114.999725,75.718422 
	C115.757393,74.916992 116.378555,74.391731 116.999718,73.866470 
	C119.402000,73.893341 121.804283,73.920219 124.560715,74.095795 
	C125.216812,74.678650 125.518761,75.112816 125.943924,76.102524 
	C126.117592,77.101807 126.168045,77.545540 126.183075,78.305496 
	C126.697815,79.156914 127.247986,79.692093 127.818130,80.232956 
	C127.838112,80.238640 127.790489,80.251595 127.790489,80.251595 
	C127.790489,80.251595 127.666626,80.632248 127.722260,80.824387 
	C127.528122,82.421631 127.278366,83.826744 126.714775,85.367294 
	C125.920219,84.020851 125.439491,82.538979 124.818787,80.742126 
	C123.131950,79.648979 121.585083,78.870804 119.690826,78.100266 
	C117.821266,79.456665 116.299095,80.805420 114.776932,82.154190 
z"/>
<path fill="#8C5F22" opacity="1.000000" stroke="none" 
	d="
M124.958755,81.057106 
	C125.439491,82.538979 125.920219,84.020851 126.664703,85.729797 
	C127.026085,86.383324 127.123695,86.809769 126.999039,87.664497 
	C126.685135,88.200195 126.496269,88.372925 126.517494,88.404526 
	C126.666519,88.626396 126.858871,88.819168 127.037369,89.021240 
	C127.199493,93.383141 124.914040,95.561882 120.371597,96.126038 
	C119.425789,95.954895 118.860939,95.724998 118.059113,94.960846 
	C117.223495,93.937790 116.624863,93.448990 116.026222,92.960197 
	C116.026222,92.960197 116.010788,92.981537 116.026260,92.974915 
	C115.716698,91.873978 115.391655,90.779678 115.328934,89.343964 
	C116.065369,89.001480 116.539482,89.000389 117.285133,89.241539 
	C118.464096,90.628113 119.371529,91.772446 120.278961,92.916779 
	C121.509712,91.570061 123.304504,90.414406 123.840431,88.832321 
	C124.666382,86.394096 124.629578,83.663612 124.958755,81.057106 
z"/>
<path fill="#F3E05A" opacity="1.000000" stroke="none" 
	d="
M72.031029,88.360397 
	C72.097099,87.682487 72.285484,87.419472 72.975769,87.242561 
	C73.616776,87.491943 73.816254,87.737190 73.978745,88.353592 
	C74.747887,90.365517 75.528687,92.026886 76.309486,93.688263 
	C76.309486,93.688263 76.154724,93.843987 76.077209,93.921700 
	C74.689011,92.237579 73.378326,90.475739 72.031029,88.360397 
z"/>
<path fill="#6E4216" opacity="1.000000" stroke="none" 
	d="
M127.118927,88.743980 
	C126.858871,88.819168 126.666519,88.626396 126.517494,88.404526 
	C126.496269,88.372925 126.685135,88.200195 126.968330,87.991455 
	C127.173424,88.082321 127.186958,88.274521 127.118927,88.743980 
z"/>
<path fill="#EAD364" opacity="1.000000" stroke="none" 
	d="
M119.195236,126.560944 
	C118.501190,126.937492 117.668465,126.968445 116.190025,126.703285 
	C105.616470,122.849846 95.759964,122.758698 85.992973,127.015511 
	C84.231087,127.338486 82.469208,127.661469 80.315399,127.970840 
	C80.923981,127.178200 81.820168,126.173958 82.941025,125.654724 
	C95.053993,120.043320 107.124565,119.226089 119.195236,126.560944 
z"/>
<path fill="#F6C456" opacity="1.000000" stroke="none" 
	d="
M121.154884,127.664398 
	C120.952805,127.780617 120.624084,127.641937 120.147339,127.274986 
	C120.342285,127.167641 120.685265,127.288567 121.154884,127.664398 
z"/>
<path fill="#704417" opacity="1.000000" stroke="none" 
	d="
M73.990410,88.003029 
	C73.816254,87.737190 73.616776,87.491943 73.195999,87.133316 
	C73.076477,85.315880 73.152924,83.632401 73.326721,81.538177 
	C74.838867,78.897087 76.253654,76.666733 77.837769,74.136482 
	C78.745445,73.698601 79.483788,73.560616 80.908104,73.507584 
	C82.351341,73.828224 83.108589,74.063919 83.999176,74.529434 
	C84.675217,75.200935 85.217926,75.642609 85.816696,76.410774 
	C86.253403,77.489975 86.634071,78.242691 87.028732,79.328560 
	C87.419540,80.439117 87.796341,81.216522 88.104721,82.364876 
	C87.709763,84.163635 87.383232,85.591446 86.789421,86.916107 
	C86.022545,86.535156 85.522949,86.257370 85.019806,85.592712 
	C84.345932,83.469284 83.675606,81.732719 82.849030,79.683807 
	C79.159508,76.938240 77.159737,78.387146 76.005142,82.421265 
	C75.977180,84.208565 75.962059,85.582748 75.696426,87.077911 
	C74.960747,87.466934 74.475578,87.734978 73.990410,88.003029 
z"/>
<path fill="#FEF899" opacity="1.000000" stroke="none" 
	d="
M134.579727,62.003643 
	C134.549057,62.642090 134.095825,63.280361 133.322220,63.960693 
	C127.170197,64.856590 121.338562,65.710442 115.253464,66.282944 
	C121.385727,64.668900 127.771454,63.336185 134.579727,62.003643 
z"/>
<path fill="#FEF899" opacity="1.000000" stroke="none" 
	d="
M110.636368,66.002670 
	C109.816216,66.513397 108.629646,67.022820 107.221542,67.267387 
	C108.089989,66.668808 109.179970,66.335083 110.636368,66.002670 
z"/>
<path fill="#FEF77F" opacity="1.000000" stroke="none" 
	d="
M85.760643,76.084290 
	C85.217926,75.642609 84.675217,75.200935 84.052376,74.203705 
	C83.989807,73.429176 84.007355,73.210190 84.024910,72.991196 
	C84.326004,72.855751 84.626083,72.604324 84.928345,72.601646 
	C95.351044,72.509583 105.773933,72.436760 116.196930,72.400513 
	C116.400002,72.399803 116.604706,72.868637 116.904182,73.492439 
	C116.378555,74.391731 115.757393,74.916992 114.540428,75.719879 
	C104.549957,76.026428 95.155304,76.055359 85.760643,76.084290 
z"/>
<path fill="#F5E26A" opacity="1.000000" stroke="none" 
	d="
M83.770203,72.895935 
	C84.007355,73.210190 83.989807,73.429176 83.919052,73.973885 
	C83.108589,74.063919 82.351341,73.828224 81.260658,73.375458 
	C81.789986,73.039154 82.652748,72.919914 83.770203,72.895935 
z"/>
<path fill="#FBE76E" opacity="1.000000" stroke="none" 
	d="
M126.218491,77.989265 
	C126.168045,77.545540 126.117592,77.101807 126.100609,76.323174 
	C130.506897,74.686302 134.879730,73.384338 139.625671,72.042252 
	C139.999039,73.067757 139.999298,74.133377 139.998871,75.598579 
	C136.195068,77.360077 132.391968,78.721992 128.189682,80.167755 
	C127.790489,80.251595 127.838112,80.238640 127.867874,79.906677 
	C127.337914,79.046234 126.778206,78.517746 126.218491,77.989265 
z"/>
<path fill="#F6C456" opacity="1.000000" stroke="none" 
	d="
M86.058228,127.378220 
	C95.759964,122.758698 105.616470,122.849846 115.773788,126.699951 
	C113.842407,128.217010 111.701469,130.438400 109.517075,130.481979 
	C102.457817,130.622849 95.378906,130.016846 88.318771,129.534714 
	C87.549767,129.482208 86.853493,128.364548 86.058228,127.378220 
z"/>
<path fill="#F3E05A" opacity="1.000000" stroke="none" 
	d="
M116.054237,93.279953 
	C116.624863,93.448990 117.223495,93.937790 117.875229,94.714508 
	C117.312958,94.534851 116.697609,94.067284 116.054237,93.279953 
z"/>
<path fill="#FCED63" opacity="1.000000" stroke="none" 
	d="
M87.056694,87.019257 
	C87.383232,85.591446 87.709763,84.163635 88.516090,82.379143 
	C96.978210,82.017647 104.960533,82.012825 112.942856,82.008011 
	C112.942856,83.782745 112.942856,85.557480 112.942856,87.992027 
	C104.390190,87.992027 96.348709,87.992027 87.788391,87.741158 
	C87.198601,87.333282 87.127647,87.176270 87.056694,87.019257 
z"/>
<path fill="#FDF26B" opacity="1.000000" stroke="none" 
	d="
M113.151054,81.998611 
	C104.960533,82.012825 96.978210,82.017647 88.584518,82.008194 
	C87.796341,81.216522 87.419540,80.439117 87.450844,79.340019 
	C96.516190,79.010269 105.173439,79.002213 113.830688,78.994156 
	C113.842186,79.757545 113.853683,80.520943 113.818695,81.665100 
	C113.772209,82.045876 113.359253,81.989220 113.151054,81.998611 
z"/>
<path fill="#85571E" opacity="1.000000" stroke="none" 
	d="
M86.789421,86.916107 
	C87.127647,87.176270 87.198601,87.333282 87.346268,87.737236 
	C84.285339,95.169594 82.568764,96.159187 76.651382,93.842552 
	C75.528687,92.026886 74.747887,90.365517 73.978745,88.353592 
	C74.475578,87.734978 74.960747,87.466934 75.721634,87.453293 
	C77.481865,89.433380 78.966393,91.159065 80.450912,92.884758 
	C81.744820,91.358139 83.109406,89.883774 84.296600,88.278252 
	C84.748528,87.667076 84.793114,86.754684 85.023346,85.979576 
	C85.522949,86.257370 86.022545,86.535156 86.789421,86.916107 
z"/>
<path fill="#8B5B1F" opacity="1.000000" stroke="none" 
	d="
M117.013603,88.999298 
	C116.539482,89.000389 116.065369,89.001480 115.234657,89.003204 
	C114.852539,87.004440 114.827019,85.005035 114.789215,82.579910 
	C116.299095,80.805420 117.821266,79.456665 119.634415,78.453758 
	C118.954796,82.199509 117.984200,85.599411 117.013603,88.999298 
z"/>
<path fill="#FDF574" opacity="1.000000" stroke="none" 
	d="
M113.979355,78.692497 
	C105.173439,79.002213 96.516190,79.010269 87.436844,79.006866 
	C86.634071,78.242691 86.253403,77.489975 85.816696,76.410774 
	C95.155304,76.055359 104.549957,76.026428 114.403915,75.996048 
	C114.618156,76.793335 114.373093,77.592087 113.979355,78.692497 
z"/>
<path fill="#9A6724" opacity="1.000000" stroke="none" 
	d="
M117.285133,89.241547 
	C117.984200,85.599411 118.954796,82.199509 119.981812,78.446121 
	C121.585083,78.870804 123.131950,79.648979 124.818787,80.742126 
	C124.629578,83.663612 124.666382,86.394096 123.840431,88.832321 
	C123.304504,90.414406 121.509712,91.570061 120.278961,92.916779 
	C119.371529,91.772446 118.464096,90.628113 117.285133,89.241547 
z"/>
<path fill="#F8D657" opacity="1.000000" stroke="none" 
	d="
M126.183067,78.305496 
	C126.778206,78.517746 127.337914,79.046234 127.847893,79.901001 
	C127.247986,79.692093 126.697815,79.156914 126.183067,78.305496 
z"/>
<path fill="#9A6724" opacity="1.000000" stroke="none" 
	d="
M85.019806,85.592712 
	C84.793114,86.754684 84.748528,87.667076 84.296600,88.278252 
	C83.109406,89.883774 81.744820,91.358139 80.450912,92.884758 
	C78.966393,91.159065 77.481865,89.433380 75.972137,87.332306 
	C75.962059,85.582748 75.977180,84.208565 76.369270,82.376198 
	C78.832581,81.277390 80.918922,80.636765 83.005272,79.996140 
	C83.675606,81.732719 84.345932,83.469284 85.019806,85.592712 
z"/>
<path fill="#8E5D20" opacity="1.000000" stroke="none" 
	d="
M82.849030,79.683807 
	C80.918922,80.636765 78.832581,81.277390 76.382111,81.963074 
	C77.159737,78.387146 79.159508,76.938240 82.849030,79.683807 
z"/>
</svg>