<svg version="1.1" id="Layer_1" xmlns="http://www.w3.org/2000/svg" xmlns:xlink="http://www.w3.org/1999/xlink" x="0px" y="0px"
	 width="100%" viewBox="0 0 200 200" enable-background="new 0 0 200 200" xml:space="preserve">
<path fill="#FFFFFF" opacity="1.000000" stroke="none" 
	d="
M116.000000,201.000000 
	C77.357201,201.000000 39.214397,201.000000 1.035799,201.000000 
	C1.035799,134.398911 1.035799,67.797783 1.035799,1.098330 
	C67.559296,1.098330 134.118790,1.098330 200.839142,1.098330 
	C200.839142,67.666351 200.839142,134.333145 200.839142,201.000000 
	C172.798065,201.000000 144.649033,201.000000 116.000000,201.000000 
M75.263489,42.887791 
	C74.788605,43.197083 74.313721,43.506374 73.118553,43.880688 
	C57.930767,51.610638 47.708576,63.477791 42.580250,80.558365 
	C42.119587,82.726738 41.658924,84.895103 41.042606,87.786865 
	C41.036579,88.524094 41.030552,89.261330 40.711960,90.617851 
	C40.696873,91.524818 40.681786,92.431786 40.339260,94.159706 
	C38.780884,126.232803 60.921825,152.899536 92.942741,157.515747 
	C130.689865,162.957489 165.696808,129.133865 160.770523,91.401398 
	C160.477493,89.941673 160.184479,88.481956 159.981476,86.214447 
	C158.017303,80.949989 156.053131,75.685539 154.166245,69.738083 
	C148.840668,58.812580 140.794861,50.536396 129.589630,44.392616 
	C116.469170,36.672325 102.312996,36.734940 87.273651,39.050373 
	C86.507767,39.404991 85.741882,39.759609 84.409439,39.929787 
	C82.942696,40.296177 81.475952,40.662567 79.412292,41.025417 
	C78.911621,41.313038 78.410942,41.600658 77.313263,41.914623 
	C76.823219,42.217594 76.333176,42.520561 75.263489,42.887791 
z"/>
<path fill="#C57C36" opacity="1.000000" stroke="none" 
	d="
M160.610931,92.134850 
	C165.696808,129.133865 130.689865,162.957489 92.942741,157.515747 
	C60.921825,152.899536 38.780884,126.232803 40.620544,94.060158 
	C41.816921,98.422279 42.578262,102.922279 43.679169,107.337616 
	C45.961037,116.489395 50.867130,124.276604 56.406025,131.798111 
	C66.368004,145.325943 79.778427,153.017975 96.322304,153.848785 
	C126.259720,155.352234 142.807846,140.964188 154.880951,115.023918 
	C158.139771,108.022003 158.772675,99.797928 160.610931,92.134850 
z"/>
<path fill="#D28B36" opacity="1.000000" stroke="none" 
	d="
M160.690735,91.768127 
	C158.772675,99.797928 158.139771,108.022003 154.880951,115.023918 
	C142.807846,140.964188 126.259720,155.352234 96.322304,153.848785 
	C79.778427,153.017975 66.368004,145.325943 56.406025,131.798111 
	C50.867130,124.276604 45.961037,116.489395 43.679169,107.337616 
	C42.578262,102.922279 41.816921,98.422279 40.784264,93.649681 
	C40.681786,92.431786 40.696873,91.524818 41.105247,90.133316 
	C41.398445,88.787018 41.298351,87.925247 41.198261,87.063477 
	C41.658924,84.895103 42.119587,82.726738 43.166542,80.342468 
	C44.171638,81.415413 44.590446,82.704262 44.711121,84.284988 
	C42.789368,107.636658 50.735458,126.451607 69.518547,140.233398 
	C82.266991,149.587372 96.560455,153.868927 112.151543,149.862228 
	C129.541443,145.393234 142.643097,134.605530 150.851181,118.753288 
	C154.237503,112.213287 157.394318,104.970558 155.994568,96.661392 
	C156.000916,95.885498 156.004730,95.442116 156.327667,94.957764 
	C157.089172,94.277069 157.531540,93.637344 157.978745,92.665131 
	C157.980927,91.889351 157.978271,91.446053 158.007904,90.676498 
	C158.657303,89.240906 159.274368,88.131577 159.891449,87.022240 
	C160.184479,88.481956 160.477493,89.941673 160.690735,91.768127 
z"/>
<path fill="#EDA048" opacity="1.000000" stroke="none" 
	d="
M45.009251,83.993111 
	C44.590446,82.704262 44.171638,81.415413 43.398823,80.051323 
	C47.708576,63.477791 57.930767,51.610638 73.528107,43.905289 
	C73.937653,43.929890 74.034172,44.046059 73.896545,44.313728 
	C73.174843,45.390724 72.590767,46.200043 71.732292,47.135490 
	C70.646111,47.849514 69.834328,48.437412 68.675995,49.049561 
	C65.050453,52.055664 61.304516,54.674072 58.622158,58.120300 
	C55.869846,61.656418 54.157375,66.001892 51.633976,70.056778 
	C50.517551,73.082550 49.756966,76.044708 48.991508,79.376297 
	C48.648846,81.169189 48.311058,82.592644 47.602665,84.011818 
	C46.491123,84.002739 45.750187,83.997925 45.009251,83.993111 
z"/>
<path fill="#EDA144" opacity="1.000000" stroke="none" 
	d="
M130.006226,44.931572 
	C140.794861,50.536396 148.840668,58.812580 154.109283,70.539001 
	C154.591049,74.051170 155.537277,76.760651 155.549164,79.474220 
	C155.560181,81.983932 154.570663,84.498039 154.008209,86.662750 
	C153.344315,85.206978 152.693970,84.098671 152.034592,82.591507 
	C152.019424,81.128159 152.013321,80.063660 152.260864,78.774872 
	C150.677917,74.031754 148.841293,69.512917 146.967468,64.645462 
	C141.946350,59.205360 136.962448,54.113880 131.662659,48.971527 
	C130.876816,48.293434 130.406860,47.666218 129.954239,46.688034 
	C129.983124,45.868572 129.994675,45.400074 130.006226,44.931572 
z"/>
<path fill="#F2B14F" opacity="1.000000" stroke="none" 
	d="
M129.797928,44.662094 
	C129.994675,45.400074 129.983124,45.868572 129.582214,46.672798 
	C126.124954,46.007172 123.057060,45.005829 119.822815,43.763268 
	C119.106064,43.362049 118.555641,43.202045 117.841896,42.785202 
	C117.110214,42.363060 116.541855,42.197750 115.607605,42.017540 
	C113.834099,41.661709 112.426483,41.320774 110.947037,40.621002 
	C109.559059,39.862206 108.242912,39.462246 106.471161,39.055702 
	C102.365906,39.051929 98.716263,39.054741 94.668594,39.040627 
	C92.141937,38.963364 90.013298,38.903027 87.884659,38.842690 
	C102.312996,36.734940 116.469170,36.672325 129.797928,44.662094 
z"/>
<path fill="#E19340" opacity="1.000000" stroke="none" 
	d="
M154.021774,87.010208 
	C154.570663,84.498039 155.560181,81.983932 155.549164,79.474220 
	C155.537277,76.760651 154.591049,74.051170 154.070648,70.880493 
	C156.053131,75.685539 158.017303,80.949989 159.936462,86.618347 
	C159.274368,88.131577 158.657303,89.240906 157.638153,90.675232 
	C156.495651,90.998077 155.755203,90.995934 154.768463,90.989243 
	C154.522156,90.984711 154.029465,90.981544 154.024750,90.584167 
	C154.011261,89.125229 154.002487,88.063652 153.999191,87.002411 
	C154.004654,87.002747 154.021774,87.010208 154.021774,87.010208 
z"/>
<path fill="#F6C14A" opacity="1.000000" stroke="none" 
	d="
M87.579155,38.946533 
	C90.013298,38.903027 92.141937,38.963364 94.568832,39.407654 
	C89.905907,41.208023 84.944725,42.624443 80.085060,43.782104 
	C80.444000,43.034622 80.701431,42.545902 81.287094,42.016838 
	C82.735558,41.355736 83.855774,40.734982 84.975998,40.114227 
	C85.741882,39.759609 86.507767,39.404991 87.579155,38.946533 
z"/>
<path fill="#F0AC4B" opacity="1.000000" stroke="none" 
	d="
M84.692719,40.022003 
	C83.855774,40.734982 82.735558,41.355736 81.051674,42.003841 
	C80.488014,42.031193 80.015457,42.022610 80.012276,41.774208 
	C80.009094,41.525803 80.009209,41.028957 80.009209,41.028957 
	C81.475952,40.662567 82.942696,40.296177 84.692719,40.022003 
z"/>
<path fill="#C57C36" opacity="1.000000" stroke="none" 
	d="
M41.120434,87.425171 
	C41.298351,87.925247 41.398445,88.787018 41.261532,89.823669 
	C41.030552,89.261330 41.036579,88.524094 41.120434,87.425171 
z"/>
<path fill="#EDA048" opacity="1.000000" stroke="none" 
	d="
M75.843132,42.823532 
	C76.333176,42.520561 76.823219,42.217594 77.642349,41.940453 
	C77.971428,41.966278 78.031982,42.043816 77.925171,42.266998 
	C77.617928,42.767502 77.355682,42.961098 76.782028,43.054394 
	C76.365723,43.041729 76.199005,43.045647 75.985947,42.992264 
	C75.939606,42.934963 75.843132,42.823528 75.843132,42.823532 
z"/>
<path fill="#EDA048" opacity="1.000000" stroke="none" 
	d="
M79.710754,41.027187 
	C80.009209,41.028957 80.009094,41.525803 79.681442,41.775566 
	C78.913185,42.031490 78.472580,42.037651 78.031982,42.043816 
	C78.031982,42.043816 77.971428,41.966278 77.940842,41.927280 
	C78.410942,41.600658 78.911621,41.313038 79.710754,41.027187 
z"/>
<path fill="#EDA048" opacity="1.000000" stroke="none" 
	d="
M73.888245,43.872780 
	C74.313721,43.506374 74.788605,43.197083 75.553314,42.855659 
	C75.843132,42.823528 75.939606,42.934963 75.811272,43.227722 
	C75.133347,43.695675 74.583755,43.870865 74.034172,44.046059 
	C74.034172,44.046059 73.937653,43.929890 73.888245,43.872780 
z"/>
<path fill="#DF9C3A" opacity="1.000000" stroke="none" 
	d="
M44.711121,84.284988 
	C45.750187,83.997925 46.491123,84.002739 47.607079,84.424355 
	C47.978500,86.218628 47.974903,87.596100 47.591316,89.065620 
	C47.136230,92.268440 46.738152,95.410980 47.040539,98.484604 
	C48.553383,113.861961 56.484859,125.719406 68.082588,135.312241 
	C70.254005,137.108292 73.336235,137.803131 76.373123,139.012573 
	C77.497902,139.013275 78.247704,139.007568 79.038132,139.352631 
	C84.067383,144.520996 90.512772,145.236969 96.923851,145.989197 
	C105.489479,146.994217 113.337006,144.428513 121.193558,141.249329 
	C121.543198,141.562912 121.742943,141.729263 121.840836,141.682495 
	C139.634857,133.179779 150.459274,119.324615 154.064041,99.861168 
	C154.256516,98.822021 155.329163,97.945900 155.992065,96.993881 
	C157.394318,104.970558 154.237503,112.213287 150.851181,118.753288 
	C142.643097,134.605530 129.541443,145.393234 112.151543,149.862228 
	C96.560455,153.868927 82.266991,149.587372 69.518547,140.233398 
	C50.735458,126.451607 42.789368,107.636658 44.711121,84.284988 
z"/>
<path fill="#ECAC40" opacity="1.000000" stroke="none" 
	d="
M155.994568,96.661385 
	C155.329163,97.945900 154.256516,98.822021 154.064041,99.861168 
	C150.459274,119.324615 139.634857,133.179779 121.840836,141.682495 
	C121.742943,141.729263 121.543198,141.562912 121.307365,140.968048 
	C121.382362,139.867798 121.541016,139.295563 121.758598,138.747742 
	C121.817535,138.772156 121.885338,138.875732 122.222565,138.879608 
	C123.031227,138.237717 123.502663,137.591965 123.985466,136.973587 
	C123.996834,137.000961 123.950829,136.963501 124.315483,136.971207 
	C125.423645,136.282059 126.167152,135.585205 126.935486,134.889069 
	C126.960304,134.889786 126.920403,134.915009 127.294998,134.940445 
	C131.446259,133.990494 133.974991,131.949707 133.955795,127.501747 
	C134.158875,127.106468 134.348770,126.950798 134.955963,126.869141 
	C141.611313,120.377518 146.948929,113.222496 149.940247,104.587616 
	C151.489105,100.116623 152.677963,95.520912 154.029465,90.981544 
	C154.029465,90.981544 154.522156,90.984711 154.782867,91.287796 
	C155.357147,92.063759 155.670731,92.536636 155.987335,93.341019 
	C155.996429,94.114594 156.002487,94.556656 156.008545,94.998726 
	C156.004730,95.442116 156.000916,95.885498 155.994568,96.661385 
z"/>
<path fill="#DF9C3A" opacity="1.000000" stroke="none" 
	d="
M155.984299,93.009506 
	C155.670731,92.536636 155.357147,92.063759 155.029175,91.292336 
	C155.755203,90.995934 156.495651,90.998077 157.605835,91.001495 
	C157.978271,91.446053 157.980927,91.889351 157.647598,92.666374 
	C156.869171,93.003242 156.426743,93.006371 155.984299,93.009506 
z"/>
<path fill="#E19340" opacity="1.000000" stroke="none" 
	d="
M155.987335,93.341019 
	C156.426743,93.006371 156.869171,93.003242 157.642761,92.998863 
	C157.531540,93.637344 157.089172,94.277069 156.327667,94.957764 
	C156.002487,94.556656 155.996429,94.114594 155.987335,93.341019 
z"/>
<path fill="#EBB547" opacity="1.000000" stroke="none" 
	d="
M47.971306,88.973564 
	C47.974903,87.596100 47.978500,86.218628 47.977684,84.428627 
	C48.311058,82.592644 48.648846,81.169189 49.238686,79.372925 
	C49.490738,79.000114 49.985043,78.995445 49.996376,79.372574 
	C50.607719,81.257057 51.087265,82.826942 51.830902,84.259758 
	C53.858578,88.166618 57.134007,91.820641 57.839241,95.931000 
	C59.041019,102.935394 63.265594,105.409966 69.267868,106.583984 
	C71.840134,107.087090 74.425850,107.521400 77.408249,108.041878 
	C79.718658,108.400368 81.656097,108.583298 83.524673,109.044937 
	C85.076515,109.428337 86.547333,110.139717 87.606125,110.805725 
	C79.562363,109.571373 71.970299,108.214890 64.367447,106.921837 
	C62.869125,106.667015 61.329220,106.656754 59.808491,106.533707 
	C59.845818,108.367935 59.883144,110.202148 59.901638,112.430786 
	C61.185448,116.260117 62.488094,119.695023 63.870358,123.446426 
	C64.063599,124.399002 64.177223,125.035095 63.945950,125.642067 
	C60.737259,121.418243 57.016388,117.561028 55.201931,112.953125 
	C52.153419,105.211281 50.317425,96.991989 47.971306,88.973564 
z"/>
<path fill="#F4BB44" opacity="1.000000" stroke="none" 
	d="
M51.989822,69.993149 
	C54.157375,66.001892 55.869846,61.656418 58.622158,58.120300 
	C61.304516,54.674072 65.050453,52.055664 68.635086,49.395309 
	C67.650398,51.868996 66.360046,54.021187 64.908951,56.436905 
	C64.519875,57.463947 64.291542,58.227470 63.996208,59.222839 
	C63.929218,59.454685 63.834747,59.928013 63.490520,59.942627 
	C61.729614,61.258148 60.312939,62.559052 58.620087,64.027069 
	C57.852890,65.115669 57.361866,66.037170 56.600887,67.110847 
	C55.864910,68.152397 55.398888,69.041771 54.687035,70.047546 
	C53.982094,70.446053 53.522984,70.728165 52.831787,70.903481 
	C52.396412,70.528839 52.193119,70.260994 51.989822,69.993149 
z"/>
<path fill="#F7CC4B" opacity="1.000000" stroke="none" 
	d="
M65.069687,56.173378 
	C66.360046,54.021187 67.650398,51.868996 68.981651,49.371056 
	C69.834328,48.437412 70.646111,47.849514 72.108757,47.129910 
	C74.183624,45.689125 75.607620,44.380051 77.031616,43.070972 
	C77.355682,42.961098 77.617928,42.767502 77.925171,42.266998 
	C78.472580,42.037651 78.913185,42.031490 79.684616,42.023968 
	C80.015457,42.022610 80.488014,42.031193 80.723434,42.044189 
	C80.701431,42.545902 80.444000,43.034622 79.854431,43.945213 
	C79.681290,45.253433 79.840279,46.139778 79.826538,47.275444 
	C79.256271,47.987625 78.858742,48.450478 78.120178,48.854069 
	C75.807381,49.807224 73.835617,50.819649 71.583160,51.976608 
	C70.158173,53.020939 69.013870,53.920734 67.589249,54.961700 
	C66.562515,55.459709 65.816101,55.816544 65.069687,56.173378 
z"/>
<path fill="#EBA93E" opacity="1.000000" stroke="none" 
	d="
M51.633980,70.056778 
	C52.193119,70.260994 52.396412,70.528839 52.807625,71.232300 
	C52.991322,72.106903 52.967098,72.545898 52.673462,73.197090 
	C51.929176,74.938232 51.454300,76.467178 50.760231,78.102585 
	C50.274078,78.413452 50.088745,78.675591 49.985043,78.995445 
	C49.985043,78.995445 49.490738,79.000114 49.243561,79.003487 
	C49.756966,76.044708 50.517551,73.082550 51.633980,70.056778 
z"/>
<path fill="#F4BB44" opacity="1.000000" stroke="none" 
	d="
M76.782028,43.054394 
	C75.607620,44.380051 74.183624,45.689125 72.383163,47.003784 
	C72.590767,46.200043 73.174843,45.390724 73.896545,44.313728 
	C74.583755,43.870865 75.133347,43.695675 75.857613,43.285027 
	C76.199005,43.045647 76.365723,43.041729 76.782028,43.054394 
z"/>
<path fill="#F1BC4B" opacity="1.000000" stroke="none" 
	d="
M152.043640,82.990356 
	C152.693970,84.098671 153.344315,85.206978 154.008209,86.662750 
	C154.021774,87.010208 154.004654,87.002747 153.630463,87.046989 
	C152.488800,88.204346 151.435730,89.216660 151.001404,90.447334 
	C148.629578,97.167976 146.537476,103.990341 144.028214,110.656906 
	C143.537354,111.961021 141.632156,112.732788 140.454025,113.327667 
	C140.656174,112.089226 140.796326,111.274940 140.908859,110.456856 
	C141.477859,106.319908 140.014664,104.771782 135.901825,106.476845 
	C135.323700,106.716515 134.615051,106.641327 133.998245,106.447090 
	C134.352707,105.787285 134.675735,105.392273 135.386902,104.952240 
	C141.209183,104.597374 143.280441,101.887909 144.445358,96.351654 
	C145.450165,91.576378 149.397308,87.420227 152.043640,82.990356 
z"/>
<path fill="#F6C751" opacity="1.000000" stroke="none" 
	d="
M152.034592,82.591507 
	C149.397308,87.420227 145.450165,91.576378 144.445358,96.351654 
	C143.280441,101.887909 141.209183,104.597374 135.427063,104.584145 
	C137.713898,99.336121 140.306610,94.387993 142.999573,89.495033 
	C144.582855,86.618286 146.325409,83.829216 148.031296,80.660950 
	C149.038635,79.544647 150.011017,78.768105 151.098602,78.210571 
	C151.416443,78.705551 151.680908,78.895409 152.007202,78.999153 
	C152.013321,80.063660 152.019424,81.128159 152.034592,82.591507 
z"/>
<path fill="#F4BA44" opacity="1.000000" stroke="none" 
	d="
M131.978546,49.022400 
	C136.962448,54.113880 141.946350,59.205360 146.964874,65.027779 
	C146.989960,66.522980 146.980408,67.287231 146.721100,67.931732 
	C146.003525,67.517433 145.535690,67.222900 145.004303,66.612610 
	C144.077820,65.828888 143.214905,65.360916 142.288513,64.558517 
	C141.562668,63.135860 140.900269,62.047642 140.156891,60.659027 
	C139.479218,59.873146 138.882523,59.387657 138.117218,58.621738 
	C136.670120,57.177422 135.391678,56.013542 134.081512,54.648411 
	C134.049805,54.447159 133.986572,54.043350 133.960709,53.697006 
	C133.282745,51.907909 132.630646,50.465153 131.978546,49.022400 
z"/>
<path fill="#F7CF4D" opacity="1.000000" stroke="none" 
	d="
M131.662659,48.971527 
	C132.630646,50.465153 133.282745,51.907909 133.649704,53.672821 
	C132.633316,53.667732 131.902084,53.340481 130.989685,52.719315 
	C128.374542,51.253826 125.940536,50.082249 123.276184,48.640957 
	C122.035645,47.874371 121.025452,47.377502 120.008408,46.521095 
	C119.997429,45.442532 119.993294,44.723507 119.989159,44.004486 
	C123.057060,45.005829 126.124954,46.007172 129.564880,47.023758 
	C130.406860,47.666218 130.876816,48.293434 131.662659,48.971527 
z"/>
<path fill="#F3AE40" opacity="1.000000" stroke="none" 
	d="
M146.970856,68.051491 
	C146.980408,67.287231 146.989960,66.522980 147.002075,65.376404 
	C148.841293,69.512917 150.677917,74.031754 152.260864,78.774872 
	C151.680908,78.895409 151.416443,78.705551 151.068268,77.870964 
	C150.265976,75.869133 149.609238,74.425919 148.921890,72.644875 
	C148.251144,70.888527 147.610992,69.470009 146.970856,68.051491 
z"/>
<path fill="#FADF57" opacity="1.000000" stroke="none" 
	d="
M119.822815,43.763268 
	C119.993294,44.723507 119.997429,45.442532 119.685516,46.553787 
	C118.588486,46.611435 117.807487,46.276852 116.673042,45.756226 
	C112.468987,44.770081 108.590477,43.203693 104.774086,43.342709 
	C98.453156,43.572956 92.172218,44.901348 85.501793,45.822929 
	C83.419197,46.261227 81.709236,46.643673 79.999283,47.026115 
	C79.840279,46.139778 79.681290,45.253433 79.752914,44.203979 
	C84.944725,42.624443 89.905907,41.208023 94.966858,39.424576 
	C98.716263,39.054741 102.365906,39.051929 106.560265,39.406296 
	C108.409615,40.168930 109.714241,40.574387 111.018875,40.979839 
	C112.426483,41.320774 113.834099,41.661709 115.644493,42.306763 
	C116.699928,42.754604 117.352577,42.898319 118.005226,43.042038 
	C118.555641,43.202045 119.106064,43.362049 119.822815,43.763268 
z"/>
<path fill="#F6C14A" opacity="1.000000" stroke="none" 
	d="
M110.947037,40.621002 
	C109.714241,40.574387 108.409615,40.168930 107.015869,39.412880 
	C108.242912,39.462246 109.559059,39.862206 110.947037,40.621002 
z"/>
<path fill="#F7CF4D" opacity="1.000000" stroke="none" 
	d="
M117.841896,42.785202 
	C117.352577,42.898319 116.699928,42.754604 116.010391,42.321663 
	C116.541855,42.197750 117.110214,42.363060 117.841896,42.785202 
z"/>
<path fill="#EBB446" opacity="1.000000" stroke="none" 
	d="
M140.379288,113.750076 
	C141.632156,112.732788 143.537354,111.961021 144.028214,110.656906 
	C146.537476,103.990341 148.629578,97.167976 151.001404,90.447334 
	C151.435730,89.216660 152.488800,88.204346 153.625000,87.046661 
	C154.002487,88.063652 154.011261,89.125229 154.024750,90.584167 
	C152.677963,95.520912 151.489105,100.116623 149.940247,104.587616 
	C146.948929,113.222496 141.611313,120.377518 135.053284,126.504944 
	C134.944824,125.136147 135.104797,124.142647 135.556030,122.973480 
	C136.679703,120.829712 137.512115,118.861626 138.566544,116.635689 
	C139.318802,115.501923 139.849045,114.625999 140.379288,113.750076 
z"/>
<path fill="#EBA93E" opacity="1.000000" stroke="none" 
	d="
M47.591316,89.065620 
	C50.317425,96.991989 52.153419,105.211281 55.201931,112.953125 
	C57.016388,117.561028 60.737259,121.418243 63.920158,125.706772 
	C64.239265,125.800598 64.128845,125.877708 64.119095,126.245804 
	C65.185974,127.378357 66.262604,128.142807 67.597595,129.078766 
	C69.259216,130.727890 70.662476,132.205551 72.065552,134.040894 
	C73.376297,135.934464 74.687225,137.470306 75.998146,139.006165 
	C73.336235,137.803131 70.254005,137.108292 68.082588,135.312241 
	C56.484859,125.719406 48.553383,113.861961 47.040539,98.484604 
	C46.738152,95.410980 47.136230,92.268440 47.591316,89.065620 
z"/>
<path fill="#EAB94A" opacity="1.000000" stroke="none" 
	d="
M121.699661,138.723328 
	C121.541016,139.295563 121.382362,139.867798 121.109901,140.721313 
	C113.337006,144.428513 105.489479,146.994217 96.923851,145.989197 
	C90.512772,145.236969 84.067383,144.520996 79.086678,139.293121 
	C79.094612,138.882874 79.191345,138.763718 79.541000,138.858307 
	C89.351311,143.667358 99.274048,145.270569 109.607384,142.819153 
	C113.730019,141.841125 117.674232,140.111053 121.699661,138.723328 
z"/>
<path fill="#EAB94A" opacity="1.000000" stroke="none" 
	d="
M76.373123,139.012573 
	C74.687225,137.470306 73.376297,135.934464 72.384949,134.179474 
	C74.866806,135.561462 77.029076,137.162582 79.191345,138.763718 
	C79.191345,138.763718 79.094612,138.882874 79.046066,138.942368 
	C78.247704,139.007568 77.497902,139.013275 76.373123,139.012573 
z"/>
<path fill="#8F5F21" opacity="1.000000" stroke="none" 
	d="
M79.541000,138.858307 
	C77.029076,137.162582 74.866806,135.561462 72.385132,133.821777 
	C70.662476,132.205551 69.259216,130.727890 67.453476,128.769058 
	C66.076942,127.484489 65.102890,126.681099 64.128845,125.877708 
	C64.128845,125.877708 64.239265,125.800598 64.265060,125.735893 
	C64.177223,125.035095 64.063599,124.399002 64.162811,123.318993 
	C65.252960,122.078369 66.130280,121.281654 67.297119,120.552605 
	C67.752655,120.728584 67.918663,120.836891 68.115326,120.955063 
	C68.145988,120.964928 68.191002,121.012604 68.158829,121.310806 
	C68.428474,122.088486 68.730286,122.567978 69.023209,123.426399 
	C69.588753,125.281158 69.826996,127.037567 70.788841,128.190079 
	C82.316185,142.002396 100.965538,145.840729 116.986549,137.908798 
	C123.472519,134.697601 129.443649,130.515915 132.375229,123.065353 
	C133.612839,123.081535 134.438797,123.115341 135.264771,123.149147 
	C135.104797,124.142647 134.944824,125.136147 134.687531,126.493851 
	C134.348770,126.950798 134.158875,127.106468 133.683289,127.710556 
	C131.204178,130.369034 129.062302,132.642029 126.920410,134.915009 
	C126.920403,134.915009 126.960304,134.889786 126.627480,134.937897 
	C125.513382,135.645187 124.732109,136.304337 123.950829,136.963501 
	C123.950829,136.963501 123.996834,137.000961 123.673325,137.033691 
	C122.861649,137.669510 122.373489,138.272629 121.885338,138.875732 
	C121.885338,138.875732 121.817535,138.772156 121.758606,138.747742 
	C117.674232,140.111053 113.730019,141.841125 109.607384,142.819153 
	C99.274048,145.270569 89.351311,143.667358 79.541000,138.858307 
z"/>
<path fill="#EBB446" opacity="1.000000" stroke="none" 
	d="
M127.294998,134.940445 
	C129.062302,132.642029 131.204178,130.369034 133.618561,127.887230 
	C133.974991,131.949707 131.446259,133.990494 127.294998,134.940445 
z"/>
<path fill="#EBB446" opacity="1.000000" stroke="none" 
	d="
M124.315483,136.971207 
	C124.732109,136.304337 125.513382,135.645187 126.602661,134.937180 
	C126.167152,135.585205 125.423645,136.282059 124.315483,136.971207 
z"/>
<path fill="#EAB94A" opacity="1.000000" stroke="none" 
	d="
M122.222565,138.879608 
	C122.373489,138.272629 122.861649,137.669510 123.661957,137.006317 
	C123.502663,137.591965 123.031227,138.237717 122.222565,138.879608 
z"/>
<path fill="#F8D857" opacity="1.000000" stroke="none" 
	d="
M88.054039,110.705811 
	C86.547333,110.139717 85.076515,109.428337 83.524673,109.044937 
	C81.656097,108.583298 79.718658,108.400368 77.370239,107.693878 
	C71.924416,100.998825 66.863220,94.749992 61.953678,88.384201 
	C60.718807,86.783051 59.969921,84.807076 59.363277,83.040512 
	C61.152672,83.384300 62.576488,83.690933 64.370850,84.038506 
	C67.824684,85.053276 70.907990,86.027092 74.027885,87.356155 
	C75.561523,91.954689 78.199760,94.801414 83.034737,95.359406 
	C91.113991,105.449501 108.026138,104.524254 116.780258,97.600731 
	C117.451958,97.069489 117.609192,95.887756 118.353035,94.972076 
	C119.441025,94.139473 120.181541,93.343193 121.069740,92.361107 
	C121.478683,91.801270 121.739952,91.427223 122.236374,90.947617 
	C122.877876,90.531845 123.284203,90.221634 124.041573,89.908173 
	C124.930542,89.269615 125.468475,88.634323 126.386368,87.994026 
	C131.177139,86.325607 135.587952,84.662193 140.332611,82.999222 
	C141.111572,83.000793 141.556702,83.001923 141.965363,83.353363 
	C140.607635,85.347771 139.302200,87.004868 137.962387,88.633690 
	C132.647705,95.094757 127.322296,101.546982 121.592651,108.015640 
	C118.102905,108.918221 115.021362,109.807640 111.484039,110.792740 
	C103.370178,110.827560 95.712112,110.766685 88.054039,110.705811 
z"/>
<path fill="#663913" opacity="1.000000" stroke="none" 
	d="
M87.606125,110.805725 
	C95.712112,110.766685 103.370178,110.827560 111.903229,110.894699 
	C116.198685,110.313515 119.619171,109.726059 123.425735,109.146797 
	C125.544182,108.730469 127.276550,108.305946 129.311005,107.891541 
	C129.929337,107.666885 130.245590,107.432114 130.906433,107.266022 
	C132.156281,107.127090 133.061554,106.919487 133.966812,106.711884 
	C134.615051,106.641327 135.323700,106.716515 135.901825,106.476845 
	C140.014664,104.771782 141.477859,106.319908 140.908859,110.456856 
	C140.796326,111.274940 140.656174,112.089226 140.454025,113.327667 
	C139.849045,114.625999 139.318802,115.501923 138.437653,116.266434 
	C137.764359,115.765099 137.441956,115.375175 137.090332,114.612778 
	C137.314148,112.941406 137.567184,111.642494 138.014496,109.346306 
	C135.219101,110.404785 133.443146,111.077248 131.377380,111.734222 
	C130.724823,111.845161 130.362076,111.971581 129.639679,112.035828 
	C128.160904,112.301552 127.041771,112.629448 125.495926,112.962662 
	C121.729881,113.323387 118.390549,113.678810 114.744331,113.952332 
	C113.638290,114.039207 112.839142,114.207993 111.648743,114.500671 
	C110.174644,114.769814 109.091782,114.915062 107.552048,114.950066 
	C102.060341,114.899323 97.025513,114.958817 91.623909,114.916290 
	C90.507919,114.691109 89.758690,114.567955 88.880211,114.309334 
	C88.486115,114.363403 88.221283,114.552940 87.646912,114.841827 
	C86.906403,114.909424 86.475449,114.877686 85.930450,114.485794 
	C82.243332,113.625366 78.670242,113.125092 74.736877,112.659790 
	C73.920540,112.827286 73.464478,112.959801 72.684769,113.059448 
	C71.928902,112.994820 71.496681,112.963058 70.983536,112.681519 
	C70.602188,112.285011 70.301750,112.138290 69.748672,111.723633 
	C66.999786,112.149406 64.251198,107.687233 61.423149,111.881966 
	C60.588619,111.970512 60.254543,112.003441 59.920471,112.036369 
	C59.883144,110.202148 59.845818,108.367935 59.808491,106.533707 
	C61.329220,106.656754 62.869125,106.667015 64.367447,106.921837 
	C71.970299,108.214890 79.562363,109.571373 87.606125,110.805725 
z"/>
<path fill="#F7CC53" opacity="1.000000" stroke="none" 
	d="
M58.997700,83.003357 
	C59.969921,84.807076 60.718807,86.783051 61.953678,88.384201 
	C66.863220,94.749992 71.924416,100.998825 76.967445,107.638977 
	C74.425850,107.521400 71.840134,107.087090 69.267868,106.583984 
	C63.265594,105.409966 59.041019,102.935394 57.839241,95.931000 
	C57.134007,91.820641 53.858578,88.166618 51.830902,84.259758 
	C51.087265,82.826942 50.607719,81.257057 49.996376,79.372574 
	C50.088745,78.675591 50.274078,78.413452 51.100887,78.151268 
	C54.106388,79.730118 56.552044,81.366737 58.997700,83.003357 
z"/>
<path fill="#7D5224" opacity="1.000000" stroke="none" 
	d="
M59.901638,112.430786 
	C60.254543,112.003441 60.588619,111.970512 61.596939,112.146851 
	C63.849987,115.065727 65.428787,117.775330 67.007591,120.484940 
	C66.130280,121.281654 65.252960,122.078369 64.083191,123.002502 
	C62.488094,119.695023 61.185448,116.260117 59.901638,112.430786 
z"/>
<path fill="#FEF9AB" opacity="1.000000" stroke="none" 
	d="
M134.113220,54.849663 
	C135.391678,56.013542 136.670120,57.177422 137.666138,58.653435 
	C129.259827,60.475464 121.184723,62.396481 112.996956,63.368023 
	C106.179932,64.176918 99.154617,64.596214 92.358238,63.883938 
	C82.859955,62.888496 73.488770,60.680290 64.063202,58.990990 
	C64.291542,58.227470 64.519875,57.463947 64.908951,56.436905 
	C65.816101,55.816544 66.562515,55.459709 67.820175,55.278549 
	C68.749054,55.719933 69.133987,56.123096 69.589081,56.231350 
	C82.839622,59.383335 96.088562,63.301022 109.880157,60.860737 
	C118.056396,59.414036 126.041939,56.889542 134.113220,54.849663 
z"/>
<path fill="#FEF89F" opacity="1.000000" stroke="none" 
	d="
M63.996208,59.222839 
	C73.488770,60.680290 82.859955,62.888496 92.358238,63.883938 
	C99.154617,64.596214 106.179932,64.176918 112.996956,63.368023 
	C121.184723,62.396481 129.259827,60.475464 137.834778,58.933868 
	C138.882523,59.387657 139.479218,59.873146 139.759506,60.674698 
	C137.296021,61.662289 135.148926,62.333817 132.605743,63.051090 
	C110.464172,69.116699 88.728737,68.111603 66.863434,62.715042 
	C65.763382,61.593655 64.799065,60.760834 63.834747,59.928013 
	C63.834747,59.928013 63.929218,59.454685 63.996208,59.222839 
z"/>
<path fill="#FCED82" opacity="1.000000" stroke="none" 
	d="
M56.870842,66.958672 
	C57.361866,66.037170 57.852890,65.115669 58.802635,64.362411 
	C62.173496,65.353455 65.085632,66.176270 68.296021,67.020447 
	C69.062744,67.362015 69.531219,67.682228 70.033173,68.345451 
	C70.711098,70.123558 71.355553,71.558662 71.604988,72.988541 
	C69.140083,72.654839 67.070198,72.326355 64.804108,71.726257 
	C62.028889,69.955994 59.449867,68.457329 56.870842,66.958672 
z"/>
<path fill="#FCED90" opacity="1.000000" stroke="none" 
	d="
M67.997772,66.999084 
	C65.085632,66.176270 62.173496,65.353455 59.078808,64.195297 
	C60.312939,62.559052 61.729614,61.258148 63.490520,59.942627 
	C64.799065,60.760834 65.763382,61.593655 66.895432,63.059937 
	C67.374695,64.795296 67.686234,65.897194 67.997772,66.999084 
z"/>
<path fill="#F9DC6C" opacity="1.000000" stroke="none" 
	d="
M52.942879,72.984894 
	C52.967098,72.545898 52.991322,72.106903 53.039703,71.339096 
	C53.522984,70.728165 53.982094,70.446053 54.893364,70.329834 
	C58.231033,71.996071 61.116543,73.496422 64.001633,75.249588 
	C64.000763,75.670921 64.000305,75.839432 63.858429,76.296509 
	C62.810806,77.057739 61.904602,77.530396 60.648697,77.968437 
	C57.846958,76.284180 55.394917,74.634537 52.942879,72.984894 
z"/>
<path fill="#FAE278" opacity="1.000000" stroke="none" 
	d="
M64.002052,74.996773 
	C61.116543,73.496422 58.231033,71.996071 55.139194,70.213432 
	C55.398888,69.041771 55.864910,68.152397 56.600891,67.110847 
	C59.449867,68.457329 62.028889,69.955994 64.802139,72.064423 
	C64.664940,73.448387 64.333496,74.222580 64.002052,74.996773 
z"/>
<path fill="#FFFCC9" opacity="1.000000" stroke="none" 
	d="
M123.506538,48.910675 
	C125.940536,50.082249 128.374542,51.253826 130.540070,52.713844 
	C127.029823,53.560623 123.627380,53.666946 120.572975,54.752502 
	C103.877960,60.685989 87.767776,58.316460 71.863861,51.832069 
	C73.835617,50.819649 75.807381,49.807224 78.548309,48.872665 
	C80.272018,49.174225 81.334007,49.200226 82.164734,49.651726 
	C92.179985,55.094929 102.553566,55.363327 113.226440,51.990360 
	C116.636932,50.912529 120.078949,49.934414 123.506538,48.910675 
z"/>
<path fill="#FEFAB9" opacity="1.000000" stroke="none" 
	d="
M71.583160,51.976608 
	C87.767776,58.316460 103.877960,60.685989 120.572975,54.752502 
	C123.627380,53.666946 127.029823,53.560623 130.721222,53.007759 
	C131.902084,53.340481 132.633316,53.667732 133.675568,54.019165 
	C133.986572,54.043350 134.049805,54.447159 134.081512,54.648411 
	C126.041939,56.889542 118.056396,59.414036 109.880157,60.860737 
	C96.088562,63.301022 82.839622,59.383335 69.589081,56.231350 
	C69.133987,56.123096 68.749054,55.719933 68.100494,55.137375 
	C69.013870,53.920734 70.158173,53.020939 71.583160,51.976608 
z"/>
<path fill="#FFFDD9" opacity="1.000000" stroke="none" 
	d="
M123.276184,48.640957 
	C120.078949,49.934414 116.636932,50.912529 113.226440,51.990360 
	C102.553566,55.363327 92.179985,55.094929 82.164734,49.651726 
	C81.334007,49.200226 80.272018,49.174225 78.889351,48.931931 
	C78.858742,48.450478 79.256271,47.987625 79.826538,47.275444 
	C81.709236,46.643673 83.419197,46.261227 85.670746,46.163063 
	C87.766922,47.331432 89.242950,48.413498 90.889122,49.066807 
	C100.141106,52.738571 108.686890,50.118778 117.026497,45.942268 
	C117.807487,46.276852 118.588486,46.611435 119.692368,46.913326 
	C121.025452,47.377502 122.035645,47.874371 123.276184,48.640957 
z"/>
<path fill="#F8D661" opacity="1.000000" stroke="none" 
	d="
M52.673466,73.197090 
	C55.394917,74.634537 57.846958,76.284180 60.683189,78.312599 
	C62.045025,80.460106 63.022663,82.228828 64.000305,83.997559 
	C62.576488,83.690933 61.152672,83.384300 59.363277,83.040512 
	C56.552044,81.366737 54.106388,79.730118 51.320076,78.044815 
	C51.454300,76.467178 51.929176,74.938232 52.673466,73.197090 
z"/>
<path fill="#F7CF54" opacity="1.000000" stroke="none" 
	d="
M133.998245,106.447098 
	C133.061554,106.919487 132.156281,107.127090 130.601196,107.262444 
	C129.637207,107.420601 129.323059,107.651009 129.008911,107.881424 
	C127.276550,108.305946 125.544182,108.730469 123.322594,108.900429 
	C122.555862,108.431412 122.278366,108.216957 122.000870,108.002487 
	C127.322296,101.546982 132.647705,95.094757 137.962387,88.633690 
	C139.302200,87.004868 140.607635,85.347771 142.329987,83.348351 
	C144.486176,82.328918 146.241257,81.664810 147.996338,81.000702 
	C146.325409,83.829216 144.582855,86.618286 142.999573,89.495033 
	C140.306610,94.387993 137.713898,99.336121 135.038910,104.629166 
	C134.675735,105.392273 134.352707,105.787285 133.998245,106.447098 
z"/>
<path fill="#F8D461" opacity="1.000000" stroke="none" 
	d="
M148.031296,80.660942 
	C146.241257,81.664810 144.486176,82.328918 142.366455,82.998039 
	C141.556702,83.001923 141.111572,83.000793 140.367523,82.647293 
	C141.045578,80.198654 142.022552,78.102379 143.308746,75.869591 
	C145.396133,74.816284 147.174301,73.899498 148.952484,72.982712 
	C149.609238,74.425919 150.265976,75.869133 150.953064,77.651962 
	C150.011017,78.768105 149.038635,79.544647 148.031296,80.660942 
z"/>
<path fill="#F9DE72" opacity="1.000000" stroke="none" 
	d="
M148.921890,72.644875 
	C147.174301,73.899498 145.396133,74.816284 142.919922,75.913284 
	C140.149139,76.395256 138.076401,76.697021 136.033997,76.661659 
	C137.375748,74.549995 138.687149,72.775452 140.294144,70.858582 
	C142.082443,69.453629 143.575150,68.191002 145.067856,66.928375 
	C145.535690,67.222900 146.003525,67.517433 146.721100,67.931732 
	C147.610992,69.470009 148.251144,70.888527 148.921890,72.644875 
z"/>
<path fill="#FBE883" opacity="1.000000" stroke="none" 
	d="
M145.004303,66.612610 
	C143.575150,68.191002 142.082443,69.453629 139.865891,70.857971 
	C137.428238,70.999496 135.714417,70.999298 134.000427,70.624123 
	C134.001175,69.499176 134.002106,68.749199 134.331482,67.855957 
	C137.223923,66.772766 139.787949,65.832855 142.351974,64.892944 
	C143.214905,65.360916 144.077820,65.828888 145.004303,66.612610 
z"/>
<path fill="#FCEE91" opacity="1.000000" stroke="none" 
	d="
M142.288513,64.558517 
	C139.787949,65.832855 137.223923,66.772766 134.111145,67.747757 
	C133.287506,67.582817 133.099380,67.320534 132.998566,66.596848 
	C133.000015,65.133575 133.000931,64.069458 133.001831,63.005341 
	C135.148926,62.333817 137.296021,61.662289 139.840485,60.975094 
	C140.900269,62.047642 141.562668,63.135860 142.288513,64.558517 
z"/>
<path fill="#FFFDE2" opacity="1.000000" stroke="none" 
	d="
M116.673042,45.756226 
	C108.686890,50.118778 100.141106,52.738571 90.889122,49.066807 
	C89.242950,48.413498 87.766922,47.331432 86.043381,46.107212 
	C92.172218,44.901348 98.453156,43.572956 104.774086,43.342709 
	C108.590477,43.203693 112.468987,44.770081 116.673042,45.756226 
z"/>
<path fill="#784B21" opacity="1.000000" stroke="none" 
	d="
M137.119553,114.985245 
	C137.441956,115.375175 137.764359,115.765099 138.215668,116.524277 
	C137.512115,118.861626 136.679703,120.829712 135.556030,122.973480 
	C134.438797,123.115341 133.612839,123.081535 131.988434,123.089211 
	C130.238174,123.411377 129.300766,123.761681 128.332352,123.962296 
	C113.992538,126.932892 99.562935,128.042038 84.987778,125.674133 
	C84.982658,124.938431 84.976746,124.517998 85.412628,124.060997 
	C97.959518,123.457634 110.064621,122.890854 122.576309,122.347649 
	C125.758217,121.795265 128.533524,121.219315 131.595306,120.687546 
	C133.627701,118.816246 135.373627,116.900742 137.119553,114.985245 
z"/>
<path fill="#EAB94A" opacity="1.000000" stroke="none" 
	d="
M64.119095,126.245804 
	C65.102890,126.681099 66.076942,127.484489 67.195114,128.597565 
	C66.262604,128.142807 65.185974,127.378357 64.119095,126.245804 
z"/>
<path fill="#9B6824" opacity="1.000000" stroke="none" 
	d="
M84.986992,125.989403 
	C99.562935,128.042038 113.992538,126.932892 128.332352,123.962296 
	C129.300766,123.761681 130.238174,123.411377 131.576797,123.106834 
	C129.443649,130.515915 123.472519,134.697601 116.986549,137.908798 
	C100.965538,145.840729 82.316185,142.002396 70.788841,128.190079 
	C69.826996,127.037567 69.588753,125.281158 69.404221,123.462509 
	C74.858414,124.076256 79.922699,125.032829 84.986992,125.989403 
z"/>
<path fill="#C2C2C1" opacity="1.000000" stroke="none" 
	d="
M67.297119,120.552605 
	C65.428787,117.775330 63.849987,115.065727 62.097397,112.091232 
	C64.251198,107.687233 66.999786,112.149406 69.788223,111.794296 
	C70.080421,112.132896 70.078239,112.294846 69.712753,112.225922 
	C68.809273,112.922531 67.806503,113.698074 67.822716,114.451706 
	C67.866745,116.498413 68.342468,118.535820 68.499428,120.658249 
	C68.351799,120.739586 68.084663,120.945198 68.084663,120.945198 
	C67.918663,120.836891 67.752655,120.728584 67.297119,120.552605 
z"/>
<path fill="#81562B" opacity="1.000000" stroke="none" 
	d="
M84.987778,125.674133 
	C79.922699,125.032829 74.858414,124.076256 69.413101,123.083572 
	C68.730286,122.567978 68.428474,122.088486 68.327805,121.302979 
	C68.528938,120.996948 68.867508,121.035667 69.244987,121.026001 
	C71.086517,121.285759 72.550575,121.555183 74.364639,121.942986 
	C75.670303,122.196129 76.625954,122.330894 77.582169,122.438377 
	C77.582733,122.411102 77.634468,122.428459 77.756882,122.711029 
	C78.978897,123.178581 80.078499,123.363571 81.533798,123.542061 
	C82.835548,123.581558 83.781578,123.627556 84.800003,123.772919 
	C84.872383,123.872276 84.970833,124.097572 84.970833,124.097572 
	C84.976746,124.517998 84.982658,124.938431 84.987778,125.674133 
z"/>
<path fill="#7D5224" opacity="1.000000" stroke="none" 
	d="
M68.867508,121.035667 
	C68.867508,121.035667 68.528938,120.996948 68.359970,121.004776 
	C68.191002,121.012604 68.145988,120.964928 68.115326,120.955063 
	C68.084663,120.945198 68.351799,120.739586 68.560440,120.769409 
	C68.769089,120.799225 68.867508,121.035667 68.867508,121.035667 
z"/>
<path fill="#F9DF58" opacity="1.000000" stroke="none" 
	d="
M118.005569,95.008392 
	C117.609192,95.887756 117.451958,97.069489 116.780258,97.600731 
	C108.026138,104.524254 91.113991,105.449501 83.345413,95.221786 
	C85.076302,94.154831 86.536469,93.576195 88.425903,92.999756 
	C94.138680,93.333809 99.441772,94.080078 104.697868,93.831703 
	C107.545876,93.697136 110.313774,91.867119 113.324867,90.893616 
	C113.800789,91.152924 113.981964,91.388092 114.148544,91.970558 
	C114.519730,92.476799 114.817818,92.703308 115.075775,92.896484 
	C115.035652,92.863159 115.116539,92.797272 115.196854,93.122910 
	C116.186630,93.968491 117.096100,94.488441 118.005569,95.008392 
z"/>
<path fill="#F5DC60" opacity="1.000000" stroke="none" 
	d="
M136.003662,76.998779 
	C138.076401,76.697021 140.149139,76.395256 142.610703,76.049797 
	C142.022552,78.102379 141.045578,80.198654 140.033691,82.646851 
	C135.587952,84.662193 131.177139,86.325607 126.254898,87.770798 
	C125.273071,87.371880 124.802666,87.191193 124.224846,86.576645 
	C124.093117,83.754433 124.068802,81.366096 124.466446,78.979996 
	C128.593491,78.321075 132.298569,77.659927 136.003662,76.998779 
z"/>
<path fill="#F4DE62" opacity="1.000000" stroke="none" 
	d="
M64.370850,84.038506 
	C63.022663,82.228828 62.045025,80.460106 61.032890,78.347214 
	C61.904602,77.530396 62.810806,77.057739 64.254868,76.301239 
	C68.892265,76.688560 72.991814,77.359726 76.911507,78.365593 
	C76.209099,81.448227 75.686539,84.196159 74.870926,86.960754 
	C74.382347,86.985237 74.186821,86.993073 73.991287,87.000916 
	C70.907990,86.027092 67.824684,85.053276 64.370850,84.038506 
z"/>
<path fill="#6F4317" opacity="1.000000" stroke="none" 
	d="
M124.044479,78.977753 
	C124.068802,81.366096 124.093117,83.754433 124.162613,86.943573 
	C124.035378,88.466713 123.862953,89.189072 123.690536,89.911423 
	C123.284203,90.221634 122.877876,90.531845 122.260147,90.919510 
	C122.048744,90.996956 122.025337,90.927986 122.015617,90.563049 
	C122.013840,89.467354 122.021774,88.736610 122.295166,87.769463 
	C122.037483,85.692101 121.514343,83.851135 120.995605,82.005081 
	C121.000000,82.000000 120.989853,82.008774 120.823326,81.683823 
	C117.854698,79.538017 115.242645,78.480309 113.892845,83.296524 
	C112.926933,84.360695 112.090424,85.139374 111.170425,85.524925 
	C111.189445,83.802040 111.291962,82.472275 111.607613,80.901817 
	C112.585175,79.181229 113.349602,77.701340 114.534927,76.208527 
	C116.632446,76.047188 118.309074,75.898758 120.219513,75.928467 
	C120.988251,76.325455 121.523163,76.544312 122.165344,77.048737 
	C122.863228,77.882118 123.453857,78.429939 124.044479,78.977753 
z"/>
<path fill="#F5E862" opacity="1.000000" stroke="none" 
	d="
M74.027885,87.356155 
	C74.186821,86.993073 74.382347,86.985237 75.128731,87.085968 
	C76.447899,87.488678 77.216202,87.782837 78.000183,88.435059 
	C79.350990,92.673553 82.114929,92.017586 85.244965,91.093674 
	C86.329445,91.131615 87.164421,91.067337 87.999680,91.335487 
	C87.998863,92.111137 87.997757,92.554344 87.996643,92.997559 
	C86.536469,93.576195 85.076302,94.154831 83.305450,94.871094 
	C78.199760,94.801414 75.561523,91.954689 74.027885,87.356155 
z"/>
<path fill="#8D6224" opacity="1.000000" stroke="none" 
	d="
M114.075439,91.690826 
	C113.981964,91.388092 113.800789,91.152924 113.250778,90.700806 
	C112.833336,90.160690 112.629395,89.982483 112.262497,89.574829 
	C112.065201,88.853600 111.963226,88.439232 112.243744,88.045685 
	C115.759270,89.020348 118.892303,89.974167 122.025337,90.927986 
	C122.025337,90.927986 122.048744,90.996956 122.024979,91.025070 
	C121.739952,91.427223 121.478683,91.801270 120.662231,92.471794 
	C118.443550,92.777939 116.780045,92.787605 115.116539,92.797272 
	C115.116539,92.797272 115.035652,92.863159 115.022873,92.611053 
	C114.698540,92.136238 114.386993,91.913536 114.075439,91.690826 
z"/>
<path fill="#EBB547" opacity="1.000000" stroke="none" 
	d="
M121.592659,108.015648 
	C122.278366,108.216957 122.555862,108.431412 122.936508,108.892235 
	C119.619171,109.726059 116.198685,110.313515 112.359009,110.799011 
	C115.021362,109.807640 118.102905,108.918221 121.592659,108.015648 
z"/>
<path fill="#F5E862" opacity="1.000000" stroke="none" 
	d="
M115.196854,93.122910 
	C116.780045,92.787605 118.443550,92.777939 120.514557,92.657593 
	C120.181541,93.343193 119.441025,94.139473 118.353035,94.972076 
	C117.096100,94.488441 116.186630,93.968491 115.196854,93.122910 
z"/>
<path fill="#F5E862" opacity="1.000000" stroke="none" 
	d="
M124.041573,89.908173 
	C123.862953,89.189072 124.035378,88.466713 124.270020,87.377434 
	C124.802666,87.191193 125.273071,87.371880 125.874954,87.775803 
	C125.468475,88.634323 124.930542,89.269615 124.041573,89.908173 
z"/>
<path fill="#EFEFF0" opacity="1.000000" stroke="none" 
	d="
M85.412628,124.060997 
	C84.970833,124.097572 84.872383,123.872276 84.868248,123.360298 
	C83.577675,120.246162 82.291237,117.644012 81.424164,114.997185 
	C83.243851,114.916992 84.644165,114.881477 86.044487,114.845955 
	C86.475449,114.877686 86.906403,114.909424 87.932053,114.844788 
	C88.687653,114.647202 88.848564,114.545998 89.009468,114.444801 
	C89.758690,114.567955 90.507919,114.691109 91.919724,115.209618 
	C97.724518,115.423416 102.866714,115.241859 108.008919,115.060303 
	C109.091782,114.915062 110.174644,114.769814 111.953918,114.647980 
	C113.325172,114.710190 114.000023,114.748970 115.121162,114.871643 
	C117.916542,115.071777 120.265625,115.188034 121.620163,115.255074 
	C121.847755,118.182594 122.008743,120.253334 122.169724,122.324074 
	C110.064621,122.890854 97.959518,123.457634 85.412628,124.060997 
z"/>
<path fill="#D9DBDC" opacity="1.000000" stroke="none" 
	d="
M122.576309,122.347649 
	C122.008743,120.253334 121.847755,118.182594 121.620163,115.255074 
	C120.265625,115.188034 117.916542,115.071777 115.226334,114.688850 
	C114.885208,114.422180 115.051224,114.034241 115.051224,114.034241 
	C118.390549,113.678810 121.729881,113.323387 125.863907,112.998840 
	C127.772186,112.719147 128.885757,112.408577 129.999329,112.098000 
	C130.362076,111.971581 130.724823,111.845161 131.666458,111.961037 
	C131.933182,115.016670 131.621002,117.830017 131.308838,120.643356 
	C128.533524,121.219315 125.758217,121.795265 122.576309,122.347649 
z"/>
<path fill="#E5E6E7" opacity="1.000000" stroke="none" 
	d="
M81.004807,115.041855 
	C82.291237,117.644012 83.577675,120.246162 84.795868,123.260941 
	C83.781578,123.627556 82.835548,123.581558 81.334053,123.173714 
	C79.730553,122.684067 78.682510,122.556267 77.634468,122.428459 
	C77.634468,122.428459 77.582733,122.411102 77.710236,122.017601 
	C76.227966,118.780174 74.618187,115.936241 73.008408,113.092316 
	C73.464478,112.959801 73.920540,112.827286 74.825012,113.039734 
	C76.526360,113.634384 77.779297,113.884064 79.188438,114.343628 
	C79.667946,114.671806 79.991264,114.790100 80.496895,114.891266 
	C80.679214,114.874146 81.004807,115.041855 81.004807,115.041855 
z"/>
<path fill="#C3C3C2" opacity="1.000000" stroke="none" 
	d="
M131.595306,120.687546 
	C131.621002,117.830017 131.933182,115.016670 131.956268,111.976517 
	C133.443146,111.077248 135.219101,110.404785 138.014496,109.346306 
	C137.567184,111.642494 137.314148,112.941406 137.090332,114.612778 
	C135.373627,116.900742 133.627701,118.816246 131.595306,120.687546 
z"/>
<path fill="#DDDEDE" opacity="1.000000" stroke="none" 
	d="
M72.684769,113.059448 
	C74.618187,115.936241 76.227966,118.780174 77.709679,122.044876 
	C76.625954,122.330894 75.670303,122.196129 74.360153,121.569267 
	C72.986176,118.398193 71.966682,115.719223 70.977692,113.014290 
	C71.008186,112.988319 71.064453,112.931305 71.064453,112.931305 
	C71.496681,112.963058 71.928902,112.994820 72.684769,113.059448 
z"/>
<path fill="#816547" opacity="1.000000" stroke="none" 
	d="
M81.424164,114.997185 
	C81.004807,115.041855 80.679214,114.874146 80.361130,114.639435 
	C79.706108,114.314392 79.369179,114.224075 79.032242,114.133759 
	C77.779297,113.884064 76.526360,113.634384 75.185287,113.004753 
	C78.670242,113.125092 82.243332,113.625366 85.930450,114.485794 
	C84.644165,114.881477 83.243851,114.916992 81.424164,114.997185 
z"/>
<path fill="#D1D2D4" opacity="1.000000" stroke="none" 
	d="
M107.552048,114.950058 
	C102.866714,115.241859 97.724518,115.423416 92.286499,115.311646 
	C97.025513,114.958817 102.060341,114.899323 107.552048,114.950058 
z"/>
<path fill="#C3C3C2" opacity="1.000000" stroke="none" 
	d="
M129.639679,112.035828 
	C128.885757,112.408577 127.772186,112.719147 126.290627,112.993530 
	C127.041771,112.629448 128.160904,112.301552 129.639679,112.035828 
z"/>
<path fill="#816547" opacity="1.000000" stroke="none" 
	d="
M114.744331,113.952332 
	C115.051224,114.034241 114.885208,114.422180 114.780037,114.604965 
	C114.000023,114.748970 113.325172,114.710190 112.345154,114.524094 
	C112.839142,114.207993 113.638290,114.039207 114.744331,113.952332 
z"/>
<path fill="#DDDEDE" opacity="1.000000" stroke="none" 
	d="
M70.040871,112.062225 
	C70.301750,112.138290 70.602188,112.285011 70.983536,112.681519 
	C71.064453,112.931305 71.008186,112.988319 70.799995,112.928757 
	C70.360374,112.731575 70.189186,112.540123 70.078239,112.294846 
	C70.078239,112.294846 70.080421,112.132896 70.040871,112.062225 
z"/>
<path fill="#F1BC4B" opacity="1.000000" stroke="none" 
	d="
M129.311005,107.891541 
	C129.323059,107.651009 129.637207,107.420601 130.256592,107.193771 
	C130.245590,107.432114 129.929337,107.666885 129.311005,107.891541 
z"/>
<path fill="#816547" opacity="1.000000" stroke="none" 
	d="
M88.880211,114.309334 
	C88.848564,114.545998 88.687653,114.647202 88.241592,114.745453 
	C88.221283,114.552940 88.486115,114.363403 88.880211,114.309334 
z"/>
<path fill="#FEF892" opacity="1.000000" stroke="none" 
	d="
M132.605743,63.051086 
	C133.000931,64.069458 133.000015,65.133575 132.595123,66.606491 
	C120.939476,68.343925 109.706879,70.485840 98.430229,70.750381 
	C88.980072,70.972076 79.478500,69.002037 69.999695,68.002441 
	C69.531219,67.682228 69.062744,67.362015 68.296021,67.020447 
	C67.686234,65.897194 67.374695,64.795296 67.031158,63.348507 
	C88.728737,68.111603 110.464172,69.116699 132.605743,63.051086 
z"/>
<path fill="#FEF683" opacity="1.000000" stroke="none" 
	d="
M70.033173,68.345459 
	C79.478500,69.002037 88.980072,70.972076 98.430229,70.750381 
	C109.706879,70.485840 120.939476,68.343925 132.594604,67.005646 
	C133.099380,67.320534 133.287506,67.582817 133.782715,67.891037 
	C134.002106,68.749199 134.001175,69.499176 133.646759,70.778526 
	C129.519653,73.067520 123.990181,71.210930 122.058075,76.763168 
	C121.523163,76.544312 120.988251,76.325455 119.933815,75.681534 
	C117.612694,75.173508 115.811104,75.090546 113.540260,75.005325 
	C105.437607,75.002068 97.802567,74.920433 90.172264,75.073853 
	C88.786705,75.101715 87.420471,76.091476 85.758606,76.593056 
	C84.971939,76.254265 84.471977,75.959602 83.674805,75.436188 
	C81.586502,75.147560 79.795403,75.087677 77.792671,74.737976 
	C75.720695,73.963356 73.860344,73.478554 72.000000,72.993759 
	C71.355553,71.558662 70.711098,70.123558 70.033173,68.345459 
z"/>
<path fill="#FCEE74" opacity="1.000000" stroke="none" 
	d="
M71.604988,72.988541 
	C73.860344,73.478554 75.720695,73.963356 77.792465,75.089127 
	C78.020515,76.198769 78.037148,76.667435 77.969955,77.355042 
	C77.685860,77.838753 77.420937,77.991051 77.091354,78.030884 
	C72.991814,77.359726 68.892265,76.688560 64.396286,76.012665 
	C64.000305,75.839432 64.000763,75.670921 64.001633,75.249588 
	C64.333496,74.222580 64.664940,73.448387 64.998337,72.336029 
	C67.070198,72.326355 69.140083,72.654839 71.604988,72.988541 
z"/>
<path fill="#FBEC74" opacity="1.000000" stroke="none" 
	d="
M122.165344,77.048737 
	C123.990181,71.210930 129.519653,73.067520 133.646942,71.153503 
	C135.714417,70.999298 137.428238,70.999496 139.570297,71.000305 
	C138.687149,72.775452 137.375748,74.549995 136.033997,76.661652 
	C132.298569,77.659927 128.593491,78.321075 124.466438,78.979996 
	C123.453857,78.429939 122.863228,77.882118 122.165344,77.048737 
z"/>
<path fill="#D5D7D8" opacity="1.000000" stroke="none" 
	d="
M69.712753,112.225922 
	C70.189186,112.540123 70.360374,112.731575 70.769501,112.954727 
	C71.966682,115.719223 72.986176,118.398193 74.010147,121.450882 
	C72.550575,121.555183 71.086517,121.285759 69.244987,121.026001 
	C68.867508,121.035667 68.769089,120.799225 68.708069,120.688072 
	C68.342468,118.535820 67.866745,116.498413 67.822716,114.451706 
	C67.806503,113.698074 68.809273,112.922531 69.712753,112.225922 
z"/>
<path fill="#DDDEDE" opacity="1.000000" stroke="none" 
	d="
M77.756882,122.711029 
	C78.682510,122.556267 79.730553,122.684067 80.978348,123.180214 
	C80.078499,123.363571 78.978897,123.178581 77.756882,122.711029 
z"/>
<path fill="#FBE65C" opacity="1.000000" stroke="none" 
	d="
M112.357819,89.881676 
	C112.629395,89.982483 112.833336,90.160690 113.043716,90.609100 
	C110.313774,91.867119 107.545876,93.697136 104.697868,93.831703 
	C99.441772,94.080078 94.138680,93.333809 88.425903,92.999756 
	C87.997757,92.554344 87.998863,92.111137 87.999985,91.333961 
	C88.000000,91.000000 88.002670,90.998291 88.244598,90.837135 
	C88.650269,90.134956 88.814018,89.593933 88.992340,89.034256 
	C89.006912,89.015587 89.041374,88.982948 89.454285,88.933060 
	C97.433899,87.643074 104.981758,86.827637 112.357819,89.881676 
z"/>
<path fill="#F5E862" opacity="1.000000" stroke="none" 
	d="
M114.148544,91.970558 
	C114.386993,91.913536 114.698540,92.136238 115.063004,92.644379 
	C114.817818,92.703308 114.519730,92.476799 114.148544,91.970558 
z"/>
<path fill="#6C4015" opacity="1.000000" stroke="none" 
	d="
M76.911507,78.365585 
	C77.420937,77.991051 77.685860,77.838753 78.339142,77.250839 
	C80.518776,76.506775 82.245399,76.085854 83.972015,75.664932 
	C84.471977,75.959602 84.971939,76.254265 85.905373,76.916840 
	C87.006310,78.506607 87.673790,79.728470 88.252716,81.264946 
	C88.534355,82.013809 88.904541,82.448044 89.272293,83.276337 
	C89.333290,84.190636 89.396736,84.710884 89.059319,85.204102 
	C88.127487,85.210320 87.596519,85.243561 86.936340,84.928146 
	C83.493446,80.260231 79.769417,79.843109 78.334106,83.715088 
	C77.846169,85.031372 78.080315,86.615341 77.984512,88.076988 
	C77.216202,87.782837 76.447899,87.488678 75.421783,87.069305 
	C75.686539,84.196159 76.209099,81.448227 76.911507,78.365585 
z"/>
<path fill="#F5E862" opacity="1.000000" stroke="none" 
	d="
M89.460182,85.231133 
	C89.396736,84.710884 89.333290,84.190636 89.472549,83.102013 
	C89.786041,82.017212 89.896835,81.500786 90.475693,80.990646 
	C97.760666,81.045456 104.577568,81.093987 111.394478,81.142517 
	C111.291962,82.472275 111.189445,83.802040 111.108124,85.812485 
	C111.373291,87.003731 111.617271,87.514297 111.861259,88.024857 
	C111.963226,88.439232 112.065201,88.853600 112.262497,89.574829 
	C104.981758,86.827637 97.433899,87.643074 89.466614,88.635895 
	C89.197411,87.336121 89.328796,86.283630 89.460182,85.231133 
z"/>
<path fill="#FDF574" opacity="1.000000" stroke="none" 
	d="
M111.607613,80.901817 
	C104.577568,81.093987 97.760666,81.045456 90.197968,80.979370 
	C89.081871,80.957985 88.711571,80.954155 88.341270,80.950317 
	C87.673790,79.728470 87.006310,78.506607 86.192078,76.960968 
	C87.420471,76.091476 88.786705,75.101715 90.172264,75.073853 
	C97.802567,74.920433 105.437607,75.002068 113.554855,75.309738 
	C114.063797,75.818092 114.088913,76.019768 114.114021,76.221451 
	C113.349602,77.701340 112.585175,79.181229 111.607613,80.901817 
z"/>
<path fill="#9A6724" opacity="1.000000" stroke="none" 
	d="
M112.243744,88.045685 
	C111.617271,87.514297 111.373291,87.003731 111.191605,86.205612 
	C112.090424,85.139374 112.926933,84.360695 114.279068,83.247910 
	C116.859741,82.612122 118.924797,82.310448 120.989853,82.008774 
	C120.989853,82.008774 121.000000,82.000000 120.997856,82.409035 
	C121.340378,84.547333 121.685043,86.276596 122.029709,88.005859 
	C122.021774,88.736610 122.013840,89.467354 122.015617,90.563049 
	C118.892303,89.974167 115.759270,89.020348 112.243744,88.045685 
z"/>
<path fill="#8C5B20" opacity="1.000000" stroke="none" 
	d="
M120.823326,81.683823 
	C118.924797,82.310448 116.859741,82.612122 114.408463,82.962418 
	C115.242645,78.480309 117.854698,79.538017 120.823326,81.683823 
z"/>
<path fill="#8C5B20" opacity="1.000000" stroke="none" 
	d="
M122.295166,87.769463 
	C121.685043,86.276596 121.340378,84.547333 120.993462,82.414124 
	C121.514343,83.851135 122.037483,85.692101 122.295166,87.769463 
z"/>
<path fill="#F5DC60" opacity="1.000000" stroke="none" 
	d="
M114.534927,76.208527 
	C114.088913,76.019768 114.063797,75.818092 114.024094,75.311996 
	C115.811104,75.090546 117.612694,75.173508 119.699997,75.503403 
	C118.309074,75.898758 116.632446,76.047188 114.534927,76.208527 
z"/>
<path fill="#996623" opacity="1.000000" stroke="none" 
	d="
M78.000183,88.435059 
	C78.080315,86.615341 77.846169,85.031372 78.334106,83.715088 
	C79.769417,79.843109 83.493446,80.260231 86.971855,85.274323 
	C86.422874,87.643265 85.709160,89.317360 84.995453,90.991455 
	C82.114929,92.017586 79.350990,92.673553 78.000183,88.435059 
z"/>
<path fill="#F4DE62" opacity="1.000000" stroke="none" 
	d="
M85.244965,91.093674 
	C85.709160,89.317360 86.422874,87.643265 87.101074,85.622986 
	C87.596519,85.243561 88.127487,85.210320 89.059319,85.204102 
	C89.328796,86.283630 89.197411,87.336121 89.053696,88.685783 
	C89.041374,88.982948 89.006912,89.015587 88.750412,89.191757 
	C88.330162,89.911377 88.166420,90.454834 88.002670,90.998291 
	C88.002670,90.998291 88.000000,91.000000 87.999695,91.001526 
	C87.164421,91.067337 86.329445,91.131615 85.244965,91.093674 
z"/>
<path fill="#EFEFF0" opacity="1.000000" stroke="none" 
	d="
M79.188438,114.343636 
	C79.369179,114.224075 79.706108,114.314392 80.178810,114.656555 
	C79.991264,114.790100 79.667946,114.671806 79.188438,114.343636 
z"/>
<path fill="#F4DE62" opacity="1.000000" stroke="none" 
	d="
M83.674805,75.436188 
	C82.245399,76.085854 80.518776,76.506775 78.422974,77.031898 
	C78.037148,76.667435 78.020515,76.198769 78.004089,75.378952 
	C79.795403,75.087677 81.586502,75.147560 83.674805,75.436188 
z"/>
<path fill="#F5E862" opacity="1.000000" stroke="none" 
	d="
M88.244598,90.837135 
	C88.166420,90.454834 88.330162,89.911377 88.735832,89.210419 
	C88.814018,89.593933 88.650269,90.134956 88.244598,90.837135 
z"/>
<path fill="#F4DE62" opacity="1.000000" stroke="none" 
	d="
M88.252716,81.264938 
	C88.711571,80.954155 89.081871,80.957985 89.729904,80.973083 
	C89.896835,81.500786 89.786041,82.017212 89.474991,82.707962 
	C88.904541,82.448044 88.534355,82.013809 88.252716,81.264938 
z"/>
</svg>