<?xml version="1.0" encoding="UTF-8"?><svg xmlns="http://www.w3.org/2000/svg" xmlns:xlink="http://www.w3.org/1999/xlink" viewBox="0 0 522 491.74"><defs><style>.cls-1{stroke-width:12px;}.cls-1,.cls-2{stroke:#603813;stroke-linecap:round;stroke-linejoin:round;}.cls-1,.cls-2,.cls-3{fill:none;}.cls-4,.cls-5{fill:#fff;}.cls-5{opacity:.4;}.cls-6{opacity:.6;}.cls-7{isolation:isolate;}.cls-8{fill:url(#radial-gradient-3);}.cls-8,.cls-9,.cls-10,.cls-11{opacity:.5;}.cls-12{fill:#603813;}.cls-13{fill:url(#radial-gradient);}.cls-14{fill:url(#radial-gradient-2);}.cls-9{fill:url(#radial-gradient-4);}.cls-10{fill:url(#radial-gradient-5);}.cls-11{fill:url(#radial-gradient-6);}.cls-15{fill:#2a1810;}.cls-16{fill:#8ec541;}.cls-17{fill:#fd0d25;}.cls-2{stroke-width:13px;}</style><radialGradient id="radial-gradient" cx="149.3" cy="176.66" r="43.14" gradientUnits="userSpaceOnUse"><stop offset="0" stop-color="#603813"/><stop offset="1" stop-color="#b26f41"/></radialGradient><radialGradient id="radial-gradient-2" cx="372.57" cy="176.66" r="43.14" xlink:href="#radial-gradient"/><radialGradient id="radial-gradient-3" cx="103.63" cy="193.48" r="26.19" gradientUnits="userSpaceOnUse"><stop offset="0" stop-color="#2a1810"/><stop offset="1" stop-color="#603813"/></radialGradient><radialGradient id="radial-gradient-4" cx="428.35" cy="193.48" r="26.19" xlink:href="#radial-gradient-3"/><radialGradient id="radial-gradient-5" cx="103.63" cy="193.48" r="26.19" gradientUnits="userSpaceOnUse"><stop offset="0" stop-color="#603813"/><stop offset="1" stop-color="#2a1810"/></radialGradient><radialGradient id="radial-gradient-6" cx="428.35" cy="193.48" r="26.19" xlink:href="#radial-gradient-5"/></defs><g class="cls-7"><g id="Layer_1" data-name="Layer 1"><ellipse class="cls-13" cx="149.3" cy="176.66" rx="43.14" ry="74.84"/><ellipse class="cls-14" cx="372.57" cy="176.66" rx="43.14" ry="74.84"/><circle class="cls-4" cx="149.3" cy="163.78" r="27.71"/><circle class="cls-4" cx="372.57" cy="163.78" r="27.71"/><ellipse class="cls-8" cx="103.63" cy="193.48" rx="26.19" ry="6.93"/><ellipse class="cls-9" cx="428.35" cy="193.48" rx="26.19" ry="6.93"/><ellipse class="cls-10" cx="103.63" cy="193.48" rx="26.19" ry="6.93"/><ellipse class="cls-11" cx="428.35" cy="193.48" rx="26.19" ry="6.93"/><circle class="cls-15" cx="137.12" cy="157.24" r="12.3"/><circle class="cls-15" cx="360.39" cy="157.24" r="12.3"/><path class="cls-4" d="m143.82,150.57c4.1,2.36,6.7,6.75,6.7,11.67s-2.6,9.31-6.7,11.67"/><path class="cls-4" d="m367.09,150.57c4.1,2.36,6.7,6.75,6.7,11.67s-2.6,9.31-6.7,11.67"/><path class="cls-16" d="m260.94,305.42c-26.27,0-47.56,21.29-47.56,47.56s21.29,47.56,47.56,47.56,47.56-21.29,47.56-47.56-21.29-47.56-47.56-47.56Z"/><circle class="cls-17" cx="260.94" cy="352.98" r="22.79"/><circle class="cls-4" cx="260.94" cy="352.98" r="11.39"/><circle class="cls-5" cx="260.94" cy="310.26" r="28.45"/><g class="cls-6"><path class="cls-1" d="m200.95,265.71c24.83,14.97,59.79,14.97,84.62,0"/></g><path class="cls-2" d="m200.95,265.71c24.83,14.97,59.79,14.97,84.62,0"/><circle class="cls-3" cx="260.94" cy="247.68" r="233.43"/></g></g></svg>