<?xml version="1.0" encoding="UTF-8"?><svg xmlns="http://www.w3.org/2000/svg" xmlns:xlink="http://www.w3.org/1999/xlink" viewBox="0 0 465 495.32"><defs><style>.cls-1{stroke:#603813;stroke-linecap:round;stroke-linejoin:round;stroke-width:12px;}.cls-1,.cls-2{fill:none;}.cls-3{fill:#fff;}.cls-4{fill:#fd0d25;}.cls-5{opacity:.6;}.cls-6{isolation:isolate;}.cls-7{fill:url(#radial-gradient-3);}.cls-7,.cls-8,.cls-9,.cls-10{opacity:.5;}.cls-11{fill:#603813;}.cls-12{fill:url(#radial-gradient);}.cls-13{fill:url(#radial-gradient-2);}.cls-8{fill:url(#radial-gradient-4);}.cls-9{fill:url(#radial-gradient-5);}.cls-10{fill:url(#radial-gradient-6);}.cls-14{fill:#2a1810;}.cls-15{fill:#8ec541;}</style><radialGradient id="radial-gradient" cx="149.3" cy="176.66" r="43.14" gradientUnits="userSpaceOnUse"><stop offset="0" stop-color="#603813"/><stop offset="1" stop-color="#b26f41"/></radialGradient><radialGradient id="radial-gradient-2" cx="304.83" cy="176.66" r="43.14" xlink:href="#radial-gradient"/><radialGradient id="radial-gradient-3" cx="103.63" cy="193.48" r="26.19" gradientUnits="userSpaceOnUse"><stop offset="0" stop-color="#2a1810"/><stop offset="1" stop-color="#603813"/></radialGradient><radialGradient id="radial-gradient-4" cx="360.6" cy="193.48" r="26.19" xlink:href="#radial-gradient-3"/><radialGradient id="radial-gradient-5" cx="103.63" cy="193.48" r="26.19" gradientUnits="userSpaceOnUse"><stop offset="0" stop-color="#603813"/><stop offset="1" stop-color="#2a1810"/></radialGradient><radialGradient id="radial-gradient-6" cx="360.6" cy="193.48" r="26.19" xlink:href="#radial-gradient-5"/></defs><g class="cls-6"><g id="Layer_1" data-name="Layer 1"><ellipse class="cls-12" cx="149.3" cy="176.66" rx="43.14" ry="74.84"/><ellipse class="cls-13" cx="304.83" cy="176.66" rx="43.14" ry="74.84"/><circle class="cls-3" cx="149.3" cy="163.78" r="27.71"/><circle class="cls-3" cx="304.83" cy="163.78" r="27.71"/><ellipse class="cls-7" cx="103.63" cy="193.48" rx="26.19" ry="6.93"/><ellipse class="cls-8" cx="360.6" cy="193.48" rx="26.19" ry="6.93"/><ellipse class="cls-9" cx="103.63" cy="193.48" rx="26.19" ry="6.93"/><ellipse class="cls-10" cx="360.6" cy="193.48" rx="26.19" ry="6.93"/><circle class="cls-14" cx="137.12" cy="157.24" r="12.3"/><circle class="cls-14" cx="292.65" cy="157.24" r="12.3"/><path class="cls-3" d="m143.82,150.57c4.1,2.36,6.7,6.75,6.7,11.67s-2.6,9.31-6.7,11.67"/><path class="cls-3" d="m299.35,150.57c4.1,2.36,6.7,6.75,6.7,11.67s-2.6,9.31-6.7,11.67"/><path class="cls-15" d="m227.07,281.08c-26.27,0-47.56,21.29-47.56,47.56s21.29,47.56,47.56,47.56,47.56-21.29,47.56-47.56-21.29-47.56-47.56-47.56Z"/><circle class="cls-4" cx="227.07" cy="328.64" r="22.79"/><circle class="cls-3" cx="227.07" cy="328.64" r="11.39"/><g class="cls-5"><path class="cls-1" d="m167.08,265.71c24.83,14.97,59.79,14.97,84.62,0"/></g><path class="cls-11" d="m167.08,265.71c24.83,14.97,59.79,14.97,84.62,0" stroke="#603813" stroke-width="13" stroke-linecap="round" stroke-linejoin="round" fill="none"/><circle class="cls-2" cx="227.07" cy="247.68" r="220.7"/></g></g></svg>