<?xml version="1.0" encoding="UTF-8"?>
<svg id="Layer_1" data-name="Layer 1" xmlns="http://www.w3.org/2000/svg" viewBox="0 0 1000 400">
  <defs>
    <style>
      .cls-1 {
        fill: #fee1c8;
      }

      .cls-2 {
        fill: #fdfdfe;
      }

      .cls-3 {
        fill: #fefdfd;
      }

      .cls-4 {
        fill: #333d4e;
      }

      .cls-5 {
        fill: #3b404d;
      }

      .cls-6 {
        fill: #f7fafa;
      }

      .cls-7 {
        fill: #c8684b;
      }

      .cls-8 {
        fill: #fed7b7;
      }

      .cls-9 {
        fill: #9ea8af;
      }

      .cls-10 {
        fill: #353e4f;
      }

      .cls-11 {
        fill: #353d4e;
      }

      .cls-12 {
        fill: #fdfefd;
      }

      .cls-13 {
        fill: #353e4e;
      }

      .cls-14 {
        fill: #c8623b;
      }

      .cls-15 {
        fill: #fcfcfd;
      }

      .cls-16 {
        fill: #383f4b;
      }

      .cls-17 {
        fill: #e83c02;
      }

      .cls-18 {
        fill: #fafbfc;
      }

      .cls-19 {
        fill: #373e4b;
      }

      .cls-20 {
        fill: #fcfcfb;
      }

      .cls-21 {
        fill: #f6f8fa;
      }

      .cls-22 {
        fill: #353d4d;
      }

      .cls-23 {
        fill: #e24914;
      }

      .cls-24 {
        fill: #e6430e;
      }

      .cls-25 {
        fill: #fdfdfc;
      }

      .cls-26 {
        fill: #fcfdfc;
      }

      .cls-27 {
        fill: #fdf5ed;
      }

      .cls-28 {
        fill: #eef1f2;
      }

      .cls-29 {
        fill: #e9eff4;
      }

      .cls-30 {
        fill: #373d43;
      }

      .cls-31 {
        fill: #363d4c;
      }

      .cls-32 {
        fill: #f8f9fa;
      }

      .cls-33 {
        fill: #fefefe;
      }

      .cls-34 {
        fill: #fefefc;
      }

      .cls-35 {
        fill: #343d4e;
      }

      .cls-36 {
        fill: #ccd2d8;
      }

      .cls-37 {
        fill: #343d4d;
      }

      .cls-38 {
        fill: #373d4c;
      }

      .cls-39 {
        fill: #383f4d;
      }

      .cls-40 {
        fill: #fcfcfc;
      }

      .cls-41 {
        fill: #fafbfb;
      }

      .cls-42 {
        fill: #363d4b;
      }

      .cls-43 {
        fill: #3a3f4d;
      }

      .cls-44 {
        fill: #f4fefe;
      }

      .cls-45 {
        fill: #3d424d;
      }

      .cls-46 {
        fill: #9ca0aa;
      }

      .cls-47 {
        fill: #fdfdfd;
      }

      .cls-48 {
        fill: #fcfdfd;
      }
    </style>
  </defs>
  <rect class="cls-33" width="1000" height="400"/>
  <path class="cls-17" d="M528,432c.33.03.67-.04,1,0,8.75,2.2,17.26,6.97,23,14,.79.81,1.79,1.47,3,2,1.53-2.53,3.86-1.4,4.81.89,5.31,2.19,10.49,4.81,15.55,7.86l.65,2.25c.34,34.5-.32,69.04.08,103.55.06,1.1-1.26,2-2.08,2.45l-.72,2.23c-14.49,8.58-29.26,16.62-44.3,24.12-13.62,9.64-28.01,18.09-43.18,25.37-17.38-8.7-35.59-18.86-51.89-29.76-5.88-2.3-11.49-5.18-16.84-8.62l-.06-2.34c-.33-.02-.67.03-1,0-3.82-.87-23.42-9.64-22.84-13.43.06-.4.63-.72,1.34-1.02l.06-97.74c-5.64-5.61,8.6-12.13,13.56-14.21,1.14,1.27,2.64.61,4.48-2,2.27.45,5.99-1.13,5.31-3.65,22.47-12.79,44.9-25.41,67.26-37.83l3.8.7,37.81,22.17,1.21,3.03Z"/>
  <path class="cls-17" d="M240,96c.32.07.69-.08,1,0,2.75,1.82,5.81,2.74,8.94,3.68l.06,2.32c2.85-2.32,6.14,1.82,7,4,2.52.72,2.51,2.82,0,4l1.28,2.7c.97,20.13,1.61,40.58,1.44,60.84-.05,5.81-.17,11.8-.84,17.47-.23,1.95-.61,3.09-2.88,2.99-2.82,3.69-9.49,7.99-14,8-.55.31-1.25.58-2,1l.04,1.39c-18.69,11.37-38.19,22.45-58.49,33.23-8.51-3.32-15.84-7.98-22.01-13.98-15.73-5.45-30.66-14.97-43.55-25.64-.46-1.22-1.46-1.88-3-2-2.01,2.81-7.96-1.03-8.99-3.66l-.07-83.25,1-3.82c25.27-15.79,50.85-30.47,76.72-44.03,19.45,9.24,38.09,20.52,56.18,32.07l2.15,2.7Z"/>
  <path class="cls-47" d="M240,203c.42,1.59,1.33,2.8-.43,4.05-1.41,1-4.22.4-3.57,2.45.35,1.11,1.77-.11,2.02,1.01.59,2.68-2.79.16-2.01,3.49,3.62-.19,4.75-.68,4.03,3.4-.06.34-5.03,1.7-.71,2.61,1.25.26.77,1.92.68,1.99-.3.23-2.3-.26-3.33,0-.86.21-.6,1.49-.9,1.73-.71.57-5.94.51-7.27.27-1.77-.32-2.47-1.99-4-2.02-.45,0,.28,2.82-5.07,2.1-2.05-.28-1.19-1.87-2.06-2.08-3.14-.76-12.19,1.91-9.36,6.01h-3.02s1,4,1,4c-3.69.32-6.98-1.64-5.99,3l3.99-1c.19.99-.27,3.68,0,4,1.84,2.1,2.11-4.02,3.99-2,.14.15.41,3.89-.55,4.01-1.23.15-3.7.24-4.82.02-1.06-.21-.18-1.83-1.12-2.04-2.68-.61-.15,2.79-3.49,2.01l-2-4.01c-.21.98.3,3.66,0,4.01-.19.23-5.82.23-6.01,0-.35-.43.37-3.52,0-4.01-.14-.19-1.61-1.02-1.67.97-.13,4.48-3.37,4.46-4.82,1.03-1.88,2.65-10.07,2.66-12.88,2.02-.83-.19-.51-2.06-1.14-2.07-1.86-.03-6.16,3.58-9.48,2.05-.9-.86,3.49-5.59,1.73-7.8-.22-.27-1.67-.05-1.8-.82-.3-1.9,1.2-4.96,0-7.32-.92-1.04-14.9.53-17.31-.05-.76-.18-.55-1.49-.85-1.73-.65-.51-5.98-.55-7.15-.29-.8.18-.51,1.85-1.23,2.03-2.66.68-8.22-3.43-3.36-4.6.81-4.09-1.88-3.25-2.05-4.05-.41-1.83,1.01-7.95-1.44-8.17-.86-.07-2.77,1.16-4.99.81-2-.31-3.4-2.59-5.03-2.65-2.75-.1-5.21,3.78-9.89,2.65-.76-.18-.55-1.5-.84-1.73-2.04-1.59-7.96,1.39-8.79.71-.24-2.08,3.56-3,2.99-4.48-.6-1.57-2.33-1.24-3.48-.5-2.2-2.33,4.01-3.24,3.49-5.51-.23-1.01-1.91.36-2.09-1.93-1.96-26.1,2.08-55.02.15-81.15-.18-2.47-2.64-.48-2.08-2.92.26-1.14,2.55.48,2.02-2-.22-1.02-2.4.63-2.06-3.05.16-1.8,3.38-1.62,2.06-5.46l4.99,2-2.99-5.99c1.88-.32,11.57.43,12,0,.32-.32-.32-4.04-.02-5.37.18-.81,2.86.04,2.05-4.05-.18-.9-3.12-.02-2.02-2.56,1.81.49,1.91-1.87,2.65-2.01.87-.18,5.14-.17,5.34,0,1.97,1.69-1.93,4.43-2.05,5.43-.24,1.99-.38,3.02,2.03,2.55-.46-1.84,1.82-1.83,2.01-2.72.21-.98-.24-3,.01-3.26s2.46.34,3.76-.27c.27-.13,2.33-3.6,2.9-3.73,3.29-.71,6.91.78,9.95.67,8.01-.3,4.31-1.4,5.36-6.06.18-.82,2.06-.51,2.07-1.13.03-1.7-3.41-5.31-1.94-7.38.81-1.15,8.04-2.7,9.88-2.1.88,3.61-3.31,1.35-4,2-1.74,1.64,2.91,2.21,2.01,3.98,2.64.85,1.64-1.34,2.16-1.75.86-.67,4.53.13,7.12-2.25,1.3-1.19,1.31-4.81,3.21.05,3.83-2.08,7.15-2.42,11.5-2.04.3-3.46-1.69-6.96,3-6.01.55-2.8-1.01-1.96-3.01-2,.32-2.87,2.66-4.83,2.01-8,4.41-.35,1.87,4.65,1.93,6.36.02.5,2.21,1.54,2.58,1.63,2.17.51,1.46-1.05,1.48-2.47.07-3.97-1.4-6.48,3.34-5.51.3.06,4.26,3.94,4.39,4.21,1.06,2.23-.36,11.16.27,11.78.37.37,4.95-.51,6.28.23l5.22,3.77c1.53-.35-1.73-5.37,3.88-4.01.68.16.51,1.5.86,1.73.92.61,2.08.05,3.02.3.73.2,1.22,3.36,4.75,1.98.82,2.35-1.62,4.16-2.01,5.52-.21.72,1,.3,1.22.57.4.5,2.48,4.14,2.78,1.41.17-1.57-.33-3.43-.04-4.88.12-.59,4.08-1.03,2-2.6-.44-.33-2.32.79-1.92-1.41,1.17-6.32,7.89.44,5.7,3.23-.1.13-3.92.57-1.73,2.15.16.11,4.42.2,1.94,2-.16.12-4.75.37-1.95,2,.3.17,1.45-.24,1.84.2.48.54-2.62,4.72,4.14,3.82,1.58,2.08-4.16,2.3-2,3.98.5.39,3.06.93,3.99,2.01.39-2.84-2.38-5.39,1.5-6.02,7.29-1.18,3.49,2.8,4.52,4.02,1.8,2.14,2.12-4.02,3.99-2,.18.2.2,4.55.04,5.38-.22,1.08-2.01.18-2.04,1.12-.08,2.57.72,1,2,.49v7.01c-19.65-10.67-38.43-23.09-58.5-32.96l-74.52,42.44-1.03,2.97v83.92c.14.81,5.9,2.95,7.05,3.63,1.66.08,2.66.75,3,2,21.84,12.68,43.55,25.64,65.68,37.85,17.05-8.82,33.2-19.29,49.8-28.87,2.61-1.5,6.19-2.66,8.52-3.98Z"/>
  <path class="cls-3" d="M261,98l1,1.04c1.07-1.81,2.77-3.27,4-1.04.22.04.92,1.49,2.38.97,1.79-.63.37-3.35,4.15-3.04.99.08,4.87,3.27,2.97,4.07-2.47.24-4.21-.88-5.49,2l1.84,1.35c-1.92.26-3.17,1.27-3.19,3.31,3.7,1.63,7.49,3.41,11.35,5.35,2.78-1.01,5.35,4.34,3,6,.49-.05.97-.06,1.39.09,3.45,1.25,1.69,63.88-.02,72.96l-2.36.95-2.92,3.53c-4.52.09-5.55,1.25-3.08,3.47.49,3.03-2.43,3.54-4,1-2.37,1.11-3.71,1.11-4,0-2.05.2-4.54,2.93-5-2-.69-1.44-.23-2.82,1.39-4.15-2.19,2.27-3.99,2.99-5.39,2.15-.58.36-2.64-.97-2,2-2.63,4.82-5.88-1.95-1-4,.37-1.57.89-2.37,1.04-4.44,1.91-25.3-.71-53.76-.04-79.56,2.2-2.71,1.84-6.49-1.08-11.32l2.08-2.68c1.12.1,3.25.64,3,2Z"/>
  <path class="cls-37" d="M784,104c1.11-.99,2.84-1.46,5.21-1.39,4.82-2.84,9.59-4.65,14.32-5.43,2.18,4.99-1.31,10.98-5.53,15.82,1.67,1.94.62,5.93-2.33,6.81l-37.52.31c-.57,1.42-3.21,11.53-2.51,11.92,11.93.98,24.08,3.26,34.65,9.16l.7,2.81c5.16.47,10.43,8.1,13.01,12.7,2.87,5.11,2.65,13.01,2.23,19.04-.83,7.15-2.13,12.87-8.24,18.26,1.84,2.46-.34,4.31-3,3-5.32,6.79-14.51,8.08-23,9-2.05,1.56-5.38,2.11-7,0-4.93-.1-9.7-.74-14.3-1.9-6.03-2.89-12.36-9.5-11.56-17.5,1.33-13.18,20.65-10.36,17.7,2.69,2.57,8.3,8.88,10.9,17.02,11.2,2-2.12,8.34-5.82,11.13-4.48,2.62-.63,4.49-2.41,5.59-5.34l1.41.34c19.54-31.32-14.39-49.18-41-48-2.25-.47-2.58-2.81-1-7-1.57-1.96-1.8-7.39,1-9,.25-1.36.72-2.65,1-4,.14-3.41.67-6.77,1.61-10.09-.13-3.39.46-11.64,4.39-8.91.15-.74.44-1.8,1-1.85,5.97-.47,17.66-.55,23.63-.11l1.38,1.96Z"/>
  <path class="cls-13" d="M719,104c.24,28.36.57,56.69,1,85,.07.33-.09.72,0,1l5.99,5.62c2.82,2.01,7.49,4.74,10.67,4.84,1.52,7.31-5.95,6.1-9.67,3.54-10.94.31-22.05.05-33,0-1.5,2.28-3.38,2.14-5,0-1.33-.03-2.68.03-4,0-.9-4.34,2.07-3.14,5-4l.83-2.36c4.34-1.19,8.94-5.7,9.12-10.33.79-21.11.45-42.71-.07-63.76,2.01-5.37-6.05-8.58-11.02-9.32l-.85-2.23c-.61-.13-1.44.15-2,0-2.74-1.11,1.36-4.82,2.62-5.43l8.54-.55c5.37-3.06,11.01-4.62,17.02-3.66,2.24-1.09,3.52-1.21,3.82-.37,0,.11.7.67,1,2Z"/>
  <path class="cls-35" d="M396,104c1.49-2.93,7.2-3.3,9.27-1.25,5.2.14,10.28-.37,15.22-1.55l.98,1.55c5.87-2.09,19.28,3.77,23.62,7.69,3.07,2.77,7.3,13.44,7.71,17.25s-4.03,14.71-6.52,16.67c-.27.21-.9-.02-1.63-.39-3.83,5.34-12.29,8.04-18.65,7.03-.6,7.7-10.36-.23-4-4-1.97-2.16,2.01-4.93,4-3,2.08-1.68,2.41-1.77,2,1-.41.82.59.82,3,0,15.88-11.38,11.17-29.54-5-36,1.07,2.66.05,2.68-2,1l-1.96,1.16c-10.65-5.23-26.55-5.61-26.26,9.92l.22,24.33-1.99,2.59c1.94,1.26,1.94,2.74,0,4,.02,10.44-.89,22.87,0,33-.06,1.77.28,3.44,1,5,.23,1.21.58,2.9,1,4,2.29-.31,2.62.35,1,2,.9,1.91,2.9,3.25,6,4,.25-.87.58-.85,1,0,5.98,4.51-3.97,3.54-7.6,2.98-10.15.67-20.14.36-30.15-.03-2.42-2.18,7.51-6.47,7.75-2.95,4.2-1.95,8.98-2.73,14.32-2.35-2.03-1.99-3.26-4.19-3.34-7.09-.53-18.15-.56-36.77-.56-54.96,0-4.96.16-9.9.38-14.85.35-7.99,1.67-11.1,9.2-13.75-4.14-1.02-.97-2.68,2-3Z"/>
  <path class="cls-11" d="M656,104c1.6-1.96,3.39-1.95,5,0,3.35-.73,11.63-2.34,13.74-1.38.8.36,1.54.85,2.26,1.38.57-2.74,1.8-2.51,3,0,4.38,3.47-2.18,7.66-6,6-.51.31-1.18.46-2,1-1.86,2.66-3.87,5.23-6.06,7.71l-5.98,7.81-2.96.48c-1.26,1.52-2.17,2.99-3,4,.68.62.9,1.33.57,2.14-4.71,4.05-8.59,8.51-11.62,13.39-8.01,6.25-9.22,21.05-6.66,30.54l.56,13.42c1.69,2.58,2.07,4.42,1.15,5.51,1.98,2.25,4.67,3.89,8.07,4.94,0,.44-.04.84-.23,1.15-1.07,1.72-36,1.14-38.38.91-.85-.08-1.62-1.33-1.49-2.31.08-.62,11.91-6.2,9.03-1.69,4.62-.86,9.18-1.47,13.67-1.85l-2.32-3.25c-.55-13.19-.74-26.39-.58-39.62l-24.13-35.42c-1.51-4.33-1.64-11.55,4.36-10.85,0-1.25-.74-1.7-2-1.56l-13.96.04c-1.5-.22-1.77-1.03-.52-1.99.99-.75,23.48-.03,24.79.56.8.36.55,1.23-.31,1.95.4.79.62,1.71.1,2.41-4.26,5.68-3.34,8.98,2.56,12.93-1.02.97-.91,2.19.34,3.66,1.04,1.53,2.25,2.89,3,4,2.35.1,3.68,2.1,4,6,.3.42.79.7,1,1l2.12.17c3.41,9.15,7.37,11.42,11.88,6.83.43-.5.58-1.5,1-2l-.12-2.92c4.53-5.17,8.87-10.21,13.02-15.13-1.09-1.25.04-4.3,1.95-3.78,1.87-6.01-1.39-9.17-6.89-10.31-14.67-4.13-5.79-10.64,8.05-5.85Z"/>
  <path class="cls-10" d="M295,114l1.36.04c1.66-5.27,6.22-4.97,4.29,1l.35,3.96,2.21,2.63-.17,28.37h15.55s1.41,2,1.41,2c.19,1.38,1.45,1.72,3.77,1.01l1.23,1.99c.71,2.26-4.17,2.71-5,1-5.63.3-11.37-.27-17,0-2.35,9.13-2.53,23.15-1,34,.05.65-.13,1.47,0,2,2.71.99,5.01,2.69,6.9,5.11,1.79.1,9.28,3.77,9.57,4.48.32.77.86,2.8.53,3.25-.6.82-11.42,2.49-12.01-.84-10.99.04-22.01,0-33,0,.06,1.75-3.49,1.67-4,0-.07-.21-.78-.56-1-1-1.3-1.71-.3-2.71,3-3,1.21-.25,2.94-.56,4-1,.98-2.41,2.98-4.74,6-7,.97-3.12,1.83-6.98,2.05-10.45,1.02-16.17,1.05-39.94,0-56.09-.13-1.97-.6-5.59-1.05-7.46-.54-2.89.6-3.89,3-2l2.24-.32c.9,23.11,1.27,46.39,1.1,69.84-.29,7.44-1.34,12.99-9.34,14.48,5.57-2.84,14.45-3.04,20,0-3.22-.66-5.63-2.21-7.23-4.67-.71-23.46-1.18-47.07-1.42-70.83-.71-7.24.5-10.74,3.65-10.51Z"/>
  <path class="cls-38" d="M528,110c2.91.14,3.91,1.14,3,3-.39,2.92-1.35,5.63-2.87,8.14l30.61,68.91c.73,3.91-.35,9.13-4.73,9.95-4.41,1.2-3.08,1.2,4,0,.56-1.92,1.44-1.91,2,0,1.03.96,2.37.96,4,0,1.25-2.7,2.75-2.69,4,0,2.4,1.59,5.74.92,10-2,1.73-2.73,5.5-.84,6,2,.44.18,1.05,1.2,2,1,.82.04,1.39.48,1.99.97,4.28,3.51-9.47,5.38-11.99,2.03-10.98.15-22.02,0-33,0-.87,1.98-2.49,2.42-3,0,.03-.78-.16-2.85,0-2.99,1.52-1.31,13.15,1.18,13.71-7.66.41-6.45-8.73-19.53-10.29-26.41-11.34.86-23.78-.93-34.97,0-1.25.1-2,.01-2.98,1.02-.86.89-5.94,13.93-6.24,15.75-1.23,7.44,1.44,12.35,8.24,15.31,1.7.74,7.14,1.72,7.53,1.98.12.08.12,2.88,0,2.98-1.41,1.2-32.26-.9-37,0-6.24-.84-.17-6.38,4.16-5.96.35-3.41,3.54-5.76,6.63-5.99,2.09-6.46,5.27-11.99,9.54-16.59-.02-4.19,1.75-8.39,4.37-11.62.11-2.7,1.13-6.98,3.84-7.62-.13-4.86,1.36-7.94,4.47-9.22.67-1.5,1.22-3.23,2-5-.59-1.79.35-3.35,2-4,.12-.28-.12-.72,0-1-.34-6.05,4.46-15.05,7.83-20.7l3.17-2.3c.12-.29-.12-.71,0-1-.07-2.9.6-3.9,2-3Z"/>
  <path class="cls-31" d="M344,107c.47.22,1.73.83,2,1,2.45-2.34,10.35,8.84,11.09,10.69.41,5.05.53,10.43.36,16.13,1.36,2.35-2.44,7.14-4.45,9.17-1.55,1.14-2.25,2.42-3,3,1.24,2.81-.18,3.88-3,3-.36.24-2.04.53-3,1-.26,3.22-2.21,4.13-5.83,2.71.11.74.13,1.39-.19,1.73-.46.51-12.74,1.98-12.99-.44-3.39-.6-24.05.81-25,0-1.31-1.12-.16-1.92,1.48-2,5.2-.26,11.11.56,16.12.05,1.5-.15,2.17-1.01,2.4-1.05l1.05-2.26c33.43-7.65,10.04-59.76-16.8-36.08-.5,2.69-1.58,4.47-3.25,5.34-.1-.96-1.42-2.43-1.41-5.12,0-1.66,1.58-2.13-1.58-1.89-1.05,2.86.91,14.93,0,16.01-.1.11-2.9.11-2.99,0-.54-.63.38-11.79,0-14-1.52-1.81-1.14-3.07.48-4.49-.97-.16-10.74-.17-11.24.1-.25.14-.28.71-.24,1.4l2,4c.89.28.87.61,0,1l-3,2c-.64-2.69-1.16-3.91-3-6-4-2.46-7.7-3.74-11.12-3.84-2.13-5.06,4.11-6.86,7.92-3.7,7.01-.75,14.07-.9,21.2-.45,1.99-.11,4.01.1,6,0l2.08-2.12,11.33.79c9.78-2.69,18.32-1.82,26.58,4.33Z"/>
  <path class="cls-33" d="M808,108c.27.38,1.67.7,1.99,1.5-.91,3.17-9.85,3.82-10.05,5.12-.37,2.45,1.05,4.65,1.09,6.88.04,2.41-1.05,5.94-.92,8.87.15,3.24,3.05,6.91-3.11,6.63l.99-7.99c-4.44-.87-7.91,5.84-5.55,9.05.95,1.29,6.91,1.83,6.55,5.94-1.01,2.7-3.68,2.7-8,0-9.38-6.36-25.25-9.38-36.48-10.03-1.5-.09-1.77.56-1.38-1.32.64-3.08,2.06-10.6,3.05-12.96.32-.75.53-1.37,1.43-1.57l36.9-.1c2.53-.16,2.61-2.98,3.48-5.02l3.13-5.46c2.32.6,4.61.75,6.87.46Z"/>
  <path class="cls-31" d="M880,110c.61.48,3.14,3.12,4,4,1.88-1.19,2.92-.36,3.09,2.48,3.4.64,4.37,2.15,2.91,4.52.45.64.08,2.78,2,3,2.5.2,2.42,1.33,0,2l-.62,1.29c.83,3.06,2.05,9.55-1.38,10.71l-2.66-1.19c-6.68-16.52-7.96-18.28-3.84-5.27,2.61,20.7,5.07,46.72-9.5,63.46,2.33,3.62-4.51,7.59-6,3l-.61-2.64c11.56-14.31,11.84-34.86,10.91-52.54-1.02-19.55-14.36-51.66-35.39-27.2l-2.92.39c-2.19-.64-2.12-1.36-1.6-3.3l-1.4-.7c-1.06,1.8-2.39,2.8-4,3,0,.58-.05,1.15-.27,1.64-.5,1.16-1.3,2.46-1.98,3.55-11.83,18.95-16.18,34.78-6.51,56.32,2.53,5.64,7.62,15.55,12.76,17.49.53-2.15,2.19-2.15,5,0,2.37-2.25,7.68,2.53,5,5-.47,1.68-1.14,3.34-2,5-3.66,2.45-11.21-2.39-12.32-6-3.71-.91-4.82-2.61-6.14-6.03-4.4-3.84-9.01-8.86-8.22-14.94l-2.32-7.03c-1.52-.07-1.44-1.57,0-2l-2.24-1.93c-.74-6.63-1.02-13.29-.85-19.99l2.09-2.08c-2.8-.93-1.84-5.77,1-6,1.11-6.17,2.12-11.67,5.68-16.73l2.32-.27c-.45-.32-.44-.65,0-1,.77-3.99,2.68-7.36,7-8,.34-.32.67-.73,1-1,.82-3.77,3.75-5.82,8.78-6.15,1.93-4.04,8.85-4.29,13.28-4.38,8.6-.18,20.9,2.09,25.93,9.54Z"/>
  <path class="cls-33" d="M816,136c.44.48.44,1.14,0,2-.1,2.34-.91,4.24-1,6-3.99.72-3.91,10.94-3.48,13.84l1.61,1.02c-.41,4.37.55,7.42,2.87,9.15.08.65-.08,1.36,0,2,2.08,4.44,2.81,8.63,2.18,12.56,3.37,3.83,6.73,7.83,10.1,11.99l.08,1.68c3.32.23,6.19,1.65,5.35,5.66,3.26.71,5.93,4.32,2.29,6.11-3.07-.34-5.33.74-7.98-2-3.53,8.9-13.13-3.13-2.01-3,.44-3.16-1.85-5.45-5-5,.16,10.77-11.77,2.29-3.01-2.49-.33-.78-6.81-4.29-7.67-4.35-1.29-.1-2.04,1.38-3.05,1.62-1.7.4-4.17-.1-5.34.66-1.57,1.02-.44,3.83-1.18,5.36-.12.24-1.27.29-1.73.93-4.02,5.6-2.56,8.38-10.54,8.29-5.42-.07-11.17-.28-17.03-.05-3.93.16-10.73,3.34-13.45-.95.56-1.66,2.89-2,7-1,2.33-.05,4.67.05,7,0,5.81-.41,11.22-1.41,16.46-4.14.52-.27,1.22.1,1.71.46.82-2.13,2.43-3.91,4.83-5.32.76-.98,2.16-1.75,3-3,2.6-2.35,4.6-5.28,6-8.79,2.89-.22,6.77-2.21,1.55-1.96l-.78-1.05c1.99-7.36,2.5-15.36.19-22.09-1.4-4.07-2.33-5.89-5.61-9.04-2.25-2.9-3.95-6.14.65-7.07,1.25-.17,6.72-.79,6.95-1.05s-.03-2.13.31-3.14c1.71-5,3.95-3.35,8.74-3.8Z"/>
  <path class="cls-31" d="M422,147v5c1.65.84,3.63-.97,4-1,6.01-1.31,12.98,4.82,14.34,9.58,2.54-.21,3.1.6,1.66,2.42.73.86,1.3,2.07,2,3,4.97,3.57,9.96,9.01,11.27,15.56,3.71,1.39,5.96,6.33,6.73,10.44.65.82.99,1.86,2,3,2.33.87,9.95,5.51,11.3,7.04,6.26,7.07-4.45,5.8-9.3,3.96-.33-.05-.67.05-1,0-1.93,1.49-6.24.95-6-2-.32-.04-.67.02-1,0-4.07.86-8.16-.74-9.58-5.08-5.48-2.87-11.1-8.79-14.84-14.04-.5-2.77-1.73-4.69-3.71-5.78-1.77-2.49-2.52-4.01-3.84-6.75s-3.17-6.8-3.03-8.95c.09-1.28-.74-1.97-2.04-1.27-2.35-3.9-5.33-7.27-8.95-10.13-5.52-.72-12.31.52-18,0,0-1.33,0-2.67,0-4l2.68-2.09c8.1.58,16.07.37,23.91-.63l1.41,1.72Z"/>
  <path class="cls-47" d="M690,200l-2.5-4.98c-1.01-1.51-3.51-.53-3.51-1.53,0-2.64,1.48-1.44,3.24-1.23,1.49.18,3.03,1.15,4.76.74.66-.71-.62-13.7,0-16.36.18-.79,1.84-.48,2.02-1.27v-47.37c-.73-.6-5.45,1.58-4-2.49.55-1.56,1.44-1.32,2.71-.73,2.05.96.99,4.33,4.33.74l2.95-5.52c-3.86.72-8.25-.02-11.99-1.01-.35-1.84,1.57-.33,2-1.5.6-1.64-.41-1.79-1.52-.72l-.49-4.78c8.97,1.93,13.16,2.74,14.04,13.46,1.64,19.81-1.25,41.91-.12,61.97-1.24,7.06-5.26,10.63-11.93,12.57Z"/>
  <path class="cls-11" d="M558,157c.36.81.53,1.93,1,3,3.25,4.39,5.58,9.39,7,15,0,.33-.05.68,0,1,4.26,3.9,7.26,10.32,9.04,16.21,2.16,1.16,4.37,3.25,2.96,5.79-.08,2.14-1.36,3.63-3.51,3.99-2.45.41-7.62.84-6.49-1.99.1-2.02-.94-4.18-3.13-6.46-12.3-23.11-22.74-48.41-32.74-73.05-.46-1.13-.67-2.36-.86-3.62s-.25-2.57-.27-3.88c-.94-1.51-3.82-.24-3-3-.84-.31-.84-.64,0-1,.03-.33-.02-.67,0-1-.58-4.52,4.9-10.19,7.23-5.13,7.73,16.8,15.26,33.72,22.49,50.77l.28,3.36Z"/>
  <path class="cls-35" d="M890,138c-.21-2.89.53-6.77,0-9.33-.12-.56-3.56-2.58-3.72-2.93-.52-1.11-.04-2.38-.56-3.5-.15-.33-3.17-2.25-3.72-2.75.99-1.26,1.75-1.81,3.44-1.54.16.03,2.2,2.15,2.27,2.3.81,1.71.49,5.65,4.29,5.74,1.74-1.89,3.84,2.39,4.68,4.27,4.07,9.16,4.33,18.02,2.42,27.63,1.69,4.21.85,13-3.1,16.1-.06.32.04.67,0,1l-2.65,6.15c.21,3.44-.91,5.06-3.35,4.85-.15.24.15.77,0,1l.85,2.21c-7.08,8.12-16.57,18.09-27.85,16.79-.35,1.47-1.11,1.31-2,0-1.92,1.77-14.57.85-15.61-.47-.3-.38-.38-.93-.39-1.53l-3-3.99c1.06.14,4.39-1.12,5-1.01l2.08-1.38c5.86,3.98,10.89,2.33,16.55-1l2.37,1.38c.89-.2,2.24.27,3.3,0,.2-.05,1.87-2.28,2.7-3.01,13.95-15.93,16.98-33.92,14.19-54.41l1.81-2.59Z"/>
  <path class="cls-47" d="M785,196c-6.8,5.96-22.92,8.79-27.41-1.09-2.47-5.44.15-14.78-8.11-14.97-13.98-.33-8.41,19.19,1.83,22.25l13.69,3.81c-2.1.04-6.6,1.04-7,1-.11,0-.76-1.44-2-.99l.5,2c-7.02,1.27-6.48-1.33-10-6-1.12-.54.6,5.27-1.99,3.99-3.83-1.9-2.15-7.74-2.52-8l-1.99,1.02c.64-6.84-4.43,1.06-8-1.01.43,3.01,5.46,1.55,6,1.99.21.17.09,4.32-.19,5.32-.69,2.44-3.94,3.22-6.19,2.7-.73-.17-.51-1.49-.85-1.75-1.42-1.09-4.49,1.24-3.78-2.27,3.17-.09,9.07,1.39,9-3-7.77-.93-13.5-3.24-16-11,1.3,1.16,4.45,3,5.89,1.81.11-.09.27-3.02,1.1-1.8.17.24-.43,1.82.62,2.04,3.4.7,7.26-1.46,10.38,1.96.51-2.69-3.25-7.76-1.74-9.8.19-.25,1.34-.1,1.73-.93.61-1.28.09-3.67.56-4.29,2.18-2.87,8.7-3.39,12.03-3.08,2.23.21.68,3.09,3.42,1.07-1.06,4.19,2.28,2.45,3.52,3.98,2.88,3.53-1.63,7.21.39,9.58,1.08,1.27,6.14,3.69,7.61,3.34.82-.2-.13-2.91,2.47-1.87-1.7,5.1,1.05,7.68,6,7.99.76-1.34-.11-4.1.47-4.96,2.59-3.85,9.16-2.68,9.54-3.03.35-.33-.33-4.99-.02-6.37.07-.29,1.34-2.24,2.22-4.91.42-1.29,1.96-1.78,1.81-3.22-7.43-1.81-1.99-4.23-1.92-9.04.05-3.4-1.84-2.08-2.1-3.15s.25-2.97,0-3.32c-.05-.08-1.87-.43-1.86.49.01,1.68.85,2.74-2.11,2.47l-.17-1.78c-2.05,1.76-2.68-.51-1.86-1.16.51-.41,2.96-.22,3-2.01-2.62,1.07-3.14-1.74-3.48-1.83-2.48-.64-6.83,1.51-8.01,1.48-1.78-.04-7.62-2.31-10.08-2.59-5.32-.6-7.05,1.68-11.98-1.01-.63-.34-3.41-.36-1.45-2.06,1.06-.92,8.74,2.18,5-3,.28-1,.85-1.53,1.79-1.52,19.01.19,42.64,10.27,40.14,32.71-.54,4.85-2.76,12.83-7.94,13.81Z"/>
  <path class="cls-47" d="M395,104l.45-4.01c-3.3.37-6.11.03-5.44-3.99,2.84-1.45,6.51,1.61,7.5,1.69s2.34-1.85,3.82-1.51c5.04,1.16,3.23,5.22,3.67,5.83s14.27,1.11,13-4c-3.81-1.56-7.28,4.31-9,0,4.68-2.77,9.61-1.23,15-2.01l-2.99,5.99c1.24,1.23,6.32-2.55,3.99-3.99,1.77-2.31,8.37,6.17,9.68,6.79,3.46,1.61,11.5.1,13.26,2.29.11.14-1.13,1.79-.24,3.63.94,1.95,2.58,1.87,3.08,2.47.24.29-.7,4.06-.46,5.12.35,1.56,2.5,3.27,1.68,5.7,2.34,1.5,2.03-4.12,3.99-2,.52.56.55,14.02-1.5,14.99l-2.49-2c.75,2.94-1.96,3.09-3.01,5.52,5.57,1.93-2.27,2.52-1,6.49l-2.49-3c-1.57,1.06-1.29,3.34-2.49,4.51s-5.65,1.47-6.01,3c-.73,3.14,5.42,2.52,7,2.49,1-6,4.86-5.86,4,0-1.33.03-2.67-.02-4,0-.15.92.28,2.12-.43,3.05-1.2,1.57-4.37-.26-3.57,2.94,3.41,1.5,4.2-1.91,4.62-2.01,1.14-.26,3.97-.7,3.37,1.5-1.81,2.7-3.24,2.74-5.99,3.51-2.34-2.78-12.84-12.24-16-12l14.71-4.79c14.2-8.68,12.87-28.2-.37-37.05s-30.02-5.87-44.34-5.16h-1Z"/>
  <path class="cls-16" d="M369,104c4.45-1.38,8.53-1.3,12.22.23l9.78-.23c1.33-.08,2.67.07,4,0,.33-.02.67.02,1,0-1.25.96-2.68,1.06-2,3-4.41,2.2-9.16,3.41-14.26,3.62l1.56,2.26c.82,24.68,1.17,49.5,1.04,74.46-.41,7.46-1.02,10.65-8.35,12.66-2.35.09-5.96-.91-7,1.99,3.93-.92,8.12.95,11.53,1.07,6.03.2,12.52-1.46,18.98-1.07,2.66.16,7.51,3.4,6.49-1.99,2.46-3.58,7.69-.15,6.95,3.82-.38,2.06-10.4,4.12-10.95.18-10.65.05-21.35-.09-32,0-1.25,2.7-2.75,2.69-4,0-.33.01-.67-.02-1,0-4.05-.65-1.53-6.47,2-4,1.14-.5,2.9-.49,4-1l.09-2.26c2.61-1.74,4.91-3.99,6.91-6.74.09-.63-.04-1.34,0-2v-69c-.02-.33.04-.67,0-1l-2.15-.92c-.64-3.4-3.78-6.75-6.78-8.19-2.07,2.05-8.56-3.67-4.07-4.89,1.95-.09,4.06-.11,6,0Z"/>
  <path class="cls-39" d="M578,104c2.12-2.53,3.87-2.51,6,0,8.49-2.62,17.56-2.89,27.2-.82,3.24-1.86,6.68-1.14,9.8.82,5.63,3.55-5.09,8.09-7,3-.14-.05-.42-1.32-1.42-1.56-6.57-1.57-15.66.24-22.57-.43-.23,1.75,2.27.94,3.49.99,4.49.18,9.02-.14,13.5,0,.52,1.84-.45,1.49-1,2-5.14,1.08-10.69,1.49-16.67,1.23,11.99,14.96,23.09,30.58,33.28,46.88l.85,25.8c.14,6.77.16,17.48-8.47,17.08-3.21-2.83-2.68.31-3.2.74-1.38,1.12-4.55-1.27-3.79,2.26,4.49.07,9.01-.08,13.5-.01,3.44.05,6.47-.01,9.95-.03,3.27-.02,7.95.78,10.62.51,1.8-.18,2.28-.61,1.93-2.46-2.27.72-4.83-.82-5.96-2.71-.24-.39.09-1-.05-1.29l2.32-.93c3.57,2.01,7.13,3.99,10.68,5.93.14,1.22.19,2.48-1,3-4.78,2.75-8.12,2.75-10,0h-32c-.07,3-5.32,2.86-6,0-.01-.16-1.91-2.35-1-2.99.39-.28,6.67-1.8,9-3.01.65-2.67,2.65-4.67,6-6,.4-1.24.75-3.57,1-5,1.17-9.88.95-19.74-.69-29.58-3.6-3.57-6.3-7.99-8.09-13.27-6.29-7-13.01-14.52-16.22-23.15-.04-.35.07-.72,0-1-2.85-1.99-4.85-4.33-6-7-.32-.33-.67-.7-1-1-3.38-.49-4.72-1.82-4-4-1-1.94-2.44-2.77-4-1-.13,1.18-1.14.68-2,0-.59-1.01-1.27-1.66-1-3,1.33-.03,2.67.02,4,0Z"/>
  <path class="cls-33" d="M664,98c1.17,1.69,2.45,1.47,2,0-.42-4.51,10.53-2.24,12.5-2.15,2.12.1,4.61-1.65,7.5.16.94,3.39-3.06,3.95-2.99,6.98,1.93.64,3.63-.77,5-1-.11-1.46,1.5-1.15,2.7-.76l.3-1.24c1.48-.57,3.69-3.83,5-4.5,3.28-1.66,13.44.38,18,.5,11.4,8-8.07,7.7-12.88,4.07,3.02,6.97-7.9,6.75-12.78,6.07-3.81,7.34-7.51,3.33-8.34-2.14-.95-.11-2.02.03-3,0l-2.13-.84c-.75-3.28-1.17-3.36-1.26-.26-5.31-.32-9.51.04-12.61,1.1-1.67,0-3.33-.01-5,0-2.37-.71-4.98-1.46-7.84-2.24-1.76,1.67-7.19,2.12-8.16.24-.03-.98-.2-.3,0-2,.57-1.29.9-2.63,1-4,.35-.35.5-1.19,1.45-1,3.1.89,22.42-1.85,21.55,3Z"/>
  <path class="cls-47" d="M529,432c4.72.52,10.18-.38,15,0-2.06,8,2.04,3.33,5.41,3.93.72.13.61,1.99,1.09,2.08,4.62.88,2.54-4.74,3.54-5.99.19-.23,5.76-.25,5.97-.03.19.19.19,4.55,0,5.37-.17.74-3.03.16-2.03,4.04.18.71,1.86.43,2.04,1.22.3,1.33-.34,5.06-.02,5.37.57.56,13.44-.02,16,0,.03,3.66-.03,7.34,0,11-6.79-1.63-14.63-9.6-21-11-1.52-.46-2.52-1.13-3-2-7.74-4.46-15.43-9.26-23-14Z"/>
  <path class="cls-47" d="M654,131c3.34,1.49,2.36,4.64,0,6.51,2.05-.11,2.82,3.5,2,4.49-1.73,2.09-2.08-2.21-2.49-2-.61.32-1.1,1.48-2.2,1.81-1.65.49-4.45-.21-5.2.29s-1.12,6.49-2.31,7.71c-1.31,1.35-3.61.07-3.75.21-.53.53-.3,3.16-.61,4.06-2.24,6.47-5.18,13.82-3.45,21.28.18.76,1.5.56,1.73.85.78.99.31,12.43.33,15.13,1,.34,2.02,2.31,2.17,2.38.37.19,1.22-.67,1.56-.47.19.11.14,1.13.99,1.65,2.69,1.62,7.83,2.79,8.22,6.09-4.8-.32-8.98-2.65-13-5-1.55-3.11-2.64-4.64-3-8.5-.46-4.79-.82-30.53.19-33.82.58-1.9,13.36-17.1,15.83-20.19.96-1.21,2.47-1.86,2.99-2.49Z"/>
  <path class="cls-43" d="M751,143c1.48.07,2.07,1.05,1.78,2.94,23.56-.96,55.58,19.24,39.22,45.06-1.76,2.16-3.34,7.22-7,5,6.46-5.66,8-16.12,5.5-24-5.08-16.04-24.41-21.03-39.5-21-.66,0-1.35-.05-2,0-3.86.26-3.8-6.13-1-8,.04-.66-.03-1.34,0-2,.09-2.65.76-4.31,2-5-.31,3.73-.1,4.53,1,7Z"/>
  <path class="cls-33" d="M616,96c2.92,1.13,5.58,2.47,8,4,.09.23.92.52,1.05,1.58.19,1.56-1.04,2.29-1.05,2.42-1.14,1.85-1.67,1.76-3,0-12.13.54-24.78-.16-37,0-3.7-1.48-3-3.54,2.12-6.19l1.88-1.81c3.11-1.26,12.85-1.45,16.53-1.04,2.47.28,3.86,1.72,5.14,1.9s2.32-1.69,3.92-1.93c1.51-.22,2.28,1.06,2.41,1.07Z"/>
  <path class="cls-33" d="M797,96c5.54,1.92-.72,4.43-4.25,3.94-2.3,2.04-5.21,3.39-8.75,4.06-3.43.14-24.85.6-26,0-1.42-.25-2.09-.91-2-2-.29-.15-.65-1.53-1-2-.53-2.47,2.26-2.78,8.35-.91l.65-1.09c-.3-1.69,3.06-2.9,4.45-3.05,8.84-1,19.77.46,28.55,1.05Z"/>
  <path class="cls-47" d="M845,204c6.07,2.02,9.82,1.81,16,2,2.18,1.13.96,1.49-1,2-4.61.12-9.43-.31-14,0h-6c-1.32-.09-2.7.14-4,0l-.46-3.03c-2.56-2.47-.8.61-2.04,2.03-1.9-1-.99-3.83-1.78-4.78-.16-.19-4.85-1.29-.4-2.22,1.19-.25.84-1.82.67-1.99-.23-.23-3,1.45-5.06-.49-1-.94-.01-2.7-.6-4.24-.7-1.84-3.77-3.47-5.71-3.26-.26.03-1.69,4.56-3.61.48-.94-2,1.38-1.33,2.24-1.48,1.5-.25.57-1.83.74-3.01l-2.99.99c1.29-2.15-1.28-3.26-1.07-5.45.14-1.54,2.22-2.66,1.94-3.87-.65-2.78-1.34-3.64-1.87-7.68,2.39,4.42,3.34,9.22,5.83,13.67,5.03,9.04,13.28,17.03,23.17,20.33Z"/>
  <path class="cls-47" d="M304,104c1.55-1.82.51-2.72-1.49-3.01-6.01-.9-6.29-.65-12.13-2.92-1.43-.56-2.94,1.01-2.39-2.06,3.94-1.68,5.31,1.93,5.63,2.01,1.23.29,9.69.15,10.18-.27.41-.35-.27-2.46,1.67-1.73,1.63.61.45,2.73,1.47,3.45,4.5,3.18,10.81,3.08,16.04,2.04-1.77-3.05-9.92-.63-11-1.51,1.82-3.83,7.91-1.19,11.36-1.98.8-.18-.25-2.76,5.17-2.06,4.2.54,5.63,3.93,6.18,4.05.99.21,3.03-.24,3.28,0,.35.32-.41,3.6.02,3.99.36.33,5.46-.45,5.98,3.02-12.48-5.82-26.85-3.66-40-3Z"/>
  <path class="cls-47" d="M892,124l2.99-2.99c1.01,1.98.52,5.13,1.3,6.76s5.23,1.54,2.7,5.24c5.58-.63,5.93,6.42,5.02,10.37-.18.8-1.87.48-2.03,1.27-.3,1.45.27,3.25,0,4.85s-1.73,2.58-2.04,4.96c-.83,6.32.06,4.47,3.02,6.06,2.54,1.37-.37,2.86-.76,4.21-1.06,3.7-.16,5.9-2.74,10.26-1.66,2.8-1.35-2.31-3.47-.97,3.26-18.05,5.12-27.57-2.13-45.41-.47-1.15-1.74-2.23-1.87-2.59-.17-.47.12-1.39,0-2Z"/>
  <path class="cls-47" d="M714,96c1.99.05,4.01-.04,6,0,.77.72-2.06,5.02-2,6l-29.82,6.72-2.18,3.28c-.83-.22-1.84-1.74-2.48-1.73-.87.02-2.9,2.6-6.88,1.74-.84-.18-.46-2.79-2.63-2.01,2.51-1.52,8.35-3.85,6-6,3.18.37,2.5,1.73,3.01,5l3.99-2.01-2.99-1c-.28-1.27,1.9-1.64,2.73-1.76,5.67-.81,8.57,3.95,13.34-.81-.43-2.16-1.11-3.13-3.07-3.92l6.52-2.5.48,2.99c1.98.28,4.54-.43,6.37,0,.81.19.52,1.65,1.11,1.81,1.15.32,6.23.28,5.03-1.8s-4.88-1.21-2.51-4Z"/>
  <path class="cls-47" d="M528,108c.03-.58-.52-1.54-.49-2.46.23-5.91.52-3.61,3.71-4.77,1.25-.45,1.78-1.54,2.28-1.77.79-.37.23,1.12.81,1.63,1.17,1.03,2.75,1.45,3.73,2.83,1.56,2.18.74,5.15,4.97,4.55-2.82,4.18.9,3.94.98,4.61.42,3.42-1.77,8.61,4.01,9.39.45,1.83-2.6-.04-1.96,2.45.65,2.55,8.07,6.35,2.97,8.04,1.61,2.81,5.69,2.69,5.02,6-.07.36-3.26-.02-1.91,4.89.53,1.94,5.63.79,5.86.58.74-.67-1.55-4.93,2.03-3.97l-2,9.48,2-.49c.81,3.23-2.21,4.93-1.99,8.01-.25-.56-1.37-1.43-1.88-2.58-7.51-16.89-14.83-33.87-22.24-50.8-3.31-4.87-3.63,2.59-5.88,4.38Z"/>
  <path class="cls-47" d="M526,114c-3.19,7.82-7.71,15.48-11,23-1.09-1.47-2.88-.04-3.06-2.44-.27-3.5-.73-5.28,3.07-4.57-1.28-1.73-.62-3.71-1.03-5.31-.23-.9-1.82-.58-2-1.28-.99-3.88,1.86-3.28,2.03-4.03.47-2.08-.34-5.09,0-7.36,3.62-.85,1.33,3.15,2,4,2.27,2.89,1.91-3.74,2.09-3.91.13-.12,2.83-.85,3.46-1.01.27-.07,1.5,4.18,4.44,2.92Z"/>
  <path class="cls-47" d="M890,187c.59,3,3.47.66,4,.99.11.07.99,2.38,1,2.51,0,.81-2.49,1.2-2.81,1.66-.78,1.14.32,3.93-.24,4.78-.67,1.03-6.23.01-6.97.57-1.49,1.13-1.36,3.57-2.25,4.27-.26.2-3.98,1.66-4.72,2.22-.45,1.5,1.5.75,1.99,1.99-1.5,2.5-5.37,2.75-8,2-1.9.19-4.03-.07-6,0-1.02-.46-2.02-1.13-3-2,5.68-2.16,10.99-3.8,15.92-7.58,2.92-2.24,9.05-8.45,11.08-11.42Z"/>
  <path class="cls-47" d="M832,111v-7c.53-.56,7.38,1.9,9-.03.26-.32-1.9-6.98.51-7.96,1.91-.78,1.15,1.71,2.16,1.99,6.52,1.76,11,.12,17.12,1.78,1.14.31,2.38.03,3.21.23-.19-.19.11-2.19,0-3l5,1c.03,1.95-4.44,2.55-5,1.99.11.03.31,1.3,1.45,1.54,1.98.41,8.43.01,9.37.64l5.18,7.81c-14.5-11.41-33.87-10.51-48,1Z"/>
  <path class="cls-47" d="M458,204c-5.11-.27-2.91,4.07-4.5,3.98-.62-1.96-5.05-1.49-5.44-2.04-.61-.87.39-6.61-.07-6.94-.08-.06-1.16.79-1.99.4-.73-.35-1.21-1.34-2-1.74-.63-.33-1.61.12-2.04-.15-1.3-.8.42-2.46-.84-4.03-1.99-2.49-4.83-.82-7.07-4.24s-2.49-5.16-2.05-9.24c-2.36,1.81-6.56-2.06-7.53-4.01-1.24-2.49,1.74-6.51-2.46-7.99l-2,4c1.2-2.77-3.59-3.54-1.99-5.96.52-.78,5.52.17,3.98-4.03l-4.99,2.99c-.55-2.81-2.57-4.63.99-5.49-1.59-2.6-3.24-.39-5.4-.56-1.28-.1-2.63-.8-4.09-.97-1.32-.15-5.19.28-5.51.01-1.31-1.12-.16-1.92,1.48-2,3.16-.16,6.36.12,9.51,0l-2-3.99c9.94,1.3,14.5,18.4,19.19,26.31,6.41,10.82,15.22,20.41,26.81,25.69Z"/>
  <path class="cls-47" d="M799,144c.33-.03.67.04,1,0-3.38,7.53,1.98,7.91,5.09,11.48.94,1.07.14,2.74.85,3.84.46.71,1.89.52,2.07,1.32,1.1,4.94-2.04,4.43-2.04,4.87.03,1.81,2.73,3.9,2.1,9.07-.25,2.02-1.88,1.18-2.08,2.06-.36,1.57.22,3.67.02,5.37,3.91-2.5,5.77,2.22,2.01,4.41-.86.5-2.87-.19-3.8.78-1.46,1.52-2.07,5.9-6.21,6.81,11.2-16.71,10.61-38.06-7-50,2.92.34,5.13.26,8,0Z"/>
  <path class="cls-47" d="M566,176c2.17-.74,1.72,1.76,2.69,1.98,1.66.39,3.56-.23,5.31,1.03l2-3c1.53,3.52-2.01,4.25-2.04,4.52-.27,2.13,1.71,3.18,2.03,5,.26,1.48-.25,6.3.01,6.48.37.26,2.29-.26,3.31,0,.92.23.55,1.86,1.33,2.02,1.8.39,6.66-.95,7.36,1.49.17.61.36,2.38-.5,2.5-1.81.24-6.03-1.35-3.5,2-1.42-.58-5.05-1.36-6-2-2.61-1.77-11.5-18.68-12-22Z"/>
  <path class="cls-47" d="M624,104c-.22,2.9,0,10.9-4.42,10.98-3.76.07-4.51-3.36-7.58,2.52,3.01,3.39,6.7.34,8.99,4l-4.99,1.5,1,2.99c-2.04-3.01-6.36-6.6-6.96-10.54-.71-4.67.41-5.93,3.96-8.46,1.57.51,5.06-.36,7.01,0v-3c.67-.03,1.78-1.3,2.99,0Z"/>
  <path class="cls-47" d="M256,194c-.28,1.18-.72,2.28-1.07,3.44,0,.97,1.75.39,2.07.56.45.24-2.32,7.78-1,10-3.87,1.79-9.33-2.23-11.5-2.05-.39.03-.85,4.05-2.51,2.04-.37-.45.24-4.71,0-6,.23-.13.66-1.31,1.61-1.84,3.96-2.25,8.01-4.77,12.39-6.16Z"/>
  <path class="cls-47" d="M640,102c1.61-.26,4.62.6,5.79-.28.49-.37-.17-2.71,3.62-1.74.71.18.43,1.85,1.22,2.04,2,.47,6.04-1.57,5.37,1.99-4.99.04-10.01-.03-15,0-.19,3.74,4.66,2.98,7.55,3.95,9.82,3.27,8.26,11.62,3.87,18.97-3.32,5.56-8.38,10.26-12.42,15.08-4.63-.61-2.08-4.58-2-8.01,3.92,1.53,2.19.67,4.12-1.35.75-.79,3.61-2.62,3.73-2.82.47-.77-.82-2.18-.67-3.2.37-2.56,4.64-2.99,6.81-2.63.3-1.97-2.34-.55-3.01-1-.78-.52,1.19-5.46,2.51-5.98,1.05,0,1.36,4.93,3.51,2.47-.76-10.1-3.45-6.24-10.41-7.42-1.12-.19-.25-2.68-1.59-3.59-.82-.56-2.6-.24-2.9-.56-.44-.47-.06-4.53-.11-5.9Z"/>
  <path class="cls-47" d="M808,96c1.14.08,1.78.62,1.34,1.57-1.45,3.17-2.05,5.81-1.34,9.43-.05.2-.06.92,0,1,.15,5.04-6.01.91-6.45,1-1.04.22-1.9,3.59-3.55,4,.83-1.93,5.69-14.25,5-15-4.37.99-7.36,4.54-11.94,5.55-2.59.57-4.57.34-7.06.44-.52-3.57,3.1-1.07,5.61-2.95,1.73-1.3.29-2.91.39-3.04.17-.22,4.3.03,5.52,0,2.48-.07,3.26.68,1.49-2,4.1.28,6.85.64,11,0Z"/>
  <path class="cls-47" d="M346,108l.99-1.98,7.01-2.01c-1.77,2.26-2.74,4.41-1.88,7.41.54,1.88,2.44.69,2.94,1.09.97.78.63,2.36,1.22,3.22.68.98,4.65,2.66,5.71,4.79,1.24,2.48-3.56,1.1-4,1.49-.5.43-.1,12.19.47,13.11s4.67-.67,3.53,3.89c-6.57-1.22-4.23,1.51-6.5,4.04-.95,1.05-2.19.74-2.49.97,3.98-8.6,6.07-16.28,1.87-25.37-1.53-3.31-5.89-8.7-8.87-10.63Z"/>
  <path class="cls-47" d="M464,195c.89-.74,5.31,0,5.79.31.36.23.47,1.57,1.29,2.11,1.61,1.06,3.81,1.88,5.43,3.57l1.5-4.99,4,2c-.84-2.05.81-4.48-1.99-4.01.69-2.72,3.41-1.6,5.34-1.98.63-.12,1.14-4.1,2.65-2.01.36.5-.8,2.39.99,1.99.77-2.26,1.55-10.66-.23-11.83-1.56-1.03-3.6,1.56-2.76-4.17,1.04.82,3.78-.08,3.89.08.49.74-.11,3.12,1.61,3.91,4.26-1.52.58-5.18,6.51-3.99-1.41-4.21-1.55-7.85-2.01-11.99,1.14-.23,4.61.32,5-.01,2.69-2.28-4.98-1.36-3-3.99,6.45,1.32,3.09-3.07,3.99-4.01.31-.33,3.64.34,4.02,0,.45-.4-1.38-10.08,0-11.99,2.72.92.5,6.18,4.99,3-7.74,17.34-14.79,43.04-31.32,53.22-1.99,1.22-3.26-.2-2.49,3.01.11.44.76.59.82.77.31,1.03.46,2.03,1,2.99-3.97,1.01-9.81,2.52-13-.99,2.9.44,6.37-.25,9.49,1.01.86-.05.65-1.68.53-2.52-.06-.43-5.92-3.23-7.5-4.51-1.9-1.53-3.01-3.29-4.52-4.99Z"/>
  <path class="cls-47" d="M363,104c-.4,3.54-.12,2.42,2.19,3.26,5.89,2.14,10.05,3.73,10.81,10.74-5.05,2.08-4.2,3.86-4.01,9-4.1-2.17-1.43-9.01-1.98-12.44-.06-.38-1.83-4.4-2.03-4.55-2.07-1.54-1.82,1.86-2.6,2.03-.9.19-7.1.21-7.38-.04-2.6-2.37,5.18-2.91,6-2-2.1-3.16-5.19-.48-3.99-6,1.28,1.01,2.22.04,2.99,0Z"/>
  <path class="cls-47" d="M578,96c2.59.59,5.26.92,8,1,.64-.3,1.1-.64,2-1-.55,3.02,1.53,1.93,3.47,2,4.6.15,14.23-.9,17.85.19,1.38.41,3,2.17,2.68,3.81-3.48,1.01-5.49-1.71-8.44-2.05-4.6-.53-13.27-.26-18.09.05-2.86.19-1.04,2.46-1.47,4-2,.03-4-.04-6,0,.69-3.21-.76-4.86-2.01-7.49-.04-1.04,1.32-.28,2.01-.51Z"/>
  <path class="cls-47" d="M444,166c2.25.24,3.09-1.25,4,1.48,1.67,4.98,3.86,2.49,5.51,2.57s.68,2.71.84,3.25c.33,1.12,1.28,1.79,1.51,3.19.22,1.3-.61,3.82.14,5.52,2.34,1.51,2.03-4.11,3.99-2,.34.37-.23,4.74,0,6l1.99-1.01c1.1,1.87-.99,5.08,1.3,5.03l-1.29,1.97c-6.83-8.55-11.57-17.48-18-26Z"/>
  <path class="cls-33" d="M816,116c-.31-.14-3.79-5.35-3.88-5.69-.13-.5,1.08-9.89,1.35-10.34.79-1.34,2.27-1.34,3.06,0,1.41,2.38-.08,8.48.41,11.5.19,1.19,2.56.23,3.06.53,5.53,1.62,6.87,4.29,4,8-.02.35.08.74,0,1-5.2,3.12-7.02.46-8-5Z"/>
  <path class="cls-47" d="M401,198c2.42-.94.91-4.4,3.99-5-.5,1.46,1.32,2.18.56,3.03-.83.94-2.83.41-2.55,1.96,5.46-1.34,7.51-2.99,13,.02.43,4.61-4.26,1.36-5,2,.84,1.03.73,3.36,1.2,3.85.18.18,5.24.14,2.79,2.14-1.54,1.26-4.81-.3-6.37-.05-.78.12-.45,1.89-1.25,2.07-1.35.31-4.31.09-5.91-.01-2.85-.19-1.03-2.47-1.46-4,1.57,0,8.66.29,9,0,.11-.1.12-2.9,0-2.98-.21-.14-4.12-.88-5-1.02-.33-.05-.67.05-1,0-1.86-.47-2.53-1.13-2-2Z"/>
  <path class="cls-47" d="M617,187c-2.21-9.27,3.38-21.77-2.5-30-.76,2.71-1.82,2.09-4.5,1.99-.31-.26,2.88-4.1,2-4.99-1.96-1.99-2.08,4.06-3.99,1.99-.23-.25-.14-3.2.3-3.8.33-.44,2.29-.5,1.65-3.56-.16-.79-1.64-.39-1.94-1.38-.25-.84.18-1.91-.3-3-.6-1.33-4.96-2.74-5.84-3.71-.29-.32-.36-3.36-2.58-4.59-1.23-.68-2.97-.03-3.12-.22-.53-.66.6-2.29-1.66-1.74-.96.23-.37,1.21-.51,2.01-3.89-2.35-2.53-5.7,2-3,.85-3.7-1.15-2.62-2.51-3.94-2.51-2.42-1.16-5.07-1.48-8.06,1.65.57,2.3,1.98,3.22,3.28,7.66,10.73,14.84,21.82,22.33,32.67.12,8.66,1.36,19.18.51,27.66-.16,1.62-1.04,2.26-1.06,2.39Z"/>
  <path class="cls-47" d="M241,96c2.2.56,5.15,1.53,6.68,1.87,1.28.28,2.26-1.92,3.66-1.75,1.26.15,2.5,1.96,4.15,1.93.78-.02-.27-2.28,2.51-2.05.16,4.65-1.66,6.89,4,6,.96,2.73-1.81,1.57-2.04,2.58-.9,4.04,3.29,2.99,2.04,7.42l-5-2c.03-1.29-.17-2.8,0-4-2-3.05-3.46-4.85-7-4-2.98-1.69-6.96-3.6-9-6Z"/>
  <path class="cls-47" d="M672,111c1.02,3.68-1.73,2.73-1.99,3.01-1.47,1.61.89,1.93,2,2.48l-1.02,2.51c-6.38-5.28-1.86,4.22-3,4.98-.93.62-7.1-.64-4.99,4.01l-6-.99c5.78-6.96,6.72-10.56,15-16Z"/>
  <path class="cls-47" d="M719,104c.05.24,1.5,1.33,1.06,2.4.6,26.68-.96,53.51-.13,80.17.02.73-.07,1.33.79,1.45l-.71.98c-.07-.31-1.45-1.36-1.06-2.4l.06-82.6Z"/>
  <path class="cls-47" d="M369,199l-.5-3.01-3.5.51c5.83-1.83,4.39-16.78,5-17.5,1.12-1.31,1.92-.16,2,1.48.19,3.82-.14,7.7,0,11.51l4-2c-.67,4.97-2.6,6.97-7,9Z"/>
  <path class="cls-47" d="M376,188c1.26-20.13,1.26-48.87,0-69v69Z"/>
  <path class="cls-47" d="M816,116c.37.16,1.62-.34,1.91.05.57.77-.29,3.54.09,3.95.21.23,4.83-.4,6,1-.41,1.44-3.2,5.11-4.18,7.32-1.4,3.16-2.18,6.66-3.82,9.68.03-.66-.02-1.33,0-2,.06-2.66.02-5.34,0-8,.5-1.49.5-3.16,0-5,.15-2.31-.1-4.68,0-7Z"/>
  <path class="cls-47" d="M586,201c.17-.48,7.24-2.02,7.99.51,1.43,4.8-5.69,2.13-5.99,2.49.95,5.47-1.57,4.25-6.26,3.77l-5.74-3.76c1.79-.03,9.64.32,9.96-.07.41-.5-.19-2.26.04-2.93Z"/>
  <path class="cls-47" d="M625,137c2.64-1.42,6.84-.24,7.52,2.9s-2.54,2.99,2.99,6.1c.19.1.79-3.32,3.49-2-1.77,2.07-3.38,4.23-5.5,5.99-2.73-3.34-5.1-6.94-7.56-10.47-.63-.91-.67-2.14-.94-2.52Z"/>
  <path class="cls-47" d="M344,151c.05,1.83,1.16,4.77,2.05,6.26.77,1.28,2.66.05,1.94,2.74-1.03.95-5.62-2.05-6.54-2.98-1.23-1.24-1.21-2.71-1.47-3.01-.07-.08-2.02-.4-2,.51.05,1.91,2.38,2.38,2.01,4.48-4.8,2.43-3.69-.79-4.62-1.01-2.33-.56-7.95.43-11.87-.03-1.91-.22-4.06,1.24-3.51-1.96,2.4-.13,4.04-.91,5-1,7.8-.76,11.52-.31,19-4Z"/>
  <path class="cls-47" d="M756,102c.42.21,1.69-.25,2,0,.17.14-.15,1.92,0,2-2,.7-1.92,2.53-2.33,4.17-1.21,4.81-2.69,10.15-3.67,14.83-1.3-3.25.76-7.39.85-10.5.05-1.75-1.34-3.77-.9-5.9.23-1.14,2.55.27,2.06-2.1-.24-1.15-2.01.12-2.01-1.01-.02-2.82,2.32-1.11,4-1.49Z"/>
  <path class="cls-47" d="M270,102c1.56.27,4.76-.6,5.81.27.37.3-.04,1.77.69,1.76,1.84-.02,4.63-2.74,10.07-2.1,2.02.24,1.17,1.88,2.06,2.08,2.54.59,6.55-.42,9.36-.01-6.71.36-13.41,1.3-20.51,1.01-2.29-.09-4.53-1.59-6.93-.97-.97.25-2.09,1.6-.57,2.47,3.69,2.1,6.64,1.66,10.01,5.49-3.25,1.46-4.15-1.86-4.73-1.98-.97-.19-2.33.3-3.09-.24-.55-.4.26-1.48-.69-1.78-3.13-.99.38,5.22-3.49,4.01l-1.02-8c4.11.58,2.47-.8,3.01-2.01Z"/>
  <path class="cls-47" d="M302,192c1.48.29,4.96-.52,5.89.11.66.45.45,3.74,1.75,3.94,1.46.23,5.91-.43,6.36-.05,2.09,1.74-2.21,2.07-1.99,2.49,3.84,2.32,6.16,2.35,6.01,7.5-4.76.09-11.19,5.77-13.01-2,1.81,0,10.59.35,11,0,.11-.1.13-2.91,0-2.99-.17-.11-2.86-.14-4.03-.46-3.83-1.05-10.95-4.47-11.97-8.55Z"/>
  <path class="cls-47" d="M363,204c-1.1.07-1.96.84-2.55.94-.28.05-.82-3.4-4.46-1.94-.72-4.28,2.77-7.73,7.01-7.01l2,4.01c-1.83.8-2.44,1.98-2,4Z"/>
  <path class="cls-47" d="M831,112c-2.47,2.32-4.04,6.31-7,8,.29-5.01-.97-3.96-3.7-6.34-.51-.44-.22-1.61-.3-1.66h11Z"/>
  <path class="cls-47" d="M303,156c2.17,4.71-.02,3.27-.72,4.21-.9,1.19-.56,26.18-.28,29.79-1.69-.98-.99-3.83-1.01-5.5-.09-9.5.08-19.02,0-28.51.66-.04,1.33.04,2,0Z"/>
  <path class="cls-47" d="M616,192c-1.32,4.12-2.55,4.22-6,6,.69-6.61-5.57-2.53-6-3s.18-2.05.98-2.54c.89-.55,9.1.13,11.02-.46Z"/>
  <path class="cls-47" d="M369,104c2.83,1.2,3.01-1.89,3.64-2.01,1.26-.24,6.47-.25,7.14.29.3.24.09,1.56.85,1.73,2.78.65,7.28-.46,10.36-.01-8.65.49-13.29.47-22,0Z"/>
  <path class="cls-33" d="M884,205c1.84.18,10.76-1.19,9.99,2.49-.5,2.38-12.03,3-9.99-2.49Z"/>
  <path class="cls-33" d="M808,107l-3-3.01c-.56-1.72,2.22-.47,2-1.48-.49-2.18-2.87-2.54-3.01-3.01-.91-3.18,5.05.44,4-3.49.19-.03,2.44-2.15,3,.52.23,1.1-1.51,2.82-1.81,4.17-.5,2.26-.53,3.85-1.19,6.31Z"/>
  <path class="cls-47" d="M884,114l4-2c-.06,3.42-2.38,3.73,1.52,5.01.72.24.1-2.14.98-2.01,3.15,2.79,4.09,4.51-.5,6-1.27-1.79-4.4-5.36-6-7Z"/>
  <path class="cls-47" d="M910,167c-.21,3.97,1.65,9.76-3.99,8.99.29-4.53-1.95-8.92,3.99-8.99Z"/>
  <path class="cls-47" d="M259,196c2.38-1.49,2.7-5.06,6.47-3.97,3.4.98-1.41,5.38-2.47,5.97-3.18,1.79-4.58,1.85-4-2Z"/>
  <path class="cls-47" d="M752,98c1.69-4.41,7.33-2.82,10,0,.67,0,1.33,0,2,0,.04.25,1.35.99,1,1.99-2.61.71-5.34-.83-7.56-.87-1.2-.02-1.95.82-2.44.88-.97.12-2.02-.07-3,0,.08-.56-.17-1.85,0-2Z"/>
  <path class="cls-47" d="M559,160c3.67,1.49,4.06,3.63,5.33,7.25,1.39,3.96,1.58,3.29,1.67,7.75-3.27-4.39-4.79-10.03-7-15Z"/>
  <path class="cls-47" d="M577,107c.57-1.72,4.31-1.18,4,1,1.71.84,2.87,2.97,4,4h-9c-1.24-2.6,4.17-1.92,1.99-4-.32-.31-1.37,1.79-2.99-1,.65.07,1.38-.1,2,0Z"/>
  <path class="cls-47" d="M650,204c-1.49.62-4.44,3.94-5.44,4.07-4.46.56-5.11.3-4.56-4.07h10Z"/>
  <path class="cls-3" d="M270,206c.98-1.29,3.89-1.42,5,0,1.54-.13,3.5-.51,4.99-1v3c-4.32-.54-10.33,1.23-13.99-1-1.44-1.21-.93-2.63,1-2,.86.62,1.99.77,3,1Z"/>
  <path class="cls-47" d="M616,96c4.86.39,6.04-1.14,8,4-1.59-.26-4.66.6-5.78-.28-.54-.42-.09-2.75-3.6-1.72l1.38-2Z"/>
  <path class="cls-47" d="M750,136l-2,5c.09-2.48.08-5.03.01-7.52-.09-3.58-2.68-4.58,2.99-6.48-.47,2.52-.78,6.33-1,9Z"/>
  <path class="cls-47" d="M608,204c-.9.89.21,3.9-.5,4-1.98.3-4.42-.21-6.49,0-.43-.41,1.08-2.98,1-4h6Z"/>
  <path class="cls-47" d="M350,147c2.89.34,2.31,8.63,2,9-1.18,1.4-1.91.09-1.99-1.53-.15-3.29.63-3.39-3.01-4.47.35-.23,1.77-2.04,3-3Z"/>
  <path class="cls-33" d="M752,98c-.22-3.69-.42-2.64,2.49-3.04,3.39-.47,6.57-1.33,7.51,3.04-5.24.06-3.42-1.88-5.47-2.06-3.15-.27-1.95.88-3.16,2.08-.29.28-1.17-.19-1.38-.01Z"/>
  <path class="cls-47" d="M368,204c3.14,5.6-2.53,5.1-6,2.5l2-2.5c1.33-.05,2.67.01,4,0Z"/>
  <path class="cls-33" d="M586,97c-.25.12-.43.83-1.47,1-2.48.39-7.65.84-6.53-2,3.39-1.15,4.74-1.93,8,1Z"/>
  <path class="cls-47" d="M620,130c2.28,1.07,2.05-3.91,4-2,.35.35-.23,6.51,0,8-1.36-1.93-2.68-4.06-4-6Z"/>
  <path class="cls-47" d="M465,206c-.98,3.16-7,2.57-8,.5l2-2.5c1.62.21,4.8,1.82,6,2Z"/>
  <path class="cls-47" d="M543,204c-.32,3.42-2.48,4.11-5.48,4.03-1.67-.04-2.74-1-1.51-2.03,2.09-1.75,3.87,1.82,4-2.01h3Z"/>
  <path class="cls-47" d="M442,98c.63,5.5-5.62,5.5-4.99,0h4.99Z"/>
  <path class="cls-47" d="M748,143c-.17,2.95-2.99,6.23,1,8-.45.04-1.25,1.29-2.03.59-1.16-1.04-1.13-4.06-2.97-5.09,3.06-.41.01-3.62,4-3.5Z"/>
  <path class="cls-47" d="M261,98c1.12-2.75,5.77-3.33,5,0-3.35-.68-1.39,4.35-6.01,1.99-.4-.98.96-1.73,1.01-1.99Z"/>
  <path class="cls-47" d="M592,120c-2.34-.36-7.96-4.67-6-7,1.77,1.8,5.27,4.24,6,7Z"/>
  <path class="cls-47" d="M568,160c.14.14.14,3.85,0,3.99s-3.85.14-3.99,0-.14-3.85,0-3.99,3.85-.14,3.99,0Z"/>
  <path class="cls-47" d="M896,175c-.66,5.01-1.94,5.21-2.03,5.62-.78,3.51,3.64,7.8-3.97,5.38,2.36-3.76,3.75-7.33,6-11Z"/>
  <path class="cls-47" d="M352,98c.14.14.14,3.85,0,3.99s-3.85.14-3.99,0-.14-3.85,0-3.99,3.85-.14,3.99,0Z"/>
  <path class="cls-47" d="M694,204c2.71,5.95-4.6,4.03-5,0,1.66.03,3.33,0,5,0Z"/>
  <path class="cls-47" d="M396,194c2.27,1.07,2.06-3.92,4-2,.31.31-.2,4.76,0,6-1.24,1.42-4.19.09-3-2-.96-1.06-.64-1.04-1-2Z"/>
  <path class="cls-47" d="M528,109c-.03.35.08.74,0,1-.24.79-1.63,2.09-2,3,.42-2.59-1.24-3.94-2.99-5.5,2.4-3.12,3.07-.67,4.99,1.5Z"/>
  <path class="cls-16" d="M400,198c.24.15.75-.15,1,0,.7.41,1.37,1.41,2,2-2.66-.38-5.39-.25-8-1.01l2-2.99c.5.55,2.2,1.51,3,2Z"/>
  <path class="cls-33" d="M863,206c2.33.08,3.45-.81,3,2-2.09.07-4.42-.04-6,0l1-2c.67.02,1.33-.02,2,0Z"/>
  <path class="cls-33" d="M880,206c1.17,2.96-6.3,4.18-8,2,2.84-.28,5.41-.83,8-2Z"/>
  <path class="cls-47" d="M760,176c.8,5.23-4.9,4.64-3.99,0h3.99Z"/>
  <path class="cls-47" d="M476,192c.04,4.39-3.37,1.68-6,1.99l6-1.99Z"/>
  <path class="cls-47" d="M654,193.99c-.71.2-9.86.53-7-1.99.38-.34,6.74-.58,7,1.99Z"/>
  <path class="cls-47" d="M641,96l4,3.99h-5c.21-1.8-.57-2.4,1-3.99Z"/>
  <path class="cls-47" d="M346,96c2.5,2.54-5.63,2.36-5.99,1.99-2.5-2.54,5.63-2.36,5.99-1.99Z"/>
  <path class="cls-33" d="M846,208c-.14,0-1.01,1.01-2.49,1.11-2.12.15-3.28-1.1-3.51-1.11,2.3-1.29,4.17-2.83,6,0Z"/>
  <path class="cls-47" d="M572,206c2.5,2.54-5.63,2.36-5.99,1.99-2.5-2.54,5.63-2.36,5.99-1.99Z"/>
  <path class="cls-47" d="M556,206c3.13,2.69-6.29,2.03-6.99.99l6.99-.99Z"/>
  <path class="cls-47" d="M494,206c2.5,2.54-5.63,2.36-5.99,1.99-2.5-2.54,5.63-2.36,5.99-1.99Z"/>
  <path class="cls-47" d="M300,206c2.5,2.54-5.63,2.36-5.99,1.99-2.5-2.54,5.63-2.36,5.99-1.99Z"/>
  <path class="cls-47" d="M880,98v3.99c-1.84.23-2.91.05-3.98-1.5,1.29-1.21,2.09-2.88,3.98-2.5Z"/>
  <path class="cls-33" d="M816,123l1.99,1h-2c.45,1.26,4.44,4.24,0,4-.01-2.04-.16-2.52,0-5Z"/>
  <path class="cls-47" d="M542,96c1.31,6.16-5.65,1.65-3.99,0,.24-.24,3.03.14,3.99,0Z"/>
  <path class="cls-47" d="M622,206.01c-.76,3.3-8.31,2.35-6,0,.3-.31,4.76.2,6,0Z"/>
  <path class="cls-47" d="M274,204l1,2c-2.28.19-2.71.53-5,0-.11-.62.17-1.5,0-2h4Z"/>
  <path class="cls-47" d="M508,208c-6.17.47-5.3-1.84,0-3v3Z"/>
  <path class="cls-47" d="M534,96c1.53,1.54-2.92,4.16-3.99,1.49-.91-2.28,3.8-1.68,3.99-1.49Z"/>
  <path class="cls-47" d="M656,206c-.62.62-6.03.13-3.99-1.99,1.82-1.9,5.4.58,3.99,1.99Z"/>
  <path class="cls-47" d="M721,206c2.72,2.75-6.72,2.75-3.99,0,.14-.14,3.85-.14,3.99,0Z"/>
  <path class="cls-47" d="M691,100l.99.51c.59,2.55-1.98,1.16-3.99,1.49-.65-3.32,1.63-1.47,3-2Z"/>
  <path class="cls-47" d="M672,120c.14.14.14,3.85,0,3.99-2.75,2.72-2.75-6.72,0-3.99Z"/>
  <path class="cls-47" d="M515,138c-.69,1.57-1.52,2.92-2,4-1.8-2.26-.82-3.97,2-4Z"/>
  <path class="cls-47" d="M484,182c.14.14.14,3.85,0,3.99-2.75,2.72-2.75-6.72,0-3.99Z"/>
  <path class="cls-47" d="M356,192c2.72,2.75-6.72,2.75-3.99,0,.14-.14,3.85-.14,3.99,0Z"/>
  <path class="cls-47" d="M267,205l-1,2c-2.51-1.53-3.01-2.52-.02-4-.01.79.39,1.55,1.02,2Z"/>
  <path class="cls-47" d="M384,206c2.72,2.75-6.72,2.75-3.99,0,.14-.14,3.85-.14,3.99,0Z"/>
  <path class="cls-47" d="M636,206c2.72,2.75-6.72,2.75-3.99,0,.14-.14,3.85-.14,3.99,0Z"/>
  <path class="cls-47" d="M552,432c2.72,2.75-6.72,2.75-3.99,0,.14-.14,3.85-.14,3.99,0Z"/>
  <path class="cls-47" d="M666,98c.05.51,1.4,1.66,1,1.99-1.15-.06-2.35.12-3.5.01-1.52-.15.46-1.79.5-2h2Z"/>
  <path class="cls-47" d="M656,198c1.49,1.5-1.62,2.49-2.99,3-1.28-2.67,1.77-4.23,2.99-3Z"/>
  <path class="cls-47" d="M272,200c-1.41,1.45-3.69.35-3,3-.37-.74-1.59-1.32-1-3,1.27-.12,2.87.23,4,0Z"/>
  <path class="cls-47" d="M395,190c-1.48-1.24-1.05-3.27-1-5,.02.27.76,3.74,1,5Z"/>
  <path class="cls-47" d="M546,474c-.13,3.7-.8,7.04-2,10-2.41,18.7-4.19,43.89-10.24,61.26-19.92,57.16-112.77,38.82-103.51-28.51,1.79-13,18.79-37.65,15.75-48.75-.91-1.63-1.02-2.57,1-2,3.21,2.78,5.06,6.01,5.03,10.5-.07,10.63-5.27,24.66-6.04,35.99-1.75,25.81,18.09,51.48,45.81,42.81,17.82-5.58,23.36-27.65,29.69-43.31,7.16-17.7,13.75-35.72,20.28-53.67-1.82-11.39-14.18.33-15.55,5.39-1.74,6.46-.28,16.27-6.22,21.28v-16c-2.07.35-8.33,3.01-8.86,4.64-.83,13.79,1.24,27.81-1.62,41.38l-4.52,8.98v-48c-4.83.5-8.19-2.22-8.92,3.56-2.21,17.54,1.61,39.04-.08,56.94-.51,5.41-4.39,13.11-5.04,4.03-1.24-17.45-.75-34.95-.97-52.53l-1.03-2.4c.28-7.14.09-9.68-.55-7.61-1.81-3.09-3.95-1.76-6.42,4-.07,6.42-.87,12.46-1.05,18.45-.44,14.99.42,30.06.05,45.05-.73,4.09-5.01,2.28-5.01.99v-72c0-1.21-7.27-3.89-9-3.5v71c-2.1-1.62-6.56-5.03-6.99-7.51l.03-69.83c-.18-.79-12.26-7.72-13.99-8.2-8.92-2.45-18.08,5.14-10.04,12.53,1.32.32,2.32.58,2,2-5.79,1.88-11.27,1.92-13.72-4.77-3.86-10.52,3.25-19.61,13.46-21.99,21.54-5.02,33.3,16.29,53.72,17.8,7.67.57,15.6-1.27,22.45-4.64,8.27-4.07,22.73-18.11,31.64-8.44,4.78,5.19.92,12.3.45,18.54-.16,2.16.1,4.35,0,6.5Z"/>
  <path class="cls-24" d="M482,482c.02-2-.02-4.01,0-6h8.01c.03,3.99-.05,8.02,0,12-3.04.55-1.92-1.53-2-3.46-.16-3.88,1.65-8.79-3-7.53l1.01,2.99-4.01,2Z"/>
  <path class="cls-23" d="M546,474c-.07,1.83.33,9.63,0,10.01-.14.17-1.44-.11-2,0,.4-3.11.88-6.2,1.2-9.33l.8-.67Z"/>
  <path class="cls-27" d="M447,466l-1,2c-.17-.61-2.79-2.19-2-4,2.17-.63,2.13,1.25,3,2Z"/>
  <path class="cls-8" d="M436,469c1.65-.15,3.62.16,4,1.99-.63.11-1.5-.16-2,0-.64-.69-1.31-1.36-2-2Z"/>
  <path class="cls-14" d="M555,448c-1.77-.39-3.57,1.12-3-2,.76.44,2.71-.03,3,2Z"/>
  <path class="cls-47" d="M210,115c-1.68-1.84-5.58,1.03-6.86,2.64-1.14,12.61,2.15,26.33-2.9,38.15-.64,1.49.63,2.72-2.24,2.21v-38h-7s-.99,54.51-.99,54.51c-1.29,4.14-3.62,2.97-4.06-.96-1.53-13.8.09-29.63-.96-44.04-.13-1.78.35-9.18.01-9.51-.3-.3-4.77.21-6.01,0l-1,59.01h-4v-61c-2.02.15-8-4.67-8-1.5v58.5c-2.74-1.48-4.94-4.26-5.03-7.47l-.15-57.36c-6.29-3.16-13.19-10.35-20.34-5.19-5.12,3.69-2.33,9.5,3.52,9.51-6.72,3.56-13.18,2.19-14.03-5.96-1.63-15.68,17.65-18.55,29.08-13.07,15.24,7.3,23.01,17.67,42.5,10.58,9.84-3.58,24.05-20.27,32.32-5.31l-7.96,60.66c-2.69,15.55-6.68,28.53-20.57,37.43-34.14,21.88-77.66-7.19-69.27-47.27,2.14-10.23,13.28-25.77,13-35.04-.09-2.83-1.91-4.84-2.05-7.53,11.12,6.59,4.4,20.75,3.08,30.59-1.63,12.19-2.56,22.92,4.1,33.72,10.7,17.34,34.53,18.83,46.65,2.03l26.94-67.05c1.67-7.47-2.13-9.74-7.7-4.7-4.98,4.51-5.37,12.06-7.09,18.41-.22,1.1-.82,1.67-1.88,1.62l-1.12-8.62Z"/>
  <path class="cls-3" d="M250,102c4.21-5.17,4.74-.81,6.37,1.69.26.4,1.69.2,1.7.92.02.85-1.06,1.28-1.07,1.39-2.1-1.74-4.67-2.68-7-4Z"/>
  <path class="cls-1" d="M210,115c2.61,2.86-1.05,7.74,3,7-.41,1.53-.07,5.56-1.99,6-1.02-4.28-1.21-8.59-1.01-13Z"/>
  <path class="cls-7" d="M113,196c2.37-.04,3.46-.68,3,2-1.36-.79-2.32-1.6-3-2Z"/>
  <path class="cls-47" d="M276,199l-4-1,.48-5.02c2.2-2.53.99.85,2.13,1.04s3.6.22,4.75-.02c.85-.17.47-2.78,2.64-2.01-1.14,3.68-2.18,5.4-6,7Z"/>
  <path class="cls-47" d="M266,102c.14.14.14,3.85,0,3.99-2.75,2.72-2.75-6.72,0-3.99Z"/>
  <path class="cls-26" d="M792,191c11.45-28.25-17.26-44.1-42-43-.51-1.41,1.34-4.22,1-5-.73-3.02,2.89-2.17,4.53-2.05,21.75,1.6,49.38,12.24,43.23,39.31-1.45,6.37-3.49,6.7-6.77,10.73Z"/>
  <path class="cls-48" d="M759,113c-1.83-1.79-.93-4.38.64-6.05,8.93-.26,17.99.49,26.91.09,2.18-.1,3.96-.9,5.94-1.07,2.47-.22.75,2.58.01,4.03-.84,1.65-.84,1.95-2.5,2.99-10.19,1.2-20.81,1.11-31,0Z"/>
  <path class="cls-6" d="M752,199c-1.18,1.26-7.05-5.37-7.55-6.94-.6-1.88-1.19-7.41,1.06-8.05,4.49-1.27,3.19,4.87,3.72,7.27.62,2.81,2.41,4.97,2.77,7.72Z"/>
  <path class="cls-47" d="M795,197c-.63.81-2.26,2.52-2.45,2.96-.39.93.61,4.36-.56,6.04-.33.4-3.03-2.7-4.5-2.67-.81.02-1.64,1.03-2.38,1.13-4.43.64-2.94,1.37-3.74,1.56-2.14.51-6.7-.07-9.36-.02l12.27-3.23,10.73-5.77Z"/>
  <path class="cls-30" d="M790,113c-.93.58-.74.88-2.4,1.06-6.52.69-19.51.51-26.2,0-1.55-.12-1.41-.08-2.41-1.05h31Z"/>
  <path class="cls-2" d="M712,107v84.5c0,1.69,3.05,5.32,4.5,6.5,1.17.96,2.83.62,2.5,2h-20c1.9-3.19,6.41-3.92,6.03-8.47-1.65-23.2,2.12-49.19-.01-72.05-.62-6.68-5.51-4.99-9.02-9.47l16-3.01Z"/>
  <path class="cls-33" d="M424,110c11.64,4.18,13.73,29.26,2,34-.39.38-3.77,2.91-4,3-1.01.37-6.02.95-7.46,1.05-6.66.44-13.82-.41-20.54-.05.06-9.22-.92-20.67-.02-29.52,1.12-10.9,9.52-13.56,19.27-12.23,2.4.33,8.91,2.4,10.75,3.75Z"/>
  <path class="cls-47" d="M394,107c.07.19,1.13.22,1,.94-5.59,2.21-7.59,4.51-8.05,10.52-1.74,23.24,1.41,48.6.01,72.07-.09,4.36,4.07,6.21,6.03,9.46-6.31.18-12.7-.23-19,0,2.51-4.23,5.49-2.88,6.02-8.48,2.19-23.5-1.71-50.22.03-74.07.55-5.13-3.28-6.36-6.05-9.45,6.75.49,13.31-.56,20-1.01Z"/>
  <path class="cls-40" d="M431,145c-1.45.99-1.95.58-1-1l-.51-1.37c6.63-9.95,5.68-24.28-3.56-32.3l.08-1.33c-.39-.24-3.24.5-1.49-1.01,17.24,1.83,25.78,24.74,10.44,35.48-1.56,1.09-2.77.97-3.95,1.53Z"/>
  <path class="cls-45" d="M430,144c.27,1.2-1.11,1.94-2,1l-2-1c6.92-6.68,8.11-19.52,3.21-27.71-.69-1.15-4.36-5.68-5.21-6.29l2-1c10.54,6.39,12.52,26.81,4,35Z"/>
  <path class="cls-29" d="M431,145c-1.08.51-3.21,3.45-5,1.5.46-.84,1.42-1.06,2-1.5.54-.42,1.58-.6,2-1l1,1Z"/>
  <path class="cls-47" d="M606,108c-3.71,3.41-3.79,4.59-2.55,10.05l24.35,35.64c1.79,11.7-1.72,27.64.21,38.79.47,2.7,4.33,4.81,5.99,7.01l-20,.49,1-.99c2.62-1.63,5.49-4.38,5.96-7.54,1.52-10.29-.85-24.07-.17-34.74-11.79-16.38-21.8-34.62-35.78-49.22,5.04-.87,10.38-.55,15.5-.5,1.67.02,4.52-.68,5.5,1.01Z"/>
  <path class="cls-21" d="M668,107c-1.58,1.98-7.4,8.96-9.49,9.01-.89-1.69-.49-3.46-1.62-5.39-1.29-2.21-3.34-1.81-3.89-3.61h15Z"/>
  <path class="cls-47" d="M677,104c-5.3-.15-10.69-.03-16,0-.56-2.95,1.56-2.02,3.49-2.02,2.77,0,4.87.23,7.51,1.02-1.14-8.69,4.47-5.45,5,1Z"/>
  <path class="cls-33" d="M320,152h-19c-.78-10.58,1.07-22.61,0-33,.12-14.35,17.68-15.56,27.71-10.21,10.96,5.84,12.93,22.1,8.03,32.46-3.46,7.32-9.29,9.29-16.75,10.75Z"/>
  <path class="cls-2" d="M284,111c-.48-1.09-4.08-1.33-4-2.99,7.08.43,13.98-.44,21-1-2.34,3.48-4.4,2.71-6,6.99-.22.58-.89.77-1.06,2.4-2.47,23.46,1.98,51.2.03,75.13-.39,4.55,4.13,5.29,6.03,8.47h-20l5.43-5.07c.92-1.69,1.4-3.5,1.58-5.42,2.19-22.47-1.7-48.27.04-71.11.28-1.14-.77-1.79-1.06-2.4-.13-.27.13-.73,0-1l-2-4Z"/>
  <path class="cls-48" d="M531,113c10.53,23.33,19.53,47.72,30.81,70.69,2.76,5.62,5.74,11.29,10.18,15.82-.59,1-2.84.45-4,.5-1.33.05-2.67-.02-4,0-.88,2.04-2.83,1.78-4,0-.67.01-1.33-.02-2,0-1.47.43-2.81.43-4,0,1.76-3.56,4.28-6.65,2.3-10.81l-30.11-67.85c-.16-1.39,1.63-3.87,2.32-5.38s-.31-3.57,2.49-2.96Z"/>
  <path class="cls-28" d="M500,200h-14l4.52-3.98,5.47-7.02c-.41,4.16,2.47,7.4,4.01,11Z"/>
  <path class="cls-11" d="M554,200c1.33-.03,2.67.03,4,0l-7.5,2c-2.01-2.84,1.81-1.97,3.5-2Z"/>
  <path class="cls-11" d="M564,200l-.51,3.01c-1.91-.39-4.12-.81-3.49-3.01,1.33-.02,2.67.02,4,0Z"/>
  <path class="cls-20" d="M333,149.99c-.24-1.48,1.52-1.03,2.43-2.05,6.45-7.2,8.12-16.55,6.12-26-.81-3.84-4.32-11.23-8.55-11.95-.26-1.29.4-1.1,1.51-1.02,6.6.48,13.72,8.81,15.04,14.97,2.47,11.49-4.85,23.94-16.55,26.05Z"/>
  <path class="cls-10" d="M286,115c-.04-.08-1.07-.24-1.5-.99-.71-1.23-.28-2.51-.5-3.01,1.88.57,2.19,2.16,2,4Z"/>
  <path class="cls-33" d="M868,198c-5.79,1.33-6.91,5.38-15.06,3.55-2.11-.47-4.41-2.27-5.94-2.55-.65-2.28-4.02-3.7-5-5-.87.41-2.13-.25-2.87-.88-1.94-1.66-8.23-23.53-8.01-26.77l1.88-1.85c-.78-.21-1.92-.53-2-1.15-.3-2.29-.43-18.75,0-20.4l2-1.44c-3.15-.27-1.86-6.97,1-7.5.25-5.34,1.59-10,4-14-1.77-1.36-.42-4.7,2-4,21.66-27.13,37.46.13,40.01,23.49,1.44,13.19.64,34.15-4.52,46.5-1.93,4.62-4.75,7.94-7.49,12.01Z"/>
  <path class="cls-35" d="M837,112c2.12-1.13,2.89-3.41,5-.5-3.35.73-1.46,2.69-2,4.5-.2.65-1.8,3.9-2,4-2.37,3.83-3.7,8.5-4,14-.13,2.42-1,6.39-1,7.5v23c0,5.64,5.54,24.92,9,29.5l-.5,3.01c-1.26-3.67-2.47-2.31-4.5-3.01-.46.27-.87.45-1.1.32-14.44-8.27-16.21-60.62-6.29-72.7.42-.51,1.59-.06,2.38.38.83-1.8,2.17-4.13,4-7-1.32-.76-.99-1.76,1-3Z"/>
  <path class="cls-48" d="M834,116c1.02.74-.72,5.44-2,6-4.62,2.63-7.31,28.79-7.01,34.51.37,6.94,4.98,35.09,12.01,37.49.2,3.33-.51,1.84-2,.5-22.67-20.42-24.11-58.3-2-79.5,1.41-1.33,1.92-.77,1,1Z"/>
  <path class="cls-48" d="M890,138c1.75,23.5,3.04,40.32-16,57,2.18-4.85,4.82-8.95,6.28-14.22,3.65-13.12,4.06-35.54,1.26-48.83-1.5-7.11-4.47-13.96-8.54-19.95,1.02-1,4.23,2.62,5.03,3.47,6.21,6.64,8.52,14.38,11.97,22.53Z"/>
  <path class="cls-47" d="M815,144c-.46,9.28-.11,14.72,1,24-2.68-1.77-1.93-.99-2,1.49-.03,1.01.55,9.49-2,6.51-.25-.29.1-5.1,0-6.51s-.83-2.7-.86-3.99c-.04-1.5,1.2-3.23.94-4.87-.16-1.04-2.74-.91-2.86-2.06-.06-.54.77-1.9.78-3.04.06-4.26-1.83-14.15,4.99-11.54Z"/>
  <path class="cls-44" d="M837,112c.03,1.12-.74,2.08-1,3-.24,1.57-.95,2.35-2,1l-1-1c.45-.43.68-1.49,1.44-2.06,1.05-.78,1.97-.63,2.56-.94Z"/>
  <path class="cls-11" d="M577,107c-1.77-2.68-.99-1.94,1.49-2,3.16-.08,6.35.05,9.51,0l-5,1-1.99,1.99c-.85-.42-2.94-.83-4-1Z"/>
  <path class="cls-47" d="M660,96c1.11,4.74-4.65,3.93-8,3.99,1.91-4.43,3.23-4.47,8-3.99Z"/>
  <path class="cls-47" d="M785,100h-19v-3c1.15-.42,2.26,1,2.5,1h15c.17,0,1.58,1.35,1.5,2Z"/>
  <path class="cls-31" d="M838,120l-3.22,13.31-.78.69c.15-2.86-.62-8.21.12-10.39.49-1.46,2.47-1.35,2.75-1.75,1.05-1.46-2.4-.14,1.13-1.86Z"/>
  <path class="cls-31" d="M836,115c-.15.53.26,1.5,0,2.31s-1.78.5-2.01,1.4c-.26,1.02.27,2.85,0,3.29-.15.24-1.62-.21-1.99,0,.6-1.46,1.32-4.94,2-6,.22-.33,1.52-.63,2-1Z"/>
</svg>