<?xml version="1.0" encoding="UTF-8"?>
<svg xmlns="http://www.w3.org/2000/svg" viewBox="0 0 450 90" width="450" height="90">
  <!-- Orange hexagon - doubled size -->
  <polygon points="40,5 55,15 55,35 40,45 25,35 25,15" fill="#E93C02"/>
  
  <!-- White harp/lyre symbol -->
  <g transform="translate(40, 25)" fill="white">
    <!-- Harp frame -->
    <path d="M-12,-15 C-15,-15 -18,-12 -18,-9 L-18,9 C-18,12 -15,15 -12,15 L12,15 C15,15 18,12 18,9 L18,-9 C18,-12 15,-15 12,-15 Z"/>
    <!-- Harp strings -->
    <line x1="-9" y1="-9" x2="-9" y2="9" stroke="#E93C02" stroke-width="1.8"/>
    <line x1="-3" y1="-12" x2="-3" y2="12" stroke="#E93C02" stroke-width="1.8"/>
    <line x1="3" y1="-12" x2="3" y2="12" stroke="#E93C02" stroke-width="1.8"/>
    <line x1="9" y1="-9" x2="9" y2="9" stroke="#E93C02" stroke-width="1.8"/>
  </g>
  
  <!-- PRAY150 Text -->
  <text x="75" y="35" font-family="Georgia, serif" font-size="36" font-weight="bold" fill="#333E4D">PRAY150</text>
</svg>