<?xml version="1.0" encoding="UTF-8"?>
<svg xmlns="http://www.w3.org/2000/svg" viewBox="0 0 400 80" width="400" height="80">
  <!-- Orange hexagon -->
  <polygon points="15,20 25,12 35,20 35,40 25,48 15,40" fill="#E85A2B"/>
  
  <!-- White harp/lyre symbol -->
  <g transform="translate(25, 30)" fill="white">
    <!-- Simplified harp shape -->
    <path d="M-5,-6 C-5,-8 -3,-10 -1,-10 L1,-10 C3,-10 5,-8 5,-6 L5,6 C5,8 3,10 1,10 L-1,10 C-3,10 -5,8 -5,6 Z" fill="white"/>
    <!-- Vertical strings -->
    <rect x="-3" y="-4" width="0.6" height="8" fill="#E85A2B"/>
    <rect x="-1" y="-6" width="0.6" height="12" fill="#E85A2B"/>
    <rect x="1" y="-6" width="0.6" height="12" fill="#E85A2B"/>
    <rect x="3" y="-4" width="0.6" height="8" fill="#E85A2B"/>
  </g>
  
  <!-- PRAY150 Text -->
  <text x="55" y="48" font-family="Georgia, serif" font-size="32" font-weight="bold" fill="#4A5568">PRAY150</text>
</svg>