<?xml version="1.0" encoding="UTF-8"?>
<svg xmlns="http://www.w3.org/2000/svg" viewBox="0 0 120 120" width="120" height="120">
  <!-- Orange hexagon -->
  <polygon points="30,15 45,7 60,15 60,35 45,43 30,35" fill="#E85A2B"/>
  
  <!-- White harp/lyre symbol -->
  <g transform="translate(45, 25)" fill="white">
    <!-- Simplified harp shape -->
    <path d="M-6,-8 C-6,-10 -4,-12 -2,-12 L2,-12 C4,-12 6,-10 6,-8 L6,8 C6,10 4,12 2,12 L-2,12 C-4,12 -6,10 -6,8 Z" fill="white"/>
    <!-- Vertical strings -->
    <rect x="-4" y="-6" width="1" height="12" fill="#E85A2B"/>
    <rect x="-1" y="-8" width="1" height="16" fill="#E85A2B"/>
    <rect x="2" y="-8" width="1" height="16" fill="#E85A2B"/>
    <rect x="4" y="-6" width="1" height="12" fill="#E85A2B"/>
  </g>
  
  <!-- PRAY150 Text -->
  <text x="60" y="70" font-family="Georgia, serif" font-size="18" font-weight="bold" fill="#4A5568" text-anchor="middle">PRAY150</text>
</svg>