<?xml version="1.0" encoding="UTF-8"?>
<svg id="Layer_1" data-name="Layer 1" xmlns="http://www.w3.org/2000/svg" viewBox="0 500 1000 500">
  <defs>
    <style>
      .cls-1 {
        fill: #fee1c8;
      }

      .cls-2 {
        fill: #fdfdfe;
      }

      .cls-3 {
        fill: #fefdfd;
      }

      .cls-4 {
        fill: #333d4e;
      }

      .cls-5 {
        fill: #3b404d;
      }

      .cls-6 {
        fill: #f7fafa;
      }

      .cls-7 {
        fill: #c8684b;
      }

      .cls-8 {
        fill: #fed7b7;
      }

      .cls-9 {
        fill: #9ea8af;
      }

      .cls-10 {
        fill: #353e4f;
      }

      .cls-11 {
        fill: #353d4e;
      }

      .cls-12 {
        fill: #fdfefd;
      }

      .cls-13 {
        fill: #353e4e;
      }

      .cls-14 {
        fill: #c8623b;
      }

      .cls-15 {
        fill: #fcfcfd;
      }

      .cls-16 {
        fill: #383f4b;
      }

      .cls-17 {
        fill: #e83c02;
      }

      .cls-18 {
        fill: #fafbfc;
      }

      .cls-19 {
        fill: #373e4b;
      }

      .cls-20 {
        fill: #fcfcfb;
      }

      .cls-21 {
        fill: #f6f8fa;
      }

      .cls-22 {
        fill: #353d4d;
      }

      .cls-23 {
        fill: #e24914;
      }

      .cls-24 {
        fill: #e6430e;
      }

      .cls-25 {
        fill: #fdfdfc;
      }

      .cls-26 {
        fill: #fcfdfc;
      }

      .cls-27 {
        fill: #fdf5ed;
      }

      .cls-28 {
        fill: #eef1f2;
      }

      .cls-29 {
        fill: #e9eff4;
      }

      .cls-30 {
        fill: #373d43;
      }

      .cls-31 {
        fill: #363d4c;
      }

      .cls-32 {
        fill: #f8f9fa;
      }

      .cls-33 {
        fill: #fefefe;
      }

      .cls-34 {
        fill: #fefefc;
      }

      .cls-35 {
        fill: #343d4e;
      }

      .cls-36 {
        fill: #ccd2d8;
      }

      .cls-37 {
        fill: #343d4d;
      }

      .cls-38 {
        fill: #373d4c;
      }

      .cls-39 {
        fill: #383f4d;
      }

      .cls-40 {
        fill: #fcfcfc;
      }

      .cls-41 {
        fill: #fafbfb;
      }

      .cls-42 {
        fill: #363d4b;
      }

      .cls-43 {
        fill: #3a3f4d;
      }

      .cls-44 {
        fill: #f4fefe;
      }

      .cls-45 {
        fill: #3d424d;
      }

      .cls-46 {
        fill: #9ca0aa;
      }

      .cls-47 {
        fill: #fdfdfd;
      }

      .cls-48 {
        fill: #fcfdfd;
      }
    </style>
  </defs>
  <rect class="cls-33" width="1000" height="500"/>
  <path class="cls-22" d="M302,660c.66.04,1.34-.07,2,0,3.03-2.89,8.72-1,11.4,1.9,7.05,1.74,12.06,5.09,15.05,10.07,3.89,1.23,5.37,8.65,5.55,13.03.31,2.21.08,5.62,0,8-.71,7.17-5.28,15.97-13,17-1.15.55-1.95.65-3,1-1.11,2.53-3.58,3.79-7.4,3.79,2.9,1.43,4.57,2.25,5.24,5.36,5.95,2.75,11.48,7.31,12.16,13.85.62.83,1.31,2.01,2,3,2.86-.31,3.37.48,2,3,1.02,1.49,1.87,3.38,3,5,3.13,0,4.76,2.11,4.91,6.33,3.58,1.95,5.03,4.22,4.36,6.81l1.18.4c2.66,4.2,5.73,8,9.24,11.42,5.7.66,13.97,6.57,7.17,10.11-3.27,1.7-24.87-4.02-25.74-6.5-.17-.48-.17-1.02-.12-1.58-.57-.32-1.11-.43-2-1-3.84.69-5.98-2.1-7.68-5.29-4.2-2.29-10.85-9.19-11.32-13.71-.62-.91-.74-1.6-1-2-3.26-.45-5.25-2.95-3.7-5.92l-1.79-.65c-2.65-4.79-4.82-9.93-6.51-15.43-.09-.29.08-.67,0-1l-2.28-.41c-.57-1.07-5.95-9.3-6.58-9.31-1.6,2.06-5.76.4-5.63-2.28l-.3,1.33c-5.17-.76-12.81-1.42-17.54,0l-.66-1.33c.91,12.23.71,24.77,0,37,.01.33-.01.67,0,1-.21,3.69.67,5.62,2.64,5.79.48,6.87,7.02,9.86,13.05,11.06l1.31,2.15c-.03.8.22,2.71-.05,2.96-.42.37-2.17-.14-2.95.04-11.51.33-23.07.56-34.69.68-1.49,1.65-3.25,1.57-5.3-.23l-11.55-.16c-.71-3.19,1.43-4.87,6.43-5.03,4.07-2.06,10.71-10.99,8.89-15.3.81-24.95.74-49.85-.2-74.68l1.43-3.28c-.25-1.22-.57-2.91-1-4l-2.11-.16c-2.39-4.01-7.12-6.82-11.88-6.75-5.56-3.84,2.64-10.94,7.98-5.29,3.11-.64,5.54-.37,7.3.81,10.99.06,21.78-1.06,32.37-3.37,6.29.86,12.74,1.45,19.34,1.77Z"/>
  <path class="cls-37" d="M486,661c3.32-.04,6.67.01,10,0l9.66-.61c.86-3.19,3.14-1.54,5.18-.02,3.57-2.3,19.34-2.1,12.16,3.64l-1.55,2.09c-3.22.34-6.37.65-9.45.91-1.08,1.58-.67,1.58-1,3-.5,1.4-.11,2.79.51,4.09,3.29,3.31,6.8,7.92,7.49,12.91.27.41.79.68,1,1l2.16.69c4.92,7.72,10.11,15.17,15.57,22.34,4.54-3.95,8.17-8.21,10.89-12.8l3.6-1.92c.34-3.4,1.63-7.11,5.79-7.31.74-1.12,1.34-2.73,2-4,5.68-10.54,1.02-17.53-10.56-18.64l-1.44-2.36c-.33-.08-.72.1-1,0l-1.66-3.29c.7-3.01,15.65-.93,19.2-.16,8.77-1.82,19.54-2.83,27.46,1.46l-1,2c.05,2.16-2.41,3.14-4.14,2.3l-1.76,2.46c-2.19,1.24-4.56,2.33-7.1,3.25-.36.31-.65.69-1,1-1.13,3.47-2.83,5.41-5.1,5.8l-.35,2.32c-6.15,6.09-11.5,12.6-16.04,19.55-3.56,3.72-7.29,7.46-11.19,11.2-1.31,3.47-2.87,6.45-4.7,8.92l-.24,30.6c1.64,4.82,3.17,9.69,4.61,14.6,1.71,1.65,1.53,1.12,3,2l4.47,1.23c6.77-.25,9.04,1.84,6.8,6.26l-42.28.04c-4.06,1.27-8.06,1.09-12-.53-1-.01-2,0-3,0-2.04-.47-1.65-2.16,1.17-5.05l9.83-1.95c.72-.45,1.91-.93,2-1,3.85-11.22,6.3-30.8,3.9-42.3-.67-3.2-4.5-12.39-6.32-14.09-2.8-1.05-7.47-4.04-5.58-7.6.07-.16.05-.81,0-1-3.71-1.29-9.12-7.71-9-12-.41-.59-.59-1.42-1-2-1.25-1.25-2.53-1.95-3.84-2.11-2.67-6.27-7.09-12.83-12.7-16.96-12.43-3.94-16.04-9.74-.06-9.35l6.59,1.43Z"/>
  <path class="cls-37" d="M215,714c-.32.34-.68.63-1,1-2.95,2.99-6.95,4.32-12,4-.33-.02-.67.03-1,0l-6,1c-2.99.04-6.01,0-9,0-7.07.87-14.14,1.27-21.2,1.18l-.3,10.96c1.87,7.8,1.7,15.09-.5,21.86.01.33-.02.67,0,1l1.96,1.33c.96,5.35,3.48,10.29,8.83,11.45l1.31,2.5c6.15-.46,8.45,1.12,6.91,4.72-.31-.06-.67.02-1,0-1.87.74-4.15.85-6,0-1.33,0-2.67,0-4,0-2.89,1.85-5.93,1.35-9,0-1,0-2,0-3,0-4.35.43-30.4,1.71-32.35.33-.4-.29-.51-.79-.6-1.24-.96-5.06,6.36-4.47,8.95-4.09,1.95-1.38,5.57-3.06,5.6.2,2.77.4,19.37,1.5,19.88.49.58-1.14.69-1.97-.48-2.69-2.72,2.68-6.2-2.34-7-5.46l-.02-88.13c.12-4.9,4.16-9.02,9.02-8.42.03-1.13-.97-1.8-3-2-6.55.37-13.17.55-19.86.54,1.3,3.39-1.46,3.41-4.14,1.46-.33,2.1-6.57.86-7.17.31-1.78-1.63-2.31-7.69,1.17-5.31.64.09,1.37-.1,2,0l1.35-1.15c8.29.78,16.7,1.06,25.21.85,8.09-2.23,15.71-3.02,24.02-1.34,8.08-2.7,20.73-.7,28.86,2.65,6.4,2.64,16.99,11.73,16.18,19.26,1.17,1.63,2.32,3.29,2.46,5.37.53,7.65-4.59,17.27-8.25,23.64l-2.12-.14c-.4,3.58-1.98,4.86-4.72,3.84Z"/>
  <path class="cls-22" d="M624,661c6.26-5.04,17.82-4.73,12,5,.21,28.5-.89,57.6,0,86,2.14,2.74,2.78,6.14,1.93,10.22l2.07,2.78c2.17,2.33,1.72,1.62,4,3,1.33-.15,2.67.8,3,2,.28.07.66-.02,1,0l1.77.34c6.7-2.43,8.53,7.08,2.23,4.66-.33-.04-.67.02-1,0-3.32.1-5.48.69-8.38,1.64-1.54.51-3.04-.27-4.2-1.33l-30.01.31c-2.23,1.33-5.04,1.13-8.41-.62-1.23-.36-3.94.81-3.68-2.5.02-.31.66-.4.68-.5l1.17-1.9,9.83-2.1c.62-.36,1.5-.61,2-1,2.86-3.93,4.16-7.91,3.91-11.94l2.09-1.06c1.36-19.24,1.16-47.65,0-67l-1.92-.97c-.03-5.17-1.01-8.85-4.08-13.03-3.2-1.78-8.36-2.78-12-3-2.83-.91-1.87-3.98,1-4,.66,0,1.35.06,2,0l1.72-2.18c5.14-1.11,10.23-1.72,15.28-1.82,2.07-.43,4.08-.63,6-1Z"/>
  <path class="cls-47" d="M574,565l2,5h-6c.18,1-.27,3.66,0,4,1.68,2.03,2.05-1.68,2.17-1.76.62-.41,3.66-.37,3.82-.23,1.32,1.15-2.54,3.1-2.66,3.99-3.61-.89-9.67.53-12.73.06-.57-.09-.95-4.04-2.6-2.05-.17.2-.2,3.14.28,3.77.22.29,1.54.1,1.72.86.24,1.05.23,3.68.02,4.75s-1.83.17-2.03,1.12c-.52,2.37,1.8.93,2.04,2.11.17.83.14,5.18-.04,5.38-1.39,1.58-4.09-4-4.5-4-3.12-.04-.71,3-1.5,4.01-.1.13-2.76.17-3.4.02-.74-.17-.53-2-1.11-2.07-2.08-.25-2.85,1.44-4.16,1.73-.23.05-4.26.33-4.74.33-1.11,0,.3-2.59-2.08-2.02-.97.23-.08,2.05-1.09,2.04-.72-.01-1.64-.79-2.72-.7-2.13.16-4.35,1.15-6.7.67,1.32,3.92-2.05,7.41-2.08,10.54-.02,2.24,1.5,1.14,2.04,1.5,2.04,1.37-1.1,1.93-1.19,2.05-.44.58-2.41,4.09-2.77,1.39-.25-1.88,1.2-4.05-1.99-3.48-.21,1,.29,3.62,0,4.01-1.48,1.87-2.16-1.7-2.65-2.03-1.95-1.27-3.27-.78-5.01.41-1.47,1-2.65,5.22-4.34,3.1,4.19-3.93-5.42-1.87-5.95-1.45-.21.17-.24,4.45-.05,5.33.17.79,1.85.51,2.02,1.26.74,3.2-.18,4.13-3.39,3.39-.48-.11-.47-3.3-5.97-2-.7.17-.61,1.43-1,1.66-.82.48-1.92.2-2.4.53-.29.2-2.55,5.5-3.9,5.81-4.23.97-3.04-1.84-3.86-2.01-2.4-.51-.2,2.93-4.91,2.05-.43-.08-1.09-4.07-2.57-2.01-.11.16-.26,4.55-1.99,1.94-.52-.79.77-2.94-3.44-2-.54.12-.93,4.01-2.58,2.03-.43-.51.42-5.48,0-5.99-1.63-1.94-2.06,1.92-2.6,2.03-.67.13-3.28.1-3.39-.03-.31-.36-.24-8.41-.03-9.38.2-.91,2.81-.2,2.02-2.11-.92-2.22-3-.39-4.46-.49-3.21-.22-3.25-3.8-3.55-4.02-2.97-2.15-.73,3.75-2.59,4.04-6.39.99-4.26-2.15-5.41-4.05-1.34-2.21-2.15,2.02-2.62,2.07-2.06.22-5.83.49-8.04.63-1.55.1-3.17-1-4.74-.77-.64.09-.75,3.96-2.59,2.07-.26-.26-.22-6.48-.02-7.37.18-.78,1.55-.57,1.75-.82,1.74-2.27-2.12-4.94-1.78-7.29.09-.65,1.47-.44,1.73-.73.14-.16-.15-2.97.32-3.79-3.44-.12-4.53-.79-4,3-5.02-2.39-3.57.79-4.5,1-1.86.44-2.57-3.14-3.74-3.74-1.35-.69-3.36-.03-3.75-.27.14.14.14,3.86,0,4-2.75,2.72-2.75-6.72,0-4-.14-.09.18-.99-.11-1.23-3.55-2.98-1.85-6.41-.89-10.77l68.5,38.96c28.98-15.74,57.15-32.9,85.82-49.19.97-.55,2.19-.49,2.68-.77Z"/>
  <path class="cls-31" d="M418,681c-.73-3.04-.08-4.69,1.97-4.93-.43-4.23.58-7.25,3.02-9.06.23-3.33,2.21-8.22,5.8-8.89,2.85-.53,6.06,1.24,3.22,3.88-1.79,1.52-2.51,3.48-2.16,5.87,2.07,2.6,4.6,6.23.16,7.13-1.55,1.29-2.18.51-3.11-.91l-1.79,7.74,34.03,76.37c1.4,3.14.97,6.35-.55,9.34,5.15.55,10.29.71,15.42.46-.8-1.96.53-3.29,4-4,.97-1.24,1.49-.28,2,1,.05.74,1.66,2.09,2,3-.49,1.42-1.6,2.87-2.84,3.69-1.46.97,2.4-2.53,4.84-2.69,8.04-1,15.57,6.45,4.08,7.91-12.1-1.68-24.39-2.15-36.88-1.4-.56,2.21-3.16,2.21-3.58-.05-2.94.3-5.81.15-8.62-.45h-1c-.85-.24-.82-.57,0-1,.07-.65-.05-1.34,0-2,1.26-3.02,6.32-2.46,9.23-1.77.27-2.54,1.33-2.25,2.77-.23,3.08.02,1.87,2.71,1.15,1.99-.56-.56-.93-1.23-1.15-1.99-1.01-1.63-.35-3.64,1.98-6.03-2.1-10.77-6.09-21.09-11.98-30.97-.59-.11-1.34.04-2,0l-4.08,1.81c-8.42-3.23-19.78-1.69-28.7-.06-4.67-2.16-7.02-.18-7.03,5.93-2.79,5.72-4.85,11.5-6.19,17.32.08.65-.15,1.49,0,2,2.95,2.43,5.61,5.43,8,9,.29.05.7.03,1,0,6.78-.16,9.45,1.84,8,6-.27.07-.66-.02-1,0l-6.91,1.57c-7.51-1.51-16.29-1.94-23.48.31-1.68.53-3.33-.25-4.65-1.35-11.28,1.91-12.15-5.92-2.44-6.02,1.1-2.23,3.09-4.35,5.97-6.35,7.34-7.59,11.17-16.63,15.23-26.37l2.28-.81c.06-.31,0-.68,0-1,.33-5.82,2.33-9.82,6-12,.12-.28-.12-.72,0-1-1.61-1.01-.81-1.55,1-2,.36-.8.52-1.92,1-3,1.84-9.14,5.23-17.78,10.16-25.93l2.84-3.07c1.03-2.29,1.96-4.69,3-7Z"/>
  <path class="cls-42" d="M797,658c4.12-.87,9.35-.44,12,3,.69,2.55-1.31,3.55-6,3l-2.39,1.09c-13.91-6.11-23.37,7.52-27.27,19.21l-2.34.7-2-1.03c.58-2.01-.42-3.34-3-3.97-.97-.13-1.6-.62-1.85-1.53-18.17,22.23-17.98,56.75.18,78.97l-3.77-10.28,1.44-2.16c2.99.05,4.54-.82,4.64-2.59l2.36-.41,2.26,1c9.98,43.62,41.9,32.8,46.62-6.69,2.6-21.79,2.64-49.95-11.89-67.62v-2.68c1.5-4.2,8.25-.73,7.01,3,.85,1.38,1.51,2.71,2,4,6.51,5.18,8.33,15.29,9.7,23.43,3.38,20.13,2.85,45.33-6.8,63.46l2.1.11c4.41.18,2.04,4.22-.58,6.14l.58,1.86c.02,3.44-2.73,5.6-8.27,6.49-3.19,2.77-7.77,3.94-13.73,3.51-2.58-.07-5.55.29-8,0l-3.37.77c-.65-1.56-1.24-1.64-1.97.08-4.22-1.23-8-3.18-11.34-5.84-3.3,1.22-4.71-1.52-5.9-4.22-4.11-1.94-9.48-4.61-9.39-9.37-2.43.14-4.36-2.62-3.59-4.89l-2.43-5.54c-.08-.32.08-.69,0-1-6.53-7.58-7.67-22-7.63-32.55.03-8.99.43-21.73,7.63-27.45.73-1.69.59-2.64,2-5-.42-5.49,5.23-10.57,9.19-14.07,5.21-4.6,8.73-6.42,15.1-8.09.38-.76.86-1.53,1.64-1.92,2.98-1.51,8.17-1.51,11.06-.92,1.7-.17,4.3-.17,6,0Z"/>
  <path class="cls-35" d="M678,696c.54-1.93,2.54-1.93,6,0,1.31.08,2.73-.16,4,0l8.75.95c7.18-.76,12.55,3.1,17.25,7.05.38.2,4.76,2.82,5,3,3.1-1.87,5.91,2.82,6.67,5.59,4.11,2.93,5.84,4.72,6.06,10.27,3.87,5.57,4.96,12.28,3.27,20.14-.32,1.8-.69,6.07-1,7,1.5,2.29.55,6.94-2.53,6.6-1.13,4.2-3.03,6.61-5.7,7.23-1.34,2.51-8.27,9.05-10.94,10.04-4.26-.06-8.97,1.44-12.03,4.21-6.71,1.22-16.85,2.51-21.8-2.08-.66-.05-1.34.05-2,0-5.05-1.11-10.77-2.74-13-7-.13-.27-.78-.57-1-1-4.13-.82-7.78-9.77-4-12-.08-.64.1-1.38,0-2-.97-3.48,1.67-6.05,5-6,.65.06,1.37-.09,2,0,2.12-4.28,9.14-.83,10.69,2.98.36,6.9,2.09,12.79,5.21,17.67,2.35.92,4.88,1.28,7.35,1.62,6.16.83,11.58,1.35,15.68-3.34l2.07,1.06c3.25-1.22,5.54-3.58,7.59-6.25l1.41.25c22.4-30.61-5-54.24-36.42-56.8l-1.58-2.2c-.28-.84-6.25-1.46-7.74,1.04-2.63.99-1.35-15.03,3.32-8.6l2.42.55Z"/>
  <path class="cls-47" d="M416,576c-2.32-.23-5.31.45-7.38.03-1.18-.24.26-2.55-2.11-2.04-.95.21-.07,1.88-1.11,2.07-.4.07-5.92.02-6.78-.06-1.06-.1-.16-1.78-1.12-2.01-2.36-.56-.96,1.91-2.09,2.08-2.14.32-6.45-1.41-9.4-.07.74-4.56-.47-3.11-1.92-4.07-2.26-1.49,3.92-2.57,3.94-5.44,0-.23-3.59-2.41-3.74-2.73-1.87-4.18,1.37-4.6,5.08-3.78.78.17.52,1.86,1.25,2.02.62.14,3.38.16,3.38-.01v-98.5c0-3.16-4.58.3-5.52.49-6.87,1.32-4.01-2.62-4.49-7.99,4.03.53,5.33.11,8.01-2.5.84-2.66-2.72-.78-3.84-1.72-.17-.14-.34-3.61-2.15-1.75-.42.43.78,3.01-2.01,1.97v-3.99c3.4.48,8.25-.68,11.38-.04,1.19.24-.26,2.56,2.11,2.04.95-.21.05-1.82,1.12-2.04,1.29-.26,7.5-.27,8.76,0,.77.16.53,3.52,2.6,2.03.19-.14.7-3.36,2.52-3.99.81,4.15,2.07-.59,5.5-.01,1.15-2.63-2.02-1.64-2.02-2.49-.47-1.45,1.66-2.12,2.02-3.01s-1.81-.03-2.03-1.11c-1.35-6.46.45-4.65,3.34-5.37.93-.23.54-1.94,1.32-2.07.34-.05,6.33-.06,6.74-.01.51.06,1.19,4.23,2.61,2.04.18-.28-.45-1.77.69-2.01.99-.2,3.06.28,3.33.04.35-.32-.36-3.57-.01-4.01.2-.26,4.8.2,6.01,0,.24-3.46.59-4.92-3.38-4.01-.74.17-.5,1.85-1.24,2.02-.66.15-3.27.12-3.38,0-.46-.53.32-8.26,0-10,.61-.62,5.39,1.55,5.81,2.18.69,1.04-.11,3.46.19,3.82,1.33,1.59,3.88-3.82,4.64-4,4.21-.99,2.86,1.23,3.37,1.97,1.52,2.2,2.02-1.63,2.17-1.74.78-.58,2.16-.01,3.08-.25.97-.25.6-1.81,1.37-1.99,1.12-.26,5.62-.27,6.74-.02.91.21.18,2.74,2.11,2.02,3.11-1.16,1.37-6.49,5.51-7.5-.21-1.14-2.32-.08-2.95-.54-.41-.3.19-8.28-.04-9.96,2.93-1.05,5.09,2.36,7.48,2.05.62-.08.33-1.88,1.15-2.07,1.6-.37,17.12-.36,18.74,0,.79.18.49,1.85,1.27,2.02,4.05.92,3.5-1.34,7.57,1.7,3.36,2.51,5.68-4.95,9.69-3.61.38,1.91,2.41,3.26,2.15,5.38-.03.29-4.17,1.08-2.03,2.5,1.58,1.04,2.74-.6,2.05,4.58-.19,1.44-3.76,2.65-2.07,4.43.35.37,7.95-2.11,9.99-.99l-2,3.99h4c.22-2.02-1.17-4.67,2-4-1.25,6.5,2.89,3.03,4.01,4.01-1.32,3.9.61,7.89,0,12l-40.04-23.49-2.38-.53-90.44,51.16-.13,102.36c.06,1.48,1,2.14,2.03,2.97,5.17,4.22,14.17,6.51,18.97,11.53Z"/>
  <path class="cls-42" d="M718,660c1.43-1.76,3.84-2.95,7.24-3.57,1.71-2.09,6.91-5.43,8.44-1.62.53,1.32-7.4,24.8-11.81,24.37-13.26,0-26.53-.09-39.79-.29-.25-2.06-1.58-1.6-3.09-.91-1.89,1.92-.55,3.24-1,5-1.52,4.68-.73,9.03,0,13-1.16.01-5.79-.22-6,0s-.21,5.8,0,6.01c.37.37,7-.27,8.52,0l-.52,1-.24,1.32c-10.22,1.17-6.8,6.08,3.03,5.63,25.73,1.13,54.46,27.43,35.21,52.05-2.28,3.79-4.16,5.51-9,6l-.47-1.33c7.65-9.39,10.2-15.4,7.27-28.03-.08-.34.33-.79.88-1.27-2.88-4.2-6.52-7.95-10.92-11.23l.34-2.13c-2.21-.26-4.22-.84-5.1-3.02-1-.49-3.76-1.54-5-2-1.99.27-3.63-.57-5-2-1.89-.46-4.86-.62-7-1-4.85-.69-9.87-1.38-14.72.04l-2.28-2.04c-.11-.26.08-.66,0-1-.41-1.67-.08-3,1-4,.07-.32-.07-.68,0-1-1.83-1.43-2.25-3.62.25-3.53.92-7.79,2.84-15.28,5.75-22.47-.02-.36.1-.83,0-1-.17-1.81.16-9.32.46-10.76.32-1.56,1.92-8.59,2.3-9.18.8-1.24,4.66-2.13,6.42-2.18,2.46-.08,4.17.08,5.82,2.12,4.98-.11,10.02.02,15,0,4.28-.43,8.61-.77,13-1,.33-.02.67.02,1,0Z"/>
  <path class="cls-4" d="M812,662c.5.24,4.5,2.65,5,3,3.72-.35,6.22,2.8,7.53,5.94,3.15.52,4.96,3.69,5.47,7.06.73.99,2.66,3.44,3,4,4.74.91,5.12,5.74,5,10,.47,1.15.62,2.74,1,4,4.08,1.14,4.63,7.4,3,11,.13.94-.07,2.02,0,3,.75,3.32.89,6.7.42,10.14.81.36,1.45.74,1.49,1.17.25,2.64-1.54,13.26-3.91,14.69-.09.64.06,1.35,0,2-.31,2.59-.98,4.59-2,6-.8.35-.51,1.24-1,2,1.81,3.49.07,4.56-3,6-.81,1.36-1.34,3.02-2,4,1.57,1.74.78,2.97-2.39,3.67-1.73,4.3-4.93,7.07-9.61,8.33-1.66-.38-4.05,1.33-4-1.49,0-.4,6.16-3.28,4-6.51-1.54-2.29-.58-2.92,2-2,1.97-1.8,3.22-3.22,3-6l-.47-3.36c12.8-25.83,7.15-53.69-8.53-76.64-1.6.25-2.7-1.59-3-3-2.19-1.67-3.9-3.73-7-3-1.97,2.08-3.89.67-3-2,1.13-2.57,2.77-1.98,5.31-2.19l.69-.81c.73-.6,1.73-.26,3,1Z"/>
  <path class="cls-35" d="M432,662c7.39,10.63,12.73,22.3,16,35,.06.32-.04.67,0,1,5.42,7.29,10.12,15.16,11.23,24.28,5.32,9.63,9.57,19.21,12.77,28.72.03.34-.06.71,0,1,3.97,3.33,5.82,7.57,6,12,.82,2.29-3.5,3.53-4,4-1.97,1.07-3.72.25-5.27-2.48-14.76-27.34-27.53-56.12-38.34-86.33l-.39-4.19c1.68-3.76-1.94-5.32-2.01-5.64-.3-1.44-.1-4.26,0-5.9.19-2.85,2.47-1.03,4-1.46Z"/>
  <path class="cls-47" d="M250,677c4.74,22.76-1.39,55.34.91,79.41-1.04,6.36-3.14,11-9.2,13.8-3.09,1.43-7.81.33-6.71,4.79h50c-10.83,2.57-22.74-.67-33.53.98-2.84.43-2.04,3.01-2.98,3.03-2.43.05-1.85-2.73-3.16-3.04-2.96-.71-9.77.15-13.33.04-1.21-7.46,2.42-5.02,7.31-6.02,1.59-.32,4.6-6.89,3.68-7.99-.09-.1-3.22,1.64-2.5-1l5.5,1c-.84-4.86.78-3.23,1.99-4.01,2.31-1.5-1.64-2.01-1.76-2.16-1.34-1.66,1.73-3.77-2.22-3.83-.03.94.49,8.93-2,6-.18-.21-.15-4.49-.02-5.42.14-1.01,1.14-.59,2.02-.58.23-8.42-1.7-61.28.28-63.78.23-.3,1.56-.09,1.73-.85.57-2.44-.49-6.24-.06-8.81.21-1.25,3.65.15,4.05-1.55Z"/>
  <path class="cls-19" d="M160,664c.87.28.86.62,0,1l-3.35,1.91c-9.84-.86-12.64.26-8.38,3.38,1.51,31.25,1.08,63.83.19,95.16-4.01,2.66-1.02,3.52,8.97,2.58,2.51,1.23,3.7,1.21,3.56-.04.44.1,8.09-.41,5,1.99-.55.43-6.29,1.9-7.48,2.03-8.59.89-15.76-2.22-22.52-2.02-1.03-.23-.7-.9,1-2,.28-.12.71.12,1,0,.41-3.2,2.1-6.96,5-8,.07-.65,0-1.34,0-2-.04-1.82.29-3.49,1-5,.46-22.43,1.37-48.86,0-71-.48-2.03-5.04-14.17-7.06-14.43-1.65,1.43-1.7.51-.94-1.57,3.16,1.07,2.49-1.91,4.43-2.08,5.92-.5,13.45.02,19.57.08Z"/>
  <path class="cls-47" d="M132,661c2.96-4.33-1.31-3.3-3.99-2v-3c1.7.17,3.73-.34,5.34,0,.72.15.55,1.5,1.38,1.94,3.73,1.97,6.16-.44,8.67,0,.72.13.51,1.54.81,1.78.6.47,13.69.64,15.16.3.82-.19.48-2.04,1.21-2.04.92,0,1.82.9,3.45.62,3.71-.64,5.43-3.96,11.31-2.6.74.17.46,1.57,1.37,1.95.64.26,5.12,1.19,5.65,1.14.98-.09.83-2.66,2.22-3.04,1.15-.31,2.7.76,3.97.76,3.21,0,6.14-1.91,8.95,1.2,2.22-5.68,5.55,1.11,5.97,1,1.88-.49,2.82-2.98,3.11-3.04,4.59-.89,4.04,3.22,6.04,3.9,1.63.55,6.99-.26,7.33.17.88,1.1.03,6.24.28,7.33.39,1.74,4.75,4.04,6.46,4.43,5.45,1.23,5.81-2.19,5.29,6.21l-3.99-2c.94,1.76-.23,4.06-.04,5.33.12.79,1.42.66,2,1.39,3.9,4.95.7,4.34.05,7.79-.38,2.01.2,4.41-.01,6.48.65-.21,1.73-1.31,1.99-1-.54,3.83,2.05,9.26-2.99,8,.46-2.31.75-4.66,1-7-.48.15-1.67-.29-1.93.04-.71.92.65,5.52-.25,6.79-.26.37-1.97.69-2.84,1.61-2.12,2.22-1.83,3.84-.98,6.56l-3.99-1.99-1.02,2.51c5.2,1.96-2.02,11.31-4.99,5.5,3.04-.35,5.98-3.52,1-4.01,1.92-2.05,4.58-3.68,6.52-5.98,10.76-12.79,8.95-32.4-5.6-41.44-22.6-14.04-57.74-1.44-83.92-5.58Z"/>
  <path class="cls-47" d="M718,660c1.02-5.52.96-2.99,3.28-3.36,1.18-.19,3.09-.39,4.02-.85,1.88-.92,1.98-3.33,3.33-3.73,1.82-.55,5.89,2.08,7.37,3.44-4.85.65-.43,11.17-.99,11.49-.52.3-2.59-.3-3.59.98-.67.85,1.19,2.63.41,3.86-.19.3-4.61,3.6-5.49,4.53-.46.49-.19,1.77-.61,2.32-.17.23-4.14,3.05-4.42,3.14-9.81,1.22-21.29-.98-30.87.13-2.2.25-2.7.95-4.44,2.06l-2-4c.11.59.61,11.06-2,7.99-.24-.29.04-6.09,0-7.54-.1-3.18.28-2.54-3-2.46,1-1.01.9-.93,2.41-1.05,6.05-.51,40.72,1.14,42.45-.09.8-3.16,9.22-21.75,8.13-22.86-1.66-.36-2.29.24-3.52.97-3.73,2.22-5.5,4.67-10.47,5.03Z"/>
  <path class="cls-47" d="M350,752c.36,1.72,2.37,2.96,1.99,5-1.93-.66-5.17-1.76-5.99.99,7.05-2.01,5.45,7.46,6.01,8.02.09.09,1.46-1.06,2.52-.13,1.18,1.03,1.4,3.13,2.96,3.79.54.23,7.41-2,9.89-1.72.64.07.91,4.87,3.63.07-1.99,1.27-2.2-3.83-1.97-3.97.31-.2,1.67.19,2.66-.34.38-.21,5.95-5.5,6.18-5.87.4-.64-2.52-8.45,4.63-3.82,3.05-.57,1.44-15.2,1.52-18.01.36-.36,3.88,1.01,4.53.74,1.79-.74.62-3.26,2.96-2.75.86.18.21,2.97,2.51,2.01-.75,4.22-8.44,18.26-11.18,22.32-4.83,7.15-8.33,10.13-16.21,13.61-1.19.53-.46,1.99-.61,3.06,13.84-.55,28.24.75,42,0-1.55.74-6.81,3.67-7.88,2.82-.35-.28-.03-1.82-.12-1.82h-21c-.22,0-.29,3.7-1.61,4.05-4.88,1.3-3.43-3.19-4.5-3.94-.67-.47-4.18-.25-4.97.32-1.99,1.44,1.05,4.94-3.92,2.58l2,2.98c-5.93,3.52-3.25.09-4.58-.07-1.64-.2-8.98,2.54-9.41,2.08v-3s2.99.5,2.99.5c-.68-1.87-6.76-1.82-7-1.51-.31.39.22,3.03,0,4.02-.87,1.2-13.53-2.24-5.01-5.5-1-.43-.87-2.29-1.07-2.44-1.02-.73-6.14,1.52-3.92-4.07,7.15,3.99,18.27,7.03,26.43,6.01,1.14-.14.41-1.54.59-2.51-13.84-5.1-20.18-19.21-28.01-30.5l6-2c1.82,2.45-1.68,6.45-.54,8.02s5.58,1.07,7.54.98c-.18-.87.11-2.04,0-3h1.99c-.1.8.18,2.84,0,2.99-.16.15-1.41-.02-2,0Z"/>
  <path class="cls-47" d="M514,767c-1.66-14.78,1.46-30.81.08-45.57-.19-2.05-2.98-.73-2.12-4.85.19-.89,2.38-.28,2.04-1.06-.2-.46-2.43-4.41-2.65-4.57-3.42-2.54-4.32,2.75-6.25-.55-.92-1.57-1.52-3.93-1.13-5.7.19-.83,1.72-1.03,2.02-1.69,3.69,4.75,11.05,12.95,13.22,18.28,2.07,5.06.92,33.46-.9,39.55-.78,2.6-2.34,4.49-4.32,6.18Z"/>
  <path class="cls-47" d="M249,673l-4,3c.86-5.37-.92-3.19-2.94-4.52-1.06-.7-1.21-2.4-2.05-3-2-1.44-7.16.65-8.58-1.42-2.39-5.06,4.7-6.71,2.56-11.06,2.75.01,5.04-.68,7.07,1.48,1.02,1.09.24,2.63,2.42,2.6,4.95-.05,3.15-5.61,8.52-4.08l-1.99,4.99c2.69.68,5.27-.76,7.6-.92,4.08-.28,13.52.67,16.74-.07.75-.17.48-1.64,1.36-1.96,1.38-.49,5.45-1.72,6.83-2.03.48-.11.21,1.58,1.16,1.95,6.01,2.34,12.51-1.14,18.29,2.04-18.64-1.21-37.02,2.91-55.55,2.05-2.28-.11-10.27-2.05-11.46-1.04-.11.1-.12,2.9,0,2.98.37.25,5.29,1.14,7.33,2.19,3.41,1.75,5.3,3.31,6.67,6.83Z"/>
  <path class="cls-47" d="M422,660c-1.32.1-2.68-.05-4,0,.16-.97-.24-3.75,0-3.99s3.03.15,3.99,0c.03,1.33-.02,2.67,0,4,3.57-.28,5.4-2.51,6.48-2.6.88-.07,1.97.74,2.9.68,1.04-.07.46-1.79.63-2.06,1.56-2.48,2.2,2.34,2.52,2.91.65,1.12,1.98,1.7,2.48,2.56,2.22,3.82,3.72,6.9,2.99,11.52,5.94-2.26,3.24,3.04,3.96,6.39.2.91,2.26.41,2.04,1.09-.25.79-1.65,1.63-1.63,3.03.03,2.92,3.66,4.8,3.71,5.13.3,1.83-.7,4.85-.09,8.36-1.42-.95-1.85-2.56-2.48-4.02-4.47-10.33-9.26-20.57-13.52-30.98-.84-2.05-1.27-4.6-4.06-2.56-.96.7-8.64,18.65-9.94,21.56l-2.01-5h4.02c-.58-1-.08-3.07-.21-3.52-.18-.61-1.3-.35-1.52-.65-1.18-1.53.69-4.12.73-5.84l2.99,1.01c-.02-2.33.04-4.67,0-7Z"/>
  <path class="cls-47" d="M709,768c-1.74,1.32-7.27,3.44-9.59,3.9-7.08,1.39-16.67.42-19.62-7.18-2.07-5.34-.38-14.15-6.74-16.27-1.93-.64-3.41-.21-5.04-.45l-3-3.99c3.2.58,10.26-.97,12.76.27,1.87.93,1.83,5.21,4.23,6.22-1.89.88-2.29.47-2.07,2.99.07.87,2.15,6.79,2.58,7.57.53.97,3.39.39,4.49.94.1,2.08-4.48,1.59-4.99,2,.74.85,1.73,3.39,2.18,3.78,1.48,1.27,15.31-2.34,14.83,3.22,1.96-1.55,2.52-1.91,4.98-1v-9c1.04.16,4.59,8.19,4.98,3.51.03-.37-1.52-2.23-.97-3.52l1.99,1.02c-.07-2.66.12-5.36,0-8.01-6.11.67-5.66-2.78,0-2,.03.66-.02,1.34,0,2,2.45-.27,1.79-2.08,4-2v-15c1.56,1.51,3.09.71,1.99-.98-.04-.07-1.02.13-1.59-.41-.98-.93-.62-2.49-3.77-1.64-.53.14-3.18,5.89-4.61,4.04-.48-.63-2.06-4.5-2.07-5.47-.03-1.97.05-3.98.03-5.95,0-.63,3.89-.7,2.03-2.58-.25-.25-4.95,2.16-4.99-3,12.1,5.96,19.8,16.24,17.93,30.43-.69,5.25-5.76,13.42-9.93,16.57Z"/>
  <path class="cls-47" d="M547,664c-1.42-.49-4.54-4.73-2.97-5.95,2.71-2.1,12.16,2.2,14.47-2.04.86-.43.74,3.72,2.13,4.04,3.42.8,9.95.31,9.91-4.1,5-.94,6.72,1.91,9.93,2.15,2.35.18,4.28-.98,6.03-.95s10.57,1.11,11.05,1.8c.69,1.01.47,1.94.45,3.04-1.96-.13-4.05.2-6,0-13.67-1.37-28.49-1.44-42.54-1-3.18.1-2.54-.28-2.46,3Z"/>
  <path class="cls-47" d="M496,688c-1.5.25-2.74-1.95-3.96-1.5-.72.27-2.94,2.6-4.03,1.5-1.84-1.86,1.88-1.93,2.03-2.58.89-3.76-1.22-3.01-2.01-4.14-1.35-1.92-2.26-4.55-3.63-6.22-.37-.46-4.72-4.99-5.07-5.06-2.77-.54-6.28,1.14-9.33,0-1.39-2.55,3.77-1.66,2-3.98-.19-.25-4.2-1.6-5.53-2.99-1.62-1.68-2.32-4.22-2.48-6.52l4.01-.51-2.99,2.99c1.78.6,3.32-.71,4.57-.93.54-.09.33,1.49.58,1.69,1.66,1.27,3.23-1.14,4.57-1.54,3.57-1.06,7.98,1.29,11.27,2.78-3.61.04-11.6-.7-14.35.15-1.29.4-1.92,1.51-1.65,2.84,12.94,1.03,19.36,14.54,26,24Z"/>
  <path class="cls-47" d="M558,689c-4.7,7.11-12.3,15.98-18.01,22.49-.81.92-1.78,2.19-2.97,2.52-4.5-8.5-11.08-16.04-16.45-24.07-.46-.69-.36-1.63-.56-1.93h7c.53,2.62-.57,1.52-2.03,2.5-.02.7,2.78,5.9,3.23,6.26.24.19,1.28-.45,1.8-.19.57.29,4.45,6.9,5.46,8.52.66,1.05.37,2.59.56,2.91,1.12,1.93,2.79-1.65,1.99-3.01,4.58,1.47,3.65.29,6.41-2.6.31-.33,3.45-1.01,1.52-2.35-1.25-.87-2.69.7-1.93-4.05.49-.49,6.78,1.56,7.99-.01,1.54-1.99-1.88-1.93-2.03-2.58-.92-3.86,2.12-3.72,5.39-5.57,2.5-1.41,1.01-.44,2.64,1.16Z"/>
  <path class="cls-47" d="M832,756l2.99,2.99c-1.39,1.43-4.73.91-4.91,1.1-1.33,1.45.66,5.89.92,7.9-4.4,1.75-5.18-2.12-5.49-1.99-.21.09-3.49,2.49-3.6,2.69-.66,1.14.04,2.37-.1,2.84-.16.58-1.26.39-1.46.68-.32.47.71,1.57-.32,2.32-1.2.87-8.06-2.39-9.03,2.46l2.99,1.52c-1.25,2.03-3.43,1.19-5.25,1.74-3.77,1.15-8.34,4.53-9.74-1.23.23-.2,8.89,2.3,5-1-.25-.21-4.74.03-6,0l12.68-3.82c3.67-1.44,6.42-3.61,9.32-6.18,2.49-2.21,10.5-9.78,12-12Z"/>
  <path class="cls-47" d="M438,733c-1.21.36-4.18,4.91-4.51,5-2.75.79-.97-3.4-1.49-4.01-.73-.86-20.1-.34-22.58-.07-2.01.22-1.17,1.88-2.06,2.08-2.31.54-5.45.64-5.86-2-3.09,2.74-.7,7.93-1.49,11.36-.18.79-1.84.48-2.02,1.27-.35,1.52.39,7.09.01,7.36s-2.4-.38-3.76.27c-.2.09-2.74,2.92-2.24,3.73-.01-.12-.9-.52-.91-1.43-.1-6.87,5.81-16.86,8.05-23.43,12.71.35,26.24-.95,38.87-.14Z"/>
  <path class="cls-47" d="M415,688c-4.31,9.63-8.77,19.47-13,29-1.61-3.45-2.61-6.02-1.99-10.01,2.47,1.64,1.56.22,2.42-.53,1.73-1.52,5.18-3.67,3.28-6.24-.18-.24-1.22,0-1.64-.97-.49-1.15-3.47-9.9-3.07-10.25.14-.12,2.69-.6,2.96.75.49,2.44,1.28,2.18,2.53,4.24,2.62-4.16,2.85-6.04,8.5-6Z"/>
  <path class="cls-47" d="M790,778c-.76.39-3.37,2.87-3.99,1.99-.37-.53.79-2.39-1-1.99-.91,1.37-.17,3.69-.38,4.5-.92,3.58-9.23-.61-8.7-3.97,0-.42,4.13-.92,2.07-2.53-.62-.49-5.31,1.11-5.01-3-1.96-.3-.53,2.27-1.01,3-.13.2-3.15.13-4.09-.47-.74-.47-.14-3.41-1.9-4.04-.37-.98,2.34-.01,2-.99-1.14-3.23-5.1-2.01-7.34-2.5-.74-.16-.58-1.45-.97-1.69-1.61-1.01-3.68.73-1.91-1.81l-2.79-.5,2.99-4.99c-1.41.55-3.32,1.12-3,2.99-1.99,0,.22-3.2-2.99-.99-1.75-4.4,2.13-5.19,1.99-5.5-1.53-3.61-1.25-3.38-2-6.51,6.01,10.7,14.31,20.8,26.01,25.49,3.06,1.23,8.91,3.14,11.99,3.51Z"/>
  <path class="cls-47" d="M754,683c-2.59-4.06-.59-4.98,1.01-8.99l-3.01-2c9.25,1.72,4.06-.96,5.04-4.4.61-2.14,4.2-1.62,5.97-1.6l.99,1.99c-2.53-6.54,4.11-5.1,7-9.5l-2.99-2.49,4.98,1.5-1.98,2.49c1.8-.66,1.99,2,2.56,2.07,1.06.13,4.72-1.64,5.18-2.26.22-.3-.83-1.59.19-2.3s8.14-2.52,7.56.49l2.01-2,2.5,2c-14.79,1.46-29.38,12.25-37,25Z"/>
  <path class="cls-47" d="M734,750c3.04-.55,1.91,1.53,2,3.47.1,2.17-.06,4.37,0,6.53l-3.99-4c-.08,2.06-2.29,3.22-2.07,5.44.05.46,6,2.6,4.06,6.55-2.26.84-3.59-3.78-4.65-3.99s-2.26.09-3.35,0c2.19,4.99-2.09,3.03-5.08,5.45-2.5,2.02-.4,3.65-1.86,5.07-2.98,2.9-6.33-.59-7.37-.37-.75.16-1.49,1.37-2.43,1.63-1.35.38-3.5-.07-4.13.34-.54.35-.48,2.55-1.02,3.29-.65.9-3.13.21-3.76,2.59l-24.06.33c-1.32-.11-2.81-3.81-2.27-4.33,1.83-.04,3.67.05,5.51,0,2.48-.07,3.26.68,1.49-2,5.6.46,10.58,1.52,16.5,1,15.32-1.34,31.57-12.09,36.5-27Z"/>
  <path class="cls-47" d="M450,770c-3.39.19-8.68,2.8-12,2-1.71-.41-2.79-3.44-5.99-1,.09-.8-.18-2.86-.01-3,.44-.37,10.16-.23,11.49,0,2.05.36,2.57,2.35,4.51,1.98-2.12-3.14,2.04-9.05,2.01-10.49-.03-1.81-3.63-8.64-4.38-10.5-.7-1.74-.17-5.21-3.14-7l-1.49,2.99c-.88-3.96-1.28-7.92-1.01-12,.66.12,1.41-.05,1.99.47,1.53,1.13,11.31,24.29,11.79,27.26,1.03,6.36-1.5,5.24-3.78,9.27Z"/>
  <path class="cls-47" d="M752,688c-6.88,16.04-8.67,30-4.72,47.22,1,4.37,3.81,9.04,4.72,12.78-5.27-1.48-5.15-2.15-4.01-7.01l-1.99,1.02c1.5-4.39-1.37-8.79-1.83-12.74-.67-5.82-1.36-29.34-.19-34.63.17-.77,1.81-.44,2.01-1.3,1.01-4.34-1.11-5.96,6.01-5.33Z"/>
  <path class="cls-47" d="M483,768c2.62-.05,3.34.48,4.44.52,1.62.05,5.36-1.25,6.5-.45.47.33.38,3.1.67,4,.49,1.51,3.74,7.55,3.38,7.94-1.6,1.75-2.04-1.75-2.7-1.97-4.99-1.68-6.26.99-7.64.84-1.72-.18-3.08-2.61-7.11-2.93-9.48-.75-19.96.67-29.56.05v4.02s-2.99,0-2.99,0c-.22-.98.3-3.64,0-4.02-.51-.63-7.72,1.22-9-.99h53c1.19-4.64-5.21-3.59-8-6-1.51,1.34-2.09.77-1-1Z"/>
  <path class="cls-47" d="M448,698c2.23.42,6.04,4.81,7.09,6.49,1.91,3.03-1.94,1.01,3.84,5.08,2.76,1.94,2.05,4.15,2.52,6.45.21,1.03,1.52,2.2,1.52,2.5,0,.83-4.58,1.41-2.97,4.49l3.99-2c1.44,2.38-1.99,7.06-1.98,7.5.02,1.17,4.21.79,2.18,3.32,1.1,1.01,6.81,5.23,6.78,5.67-.07,1.42-1.89,2.14-2.33,2.54-2.89,2.59.79,1.31,1.34,1.55,4.04,1.73,1.73,5.8,2.01,9.42-1.42-.95-1.85-2.56-2.48-4.02-7.08-16.37-14.46-32.61-21.52-48.98Z"/>
  <path class="cls-47" d="M577,673c2.1,2.32-1.5,2.98-1.65,4.45-.21,2.06,2.47,6.25-1.35,7.55l-2.01-6.99c1.58,1.68,1.08,9.15-.06,9.99-.39.29-1.93-.89-2.95-.46-2.17.91-3.99,4.01-5.59,5.37-1.37,1.16-4,.41-4.11,3.72-.07,2.15,1.6,4.09.22,6.39-1.2,2.02-3.06-1.15-4.98-1.07-.28.01-.92,3.23-3.53,2.07l1,4.99c-1.93-.23-6.93,1.9-7.79,3.21-.99,1.5-.36,7.57-1.22,9.79l-2.99-2v32c0,.09,1.34-.31,1.74.21.18.24,1.93,5.03,2.06,5.55.37,1.47-.79,6.02.2,8.24-3.26-3.15-4.57-6.84-5.01-11.49-1.09-11.64.66-25,.19-36.82,12.89-14.37,23.5-31.82,37.82-44.68Z"/>
  <path class="cls-47" d="M304,727c-2.7.23-5.55,2.09-4-1.99l-4,.99c-.67-1.48.29-7.73,0-7.99-1.92-1.66-1.97,1.91-2.58,2.03-4.22.87-4.93-3.85-6.08-4.06-1.95-.35-3.59.74-5.02.7-3.24-.1-6.83-1.28-10.32-.68-.07,10.16.11,20.34.01,30.51-.02,1.67.68,4.52-1.01,5.5-.39-12.3.29-24.7,0-37h18.5c.7,0,7.03,2.32,8.02,2.98,1.78,1.19,5.97,6.98,6.48,9.02Z"/>
  <path class="cls-47" d="M674,681c-.17-.29-1.86-.66-1.79-1.46.12-1.45,2.17-5.7,1.78-8.92-.09-.76-1.86-.5-2.02-1.21-.82-3.72,1.17-2.9,1.95-4.16,2.46-3.96-.98-3.16-.99-3.8-.02-1.08,1.47-2.91,1.09-4.45,2.76,2.16,1.16-2.03,4.98-.99-1.1,6.58,3.24.06,3.61-.02,3.07-.74,5.24,2.33,6.39,5.02-2.42.05-9.52-.7-10.55.95l-4.45,19.05Z"/>
  <path class="cls-47" d="M547,768c2.87.5,10.01-.92,12.06.44,1.88,1.25,1.05,7.56-.56,7.56h-46.5c-.25,0,1.04,3.16-3.38,2.01-.67-.17-.53-1.48-.88-1.69-1.17-.7-3.13.07-3.74-1.32,17.98.19,36.02-.14,54,0-.09-.82.14-2.89,0-2.98-.41-.27-5.41-.94-7-1.53-1.93-.72-2.63-1.67-4.01-2.49Z"/>
  <path class="cls-47" d="M186,720c-1.74,3.02-7.06.28-10.39.96-.74.15-.81,3.28-1.61,2.04-.54-.84-.17-5.29-2.51,0,.21-2.35-4.35-2.81-5.41-1.92-.93.78-1.29,9.59-1.1,11.43.76,7.41,6.92,14.74-.99,21.48-.46-11.28.34-22.71,0-34,7.32,0,14.68.02,22,0Z"/>
  <path class="cls-47" d="M719,707c2-2.01,9.09-5.2,9.03-.53-.02,1.78-2.7,4.09-1.84,5.36l2.8,2.17c-.6-5.57,3.43-3.01,4.49.03.2.58-2.6,7.17-1.48,8.98l1.99-1.02c-1.5,3.45,1.91,4.2,2.02,4.65.97,4.2-.28,12.22-1.01,16.36.68-9.55-1.7-19.27-7.58-26.92-1.3-1.69-7.02-8.01-8.42-9.08Z"/>
  <path class="cls-47" d="M688,696c2.98-.33,6.65.51,9.48-.01,1.62-.3,2.73-2.01,4.02-2.01s2.38,1.72,4.02,2.02c4.65.84,8.48-1.62,9.48,5.01h-4.99s3.99,3.01,3.99,3.01c-5.6-2.92-19.78-7.24-26-8Z"/>
  <path class="cls-47" d="M496,661l10-1-.99-3.99c5.47-1.58,3.34,2.95,5.51,3.99,1.91.92,1.19-1.85,2.1-2.03,1.56-.29,14.81-.48,15.39.03.21.18.14,4.21-.44,5.06-.97,1.42-3.13.79-4.56.94.03.59-.13,1.88,0,2,.81.75,6.08-1.72,5,2-4.04-.48-8.14.39-12.02.59-2.1.11-2.43-.36-3.97-1.59,2.35-3.43,7.33-2.62,11-3-.04-.79.16-2.84,0-3-.94-.97-23.33-.01-27.01,0Z"/>
  <path class="cls-47" d="M560,685c-.05-2.1-.46-3.05.78-5,.1-.16.93.05,1.05-.47.06-.26-.02-5.07-.14-5.3-.07-.14-2.2-2.19-2.36-2.22-1.67-.32-3.47.48-5.12-.27-.35-.16-2.18-3.45-2.36-3.56-.32-.21-3.54,1.41-4.85.82l1-4.99c5.2,1.34,11.49.79,14.24,7.26,2.58,6.08.24,8.98-2.24,13.74Z"/>
  <path class="cls-47" d="M271,753l1.01,6c7.7-4.84,3.43,2.68,4.45,4.05.74.99,2.49.22,3.87,1.02,1.5.87,2.53,2.88,3.69,3.43,3.6,1.7,4.21-1.71,3.98,4.5-12.59-2.39-16.45-6.38-17-19Z"/>
  <path class="cls-47" d="M164,755c1.61.19,7.18,2.25,7.81,3.17,1.37,2-.84,5.67-.79,6.34.02.27,1.11,1.68,1.99,1,1.16-.9.47-3.95,2.5-1.53l.48,6.02c1.87,1.05,6.75-1.28,6.99-1.01.61.66,1.14,5.21,1.01,6.5-.35,1.47-.95-.49-1-.5,1.14-4.33-4.26-3.41-6.99-4.51-8-3.24-11.47-6.73-12.01-15.49Z"/>
  <path class="cls-47" d="M591,664c2.18.42,4.5,2.03,8,2l-1,4c-4.3-.26-7.72,2.06-10.5-2.99-2.13.64-.11,4.93-1.99,4.97-.42,0-3.17-2.45-3.49-1.98-.45,3.27-1.37,3.02-4.02,2,2.39-2.04,9.6-8.66,13-8Z"/>
  <path class="cls-47" d="M336,771c-.86.94-4,.6-4.01,1.5-.01,1.15,2.45-.36,2,1.49-5.45,2.03-2.67-1.32-3.47-2.93-.35-.7-1.42-1.28-1.97-2.17s-.38-2.52-.68-2.77c-.54-.45-2.35.18-3.62-.4-2.03-.92-1.94-5.41-4.59-7.34-2.45-1.79-5.64-.73-2.66-6.38,4.25,6.21,12.66,14.96,19,19Z"/>
  <path class="cls-47" d="M668,708h-4c.33-1.75-.47-9.46,0-10,.14-.16,2.19.1,3,.01-1.58,1.03-1.33,8.72,1,5.99.81-.96-.7-6.08-.55-7.51.04-.41,2.35-7.28,2.59-7.77.37-.75,1.54-.68,1.68-.94.9-1.72-.74-4.91,2.28-5.77.3,4.48-4.73,20.4-6,26Z"/>
  <path class="cls-47" d="M842,710c2.27,1.56.28,10.46,1.01,11,.13.1,2.52-1.46,3,.51.56,2.29-2.69,4.85-2.01,7.48,6-1.08,3.67,2.22,4,7-4.12,1.24-.1-5.84-3.49-5-1.66.41,2.06,6.76-4.51,5,1.25-9.31,2.69-16.13,2-26Z"/>
  <path class="cls-47" d="M624,661c-1.27-.31-2.01-2.87-2.66-3.01-.83-.17-10.53.73-7.34-1.99.25-.21,5.33-.13,6.32.17,1.74.52,6.05,6.79,5.68-.18l3.5,2c1.18-5.36,7.66,3.03,8.99-2,2.61,1.64.45,3.33.46,5.5s1.49,4.22,1.04,6.49l-4-2c-.02-2.33.02-4.67,0-7-3.99.49-8.06,1.24-12,2Z"/>
  <path class="cls-47" d="M651,775c-1.17,2.24-5.92.22-6.9,1.11-.31.28-.12,3.53-1.62,3.89-2.78.66-2.24-4-2.49-4h-32c-.25,0,1.05,3.15-3.38,2.01-.28-.07-1.85-2.18-4.62-3.01,16.64.91,34.52-1.22,51,0Z"/>
  <path class="cls-47" d="M511,670c.04,1.33,1.41,4.74,2.51,5,2.22.51,2.06-4.59,5.49-2.99-1.68,2.4,1.17,5.01.84,6.32-.21.85-1.53,1.56-1.72,2.35-.24,1.04,3.08,3.71.88,6.32-2.73-4.17-8.26-9.76-8.85-14.81-.2-1.74.79-1.93.85-2.19Z"/>
  <path class="cls-47" d="M656,768c.26-2.46,2.36-5.64,1.8-7.52-.17-.59-1.63-.3-1.82-1.11-.36-1.57.22-3.67.02-5.36l5,2c.82,6.41,1.16,6.49,4,12-3.56-.4-5.59-.49-9,0-.27,2.56.2,5.4,0,8-1.73.86-3.58-.95-4-1h3c1.1-4.36-2.95-2.96-6.28-4.23l-.72-.77c1.44.06,5.48-1.64,8-2Z"/>
  <path class="cls-47" d="M320,711c-.01,2,.53,3.12-.74,4.96-.19.27-2.87,1.88-1.14,3.93.15.18,4.15,1.81,4.39,1.81.93-.02,2.89-3.7,5,.36,1.24,2.38-1.84,6.15,5.49,5.96.34,1.53-.73.73-1.26,1.21-1.94,1.76-2.1,2.04-1.74,4.79-5.68-7.65-12.82-15.86-22-19.01-.12-2.3-.38-1.83,1.52-1.96,3.58-.25,7.11-.9,10.48-2.03Z"/>
  <path class="cls-47" d="M506,702c-4.05.67-7.64,1.37-9.99-2.5l2.99-1.51c-3.28-2.56-4.21-3.72-2-7.99,2.01,2.91,8.16,8.82,9,12Z"/>
  <path class="cls-47" d="M304,660c-.99-3.18,7.58-4.19,8.4-3.96,1.05.3,2.45,5.04,3.86,5.67,1.09.49,2.14.07,3.01.31.99.28.6,1.81,1.39,1.98,1.35.29,2.96-.2,4.63.22.54.14,5.31,3.63,5.54,3.99.41.64-1.42,3.04.68,3.78,1.04.36-.29-2.49,1.49-1.99,1.42,5.23,4.02,9.26,3.01,14.99-2.1-15.05-18.26-23.63-32-25Z"/>
  <path class="cls-47" d="M678,683v6.51c2.34,1.36,9.25-.14,10,.49,3.27,2.78-7.01,1.12-7.99,3.5l4,2.5c-1.97-.13-4.02-.02-6,0-1.01-1.51-3.1-.01-3.05-2.47.05-2.27,1.59-7.32,2.27-9.82.17-.62.76-.67.77-.72Z"/>
  <path class="cls-47" d="M839,696c3.68,1.07,2.31-2.94,5.49-1.99,1.87.56,1.94,6.64,1.54,8.33-.07.3-3.83,2.73-4.03,4.67-.33-2.45-2.16-8.26-3-11Z"/>
  <path class="cls-47" d="M130,661c-2.48-1.21-2.44,2.69-2,2.99.65.44,6.39,1.15,8,2.01.23.13,3.7,3.14,4.01,3.49,3.39,3.85,3.69,7.6,3.99,12.51-2.72-.52-.68-2.97-1.47-4-.53-.7-1.84-.6-2.52-1.76-.77-1.32-2.02-8.13-3.51-8.23l-.5,3.98h-8c1.3-4.04-1.16-7.89-1-11.99,1.61-.72,2.7.95,3,1Z"/>
  <path class="cls-47" d="M394,735c.02-.94-.08-6.88-.17-7.24-.36-1.39-4.62-7.02-3.82-7.76,4.8-.66,1.85,1.11,2.48,2.03,1.17,1.71,5.62,1.99,7.52.97-1.76,4.02-3.83,8.36-6,12Z"/>
  <path class="cls-47" d="M137,768l-1,2c-2.34.07-5.26,1.03-7.41,1.93-1.02.42-.72,2.97-.6,3.07,1.22,1.03,27.61,0,32,0-.98,1.69-3.83.99-5.5,1.01-8.95.1-17.92.03-26.87-.14-3.6-1.77.96-4.79.37-7.86,1.87-.6,2.7,2.12,4.33,1.87.41-.06,3.78-1.48,4.67-1.87Z"/>
  <path class="cls-47" d="M601,666c-1.07-6.43,2.46-3.22,6.35-3.99.39-.08,5.04-7.23,4.65,0h6c-5.42,1.12-11.28,3.5-17,4Z"/>
  <path class="cls-47" d="M817,665c1.84-2,6.09.11,7.1,1.7.8,1.25-.42,3.34,1.4,4.3l.99-2c2.77,3.31,4.42,3.97,3.5,9-2.74-3.72-9.28-10.39-13-13Z"/>
  <path class="cls-47" d="M316,750c-.86.7-3.49.07-3.79.31-.24.2-.12,1.17-.41,1.38-.66.5-3.59.47-3.8.3-1.94-1.65,1.84-1.93,2.01-2.7.21-.96-.36-2.19.21-3.12.32-.53,2.68.49,1.78-2.18-6.5,1.15-2.9-2.53-4.1-3.9-.3-.34-3.38-.03-3.89-1.61-.96-2.95,1.96-2.4,2.04-3,.27-2.01-1.56-3.19-2.03-5.02-.22-.86.16-1.96-.01-2.48,4.61,6.99,7.51,14.93,12,22Z"/>
  <path class="cls-47" d="M616,687l-2.5,1c-3.24-1.86.27-9.7-3.35-11.92l-.16-3.08c5.34,2.97,5.67,8.56,6,14Z"/>
  <path class="cls-47" d="M392,760l6,1c.21-.22-.6-8.07,2-4.99,1.65,1.95-2.25,6.5-2.05,8.44.17,1.61,2.12,2.77,2.06,4.56-3.82-.63-6.97-5.47-8-9Z"/>
  <path class="cls-47" d="M610,767c-1.97-4.14,2.71-5.91,2.77-6.43.17-1.54-1.69-6.14-.76-8.57l4,2c-.45,6.35-.96,9.03-6,13Z"/>
  <path class="cls-47" d="M679,776c-2.01-.16-4.64.42-6.38.02-.82-.19-.53-1.99-1.14-2.07-2.45-.31-3.84,2.82-6.93,2.01-1.87-.49-2.04-2.91-.05-3.95l3.5,1.98c.91-2.73-1.69-1.53-2.02-2.68-.23-.81.2-1.96.02-2.32l13,7Z"/>
  <path class="cls-35" d="M482,768c.33-.03.67,0,1,0,.1.48.97.86,1,1,.16.8-.22,2.82,0,3,.77.65,4.95-1.58,4,1.99-2.72.49-3.87-2.03-6.52-2.09-2.03-.04-1.17,1.89-2.11,2.11-7.39,1.75-8.23-3.85-.36-4.02l-1.02-1.99c1.32-.09,2.69.1,4.01,0Z"/>
  <path class="cls-47" d="M833,682h7c1.06,4.07-1.65,6.35-2,10-.72-1.75-4.04-8.41-5-10Z"/>
  <path class="cls-47" d="M336,693c-.07,2.08.33,4.19-.25,6.25-2.1,3.67-4.52,8.98-8.46,10.61-1.8.74-2.35.99-4.29.14,3.87-1.87,8.99-6.78,10.75-10.75.94-2.11.7-4.66,2.25-6.25Z"/>
  <path class="cls-47" d="M138,768c.14-2.69-3.13-6.36-1.54-9.01.47-.8,2.04-1.41,2.53-.98.87.76-.43,4.17,4.01,2-.26,2.59-2.51,6.99-5,8Z"/>
  <path class="cls-47" d="M684,716c-4.26,1.33-8.56-1.25-13.01,1.01l1.02,2.48c-1.86,2.08-4.23-3.58-5.01-5.49,4.92.05,10.64.28,15.47,1.04.92.15,1.4.94,1.53.96Z"/>
  <path class="cls-47" d="M797,658c2.84,1.24,3.09-1.97,3.59-2.05,2.71-.43,5.17,2.25,8.11,2.39l3.3,3.66c-.67-.32-2.05-.65-3-1-3.04-1.13-9.14-2.72-12-3Z"/>
  <path class="cls-47" d="M740,720c.32.38-.25,4.93.03,6.48s1.68,2.51,1.96,4.04c.17.95.2,5.27.02,5.48-2.48,2.92-1.9-4.86-2.02-5.48-.29-1.54-1.68-2.5-1.96-4.04-.22-1.2-.44-9.3,1.97-6.48Z"/>
  <path class="cls-47" d="M636,752c5.01.89,5,7.09,2,9.98l2,3.02c-4.76-5.11-3.79-6.33-4-13Z"/>
  <path class="cls-47" d="M214,715c-1.11,1.27-1.28,4.1-3.67,4.82-3.31,1-5.63-.63-8.33-.82l.72-.77,11.28-3.23Z"/>
  <path class="cls-47" d="M512,768c-3.78,2.36-4.69,2.41-8.81,3.73-2.47.79-2.52-.1-2.19,3.27-.06,0-.25.93-.96.55-.82-.43-2.2-1.93-2.04-3.05-.1-1.25,1.49.73,2.52-.41s1.19-2.71.49-4.09h11Z"/>
  <path class="cls-47" d="M409,775c1.26-5.28-5.63-2.62-8-6,.15-.02.68-.97,1.57-.97.74,0,6.2.2,6.46.4,1.39,1.1,1.72,6.1-.03,6.57Z"/>
  <path class="cls-47" d="M608,768c-3.61,2.11-6.4,3.98-11,4,.17-.74.93-3.78,1.08-3.91.7-.63,8.03.26,9.92-.09Z"/>
  <path class="cls-47" d="M472,752l6.1,3.67c1.12,1.88-.43,3.98-.18,5.68.2,1.41,1.8-.81,2.08,3.65-.49-.37-1.77-.66-2-1-1.03-1.53-5.69-10.58-6-12Z"/>
  <path class="cls-47" d="M704,688c2.86,2.44-5.42,2.12-6.54,2.04-1.77-.13-3.26.17-4.45-1.55,1.56-.63,10.57-.85,10.99-.49Z"/>
  <path class="cls-47" d="M837,746c1.23,2.17,3.63,3.11,3,6-2.17-.62-3.85-.97-6,0,1.03-1.73,1.66-3.92,3-6Z"/>
  <path class="cls-47" d="M332,737l2.99-4.99c.69,3.91,4.71,6.33-.99,7.99-.68-.99-1.33-2.04-2-3Z"/>
  <path class="cls-47" d="M666,748c-2.19,1.83-3.41,3.66-5,6-.32-1.88-2.65-4.25-1.99-5,.16-.18,3.71,2.04,1.99-1.99,1.76.19,3.15.84,5,.99Z"/>
  <path class="cls-47" d="M438,774c-.04.35.09.75,0,1-1.49,4.07-6.62,4.1-6-.5.15-1.11,4.69-.25,6-.5Z"/>
  <path class="cls-47" d="M607,782.01c-.17,2.74-8.63,2.3-9,1.99-1.31-1.11-.16-1.92,1.48-2,2.49-.12,5.03.08,7.52,0Z"/>
  <path class="cls-47" d="M511,782.01c-.17,2.74-8.63,2.3-9,1.99-1.31-1.11-.16-1.92,1.48-2,2.49-.12,5.03.08,7.52,0Z"/>
  <path class="cls-47" d="M720,778c.45,5.7-4.44,4.66-4.99,0h4.99Z"/>
  <path class="cls-47" d="M239,680c-.51-.51,0-5.99,1.5-5.98,3.09,0,.85,8.32-1.5,5.98Z"/>
  <path class="cls-47" d="M717,660c-3.3,1.84-8.9.99-13,1l.65-.81c3.97-1.12,8.67,0,12.35-.19Z"/>
  <path class="cls-47" d="M172,775c-1.89.14-3.28,3.05-3.52,3.05-1.26-.04-4.14-2.27-5.48-3.05,2.99,0,6.01,0,9,0Z"/>
  <path class="cls-47" d="M240,778c1.31,1.12.16,1.92-1.48,2-1.09.05-5.3.17-5.51,0-1.31-1.12-.16-1.92,1.48-2,1.09-.05,5.3-.17,5.51,0Z"/>
  <path class="cls-47" d="M406,782c1.31,1.12.16,1.92-1.48,2-1.09.05-5.3.17-5.51,0-1.31-1.12-.16-1.92,1.48-2,1.09-.05,5.3-.17,5.51,0Z"/>
  <path class="cls-47" d="M480,746c.37.36.55,8.5-1.99,5.99-.37-.36-.55-8.5,1.99-5.99Z"/>
  <path class="cls-47" d="M688,752c.37.36.55,8.5-1.99,5.99-.37-.36-.55-8.5,1.99-5.99Z"/>
  <path class="cls-47" d="M738,692c.37.36.55,8.5-1.99,5.99-.37-.36-.55-8.5,1.99-5.99Z"/>
  <path class="cls-47" d="M376,752c2.5,2.54-5.63,2.36-5.99,1.99-2.5-2.54,5.63-2.36,5.99-1.99Z"/>
  <path class="cls-47" d="M848,678c.37.36.55,8.5-1.99,5.99-.37-.36-.55-8.5,1.99-5.99Z"/>
  <path class="cls-47" d="M306,742c.37.36.55,8.5-1.99,5.99-.37-.36-.55-8.5,1.99-5.99Z"/>
  <path class="cls-47" d="M732,651.99l-1-2.49c2.31-4.25,8.44,1.06,1,2.49Z"/>
  <path class="cls-47" d="M533,778c2.5,2.54-5.63,2.36-5.99,1.99-2.5-2.54,5.63-2.36,5.99-1.99Z"/>
  <path class="cls-47" d="M389,778c2.79,2.82-7.78,2.82-4.99,0,.18-.18,4.82-.18,4.99,0Z"/>
  <path class="cls-47" d="M554,778c2.79,2.82-7.78,2.82-4.99,0,.18-.18,4.82-.18,4.99,0Z"/>
  <path class="cls-47" d="M628,778c2.79,2.82-7.78,2.82-4.99,0,.18-.18,4.82-.18,4.99,0Z"/>
  <path class="cls-47" d="M724,650.01c-1.77,3.31-4.77,4.88-4,0h4Z"/>
  <path class="cls-47" d="M840,738c-.14,1.48.38,5.33-.08,5.96-.26.36-1.52-.13-1.92.04.14-2.07.37-4.61,2-6Z"/>
  <path class="cls-47" d="M816,656c.61.61-.22,3.46-1.5,3.98-3.43-1.77.38-5.1,1.5-3.98Z"/>
  <path class="cls-47" d="M290,726c.14.14.14,3.85,0,3.99-2.75,2.72-2.75-6.72,0-3.99Z"/>
  <path class="cls-47" d="M484,782c2.72,2.75-6.72,2.75-3.99,0,.14-.14,3.85-.14,3.99,0Z"/>
  <path class="cls-47" d="M688,718c2.72,2.75-6.72,2.75-3.99,0,.14-.14,3.85-.14,3.99,0Z"/>
  <path class="cls-47" d="M498,710c.14.14.14,3.85,0,3.99-2.75,2.72-2.75-6.72,0-3.99Z"/>
  <path class="cls-47" d="M468,778c2.72,2.75-6.72,2.75-3.99,0,.14-.14,3.85-.14,3.99,0Z"/>
  <path class="cls-47" d="M720,702c2.72,2.75-6.72,2.75-3.99,0,.14-.14,3.85-.14,3.99,0Z"/>
  <path class="cls-47" d="M610,684c.14.14.14,3.85,0,3.99-2.75,2.72-2.75-6.72,0-3.99Z"/>
  <path class="cls-47" d="M778,656.01c.74.6-3.79,3.24-3.99,2.99v-3s3.99,0,3.99,0Z"/>
  <path class="cls-47" d="M566,656c2.72,2.75-6.72,2.75-3.99,0,.14-.14,3.85-.14,3.99,0Z"/>
  <path class="cls-47" d="M492,656c2.72,2.75-6.72,2.75-3.99,0,.14-.14,3.85-.14,3.99,0Z"/>
  <path class="cls-47" d="M708,782c2.72,2.75-6.72,2.75-3.99,0,.14-.14,3.85-.14,3.99,0Z"/>
  <path class="cls-47" d="M728,640c2.72,2.75-6.72,2.75-3.99,0,.14-.14,3.85-.14,3.99,0Z"/>
  <path class="cls-47" d="M261,657.99c-2.58-.09-4.65,1-4-1.99,1.78-.26,3.5,0,4,1.99Z"/>
  <path class="cls-47" d="M696,719c-2.62,1.16-3.8.59-5-2,2.31.56,3.32,1.38,5,2Z"/>
  <path class="cls-47" d="M143,758c0-1.16-2.12-3.3,1-5-.03,1.44.21,2.89-.18,4.32l-.82.68Z"/>
  <path class="cls-47" d="M416,773c-.14.14-1.37-.06-1.99,0-.24-1.85-.04-2.91,1.5-3.99.87.34.64,3.85.49,3.99Z"/>
  <path class="cls-47" d="M332,720c.59.59-.86,2.98-1.5,2.98-2.76,0-.02-4.5,1.5-2.98Z"/>
  <path class="cls-47" d="M201,719c-1,1.69-4.13.97-6,1,.9-1.56,4.25-1.14,6-1Z"/>
  <path class="cls-47" d="M736,672h-3s1.01-3,1.01-3c.4-.49,2.64,1.75,1.99,3Z"/>
  <path class="cls-47" d="M182,775l-.65.82c-1.61.23-4.46.91-5.35-.82,1.98,0,4.03-.14,6,0Z"/>
  <path class="cls-47" d="M667,713c-.29-1.22-2.59-2.61,1-4-.27,1.31.03,2.78-1,4Z"/>
  <path class="cls-47" d="M707,657.99h-3s0-1.99,0-1.99c1.25-.65,3.48,1.6,3,1.99Z"/>
  <path class="cls-47" d="M644,768l.49-.98c1.58,1.14,3.09.62,2.51,2.98-1.53-.35-2.05-1.43-3-2Z"/>
  <path class="cls-47" d="M401,720c-.3.68-.7,1.32-1,2-2.07.21-2.27.15-2-2h3Z"/>
  <path class="cls-33" d="M271,674.5c2.58-15.49,28.08-13.36,37.01-4.01,8.44,8.84,9.65,26.36.67,35.18-4.78,4.7-11.11,4.68-17.17,6.33h-20.5v-37.5Z"/>
  <path class="cls-34" d="M268,665c1.44-.8,3.07-.62,2,1-3.99,3.3-6.52,3.39-7.06,9.44-2.4,27.05,1.94,57.65.03,85.09l1.58,4.42,5.45,5.05h-22c.89-2.25,4.48-2.85,5.5-5,.54-1.14,1.38-6.83,1.51-8.49,1.62-21.06,1.45-54.88.04-76.06-.14-2.04-.87-7.93-1.55-9.45-1.13-2.52-5.24-3.52-6.49-6,6.96.24,14.05-.36,21,0Z"/>
  <path class="cls-26" d="M349,771.99c-6.04-.21-12.97-5.11-17.48-9.01-14.36-12.42-19.36-31.37-30.52-45.98,1.9-.46,2.76.64,4.13,1.36,14.57,7.73,21.54,28.22,31.45,40.55,3.74,4.65,8.94,8.18,12.42,13.07Z"/>
  <path class="cls-48" d="M308,709.99c.19-1.54,2.25-1.54,3.55-2.94,9.81-10.58,9.17-33.1-4.55-40.06-.25-1.32.37-1.08,1.5-1.01,5.2.33,11.5,5.5,14.5,9.51,10.04,13.42.48,31.75-15,34.5Z"/>
  <path class="cls-9" d="M268,665l.63-.85,3.37-.15c.04,1.21-1.36,1.47-2,1.99-.14-1.04-1.16-.96-2-1Z"/>
  <path class="cls-47" d="M506,664c-4.95,5.17-4.81,8.1-1.87,14.37,6.24,13.34,20.61,26.94,27.67,40.33l.21,44.79c.47,3.41,4.56,3.83,5.99,6.51h-21c1.8-3.72,5.34-2.97,5.93-7.55,1.62-12.76-.87-28.64-.14-41.74-10.22-13.85-18.97-28.93-29.38-42.62-3.9-5.13-7.6-9.8-12.4-14.1h25Z"/>
  <path class="cls-18" d="M578,664l-11.99,11c.41-5.13-2.57-7.88-6.01-11h18Z"/>
  <path class="cls-33" d="M197,667c3.19-.94,6.78,3.92,8.59,6.74,5.03,7.88,5.34,19.03,2,27.62-1.21,3.1-3.39,8.33-6.59,8.64-2.53.33-3.67,2.47-5.99,3.51-1.14.51-7.79,2.49-8.51,2.49h-22.5v-41.5c0-.89,2.53-5.54,3.45-6.55,6.34-6.93,22.16-5.57,29.55-.95Z"/>
  <path class="cls-25" d="M160,665c1.32-.95,4.06-.83,3,1-2.99,2.49-7.11,3.84-7.03,8.47l-.03,87.08c-.38,2.04,3.4,6.07,5.05,6.45,1.77,2.68,1,1.94-1.49,2-6.16.16-12.36-.11-18.51,0,1.7-2.85,6.27-3.39,6.05-7.44v-89.11c-.04-4.34-5-5.38-7.05-8.44,6.63.21,13.37-.31,20,0Z"/>
  <path class="cls-26" d="M200,666c23.21,4.66,27.28,32.08,8.34,44.84-1.87,1.26-6.41,3.81-8.34,2.66.44-.83,1.46-1.06,2-1.5l-.08-1.4c10.67-12,11.04-32.58-1.93-43.05v-1.55Z"/>
  <path class="cls-5" d="M200,666c14.71,9.77,15.14,34.99,2,46l-1-2c9.74-12.39,10.46-33.96-4-43,1.81-3.66,2.11-1.18,3-1Z"/>
  <path class="cls-46" d="M160,664c1.66.02,3.34-.02,5,0,.04,1.22-1.37,1.47-2,1.99l-.66-.83c-.77-.28-1.56-.13-2.34-.17v-1Z"/>
  <path class="cls-47" d="M628,664v99.5c0,2.26,5.34,4.3,6,6.5h-21c1.69-2.86,6.27-3.39,6.05-7.45v-85.11s-1.49-3.51-1.49-3.51l-8.56-5.92,18.99-4.01Z"/>
  <path class="cls-47" d="M474,768c-.08.08,1.16,1.81,1.01,1.99h-20.01c2.08-3.84,4.33-7.11,2.04-11.54l-33.86-76.17c-.64-1.64,2.18-10.5,2.83-11.28,1.47-1.75,1.78.68,2.21,1.34s1.64,2.35,1.78,2.66c11.34,25.51,21.48,52.46,33.81,77.69,2.55,5.22,5.5,11.91,10.19,15.31Z"/>
  <path class="cls-41" d="M392,770h-14l9.99-12c-.72,4.58,2.25,8.11,4.01,12Z"/>
  <path class="cls-35" d="M450,770c1.85-.1,3.72.19,5.41.93,1.02.45.71,2.96.59,3.06-.56.47-8.25-.33-10,0,.23-2.23,2.99-1.41,3.84-2.19.53-.49.01-1.54.16-1.8Z"/>
  <path class="cls-35" d="M471,772c1.31,1.12.16,1.92-1.48,2-1.33.07-7.23.24-7.51,0-1.31-1.12-.16-1.92,1.48-2,1.33-.07,7.23-.24,7.51,0Z"/>
  <path class="cls-33" d="M803,664c.37.19,2.66,1.71,3,2,17.11,14.2,17.12,58.15,12.52,78.02-3.11,13.4-11.74,32.15-28.58,28.54-13.21-2.83-18.51-19.02-20.94-30.55-3.06.25-5.11-7.56-2-8.5-.78-.09-1.96-.34-2-.9-.37-4.7-.88-27.32,0-30.64l2-1.46c-.78-.38-1.72-.87-1.85-1.67-.28-1.68,2.89-14.33,5.85-13.83,4.45-13.99,15.25-29.53,32-21Z"/>
  <path class="cls-47" d="M762,745c2.43,8.18,3.71,11.82,8.48,19.02.52.78,2.76,1.87,1.02,2.98-27.27-20.7-30.2-64.58-8.49-90.48.96-1.15,5.67-6.13,6.49-6.51,1.16-.54,1.96.28,1.48,1.48-.89,2.21-5.17,5.17-4.99,8.51l.55,3.29c-8.75,18.63-8.06,41.75-4.08,60.08l-.47,1.63Z"/>
  <path class="cls-48" d="M825,752c.9,2-1.28,4.85-3,6-.75.59-1.29,1.4-2,2-1.92,1.63-3.63,3.34-5.5,5-1.12.99-1.65,2.4-3.5,1.99,3.45-3.73,5.89-7.98,7.77-12.73,8.33-20.98,7.78-61.47-3.77-81.27-1.33-1.41-.77-1.92,1-1,20.13,19.85,22.71,55.88,9,80Z"/>
  <path class="cls-35" d="M766,680l5-1.99v6.99c-1.08,3.41-4,12.51-4,15.5v33c0,1.15,1.6,6.61,2,8.5-4.23,8.42,4.46,15.38,5.99,23-3.41-.52-2.66-2.74-3.95-4.51-.92-1.26-2.68-2.13-3.32-3.78-.69-1.77.47-2.83.34-4.07-.08-.8-1.89-.45-2.08-1.26-.37-1.55.24-3.68.01-5.37l-1.99,1.99-2.01-3c-.02-.05-.76.21-.97-.53-5.41-19.29-4.81-46.79,4.97-64.47Z"/>
  <path class="cls-36" d="M816,672l-1,1c-.41-.7-2.91-1.41-2-4,1.61,1.23,1.89,1.9,3,3Z"/>
  <path class="cls-26" d="M680,703c12.93,1.4,32.36,6.89,40.99,17.51,9.34,11.51,9.28,26.79.62,38.59-1.02,1.39-1.31,3.09-3.61,2.89,6.51-10.83,5.46-24.26-2.48-34.02-10.94-13.43-28.01-16.31-44.52-16.99.34-1.35,1.64-7.57,2.11-7.89.49-.34,5.65-.24,6.89-.11Z"/>
  <path class="cls-32" d="M670,753c-.53,7.07.79,13.05,6,18-6.39-.82-12.35-8.22-12.08-14.5.18-4.2,2.46-3.61,6.08-3.5Z"/>
  <path class="cls-15" d="M680,671c.54-1.93.76-6.33,2.62-6.88,12.58-.8,25.48,1.11,37.87-1.13,1.1.06-1.07,8.01-1.49,8.01h-39Z"/>
  <path class="cls-42" d="M825,752l.85.64c.94,1.98-.63,3.84-2.17,5.04-.68.53-1.55.21-1.68.32.49-2.2,1.91-4.08,3-6Z"/>
  <path class="cls-2" d="M480,530c.37.36.55,8.5-1.99,5.99-.37-.36-.55-8.5,1.99-5.99Z"/>
  <path class="cls-2" d="M480,538c.14.14.14,3.85,0,3.99-2.75,2.72-2.75-6.72,0-3.99Z"/>
</svg>