<?xml version="1.0" encoding="UTF-8"?>
<svg xmlns="http://www.w3.org/2000/svg" viewBox="0 0 500 120" width="500" height="120">
  <!-- Background hexagon with psalm color -->
  <polygon points="60,20 85,30 85,60 60,70 35,60 35,30" fill="#E93C02" stroke="none"/>
  
  <!-- Inner prayer hands symbol in white -->
  <g transform="translate(60, 45)" fill="white">
    <!-- Prayer hands silhouette -->
    <path d="M-12,-18 C-14,-18 -15,-17 -15,-15 L-15,-5 C-15,-3 -13,-1 -11,-1 L-8,-1 L-8,12 C-8,14 -6,16 -4,16 C-2,16 0,14 0,12 L0,-1 L3,-1 C5,-1 7,-3 7,-5 L7,-15 C7,-17 6,-18 4,-18 L-12,-18 Z"/>
    <!-- Highlight line on hands -->
    <path d="M-3,-10 L-3,8" stroke="#E93C02" stroke-width="1.5" fill="none"/>
    <path d="M3,-10 L3,8" stroke="#E93C02" stroke-width="1.5" fill="none"/>
  </g>
  
  <!-- PRAY150 Text in dark blue-gray -->
  <text x="110" y="55" font-family="Georgia, serif" font-size="44" font-weight="bold" fill="#333E4D">PRAY</text>
  <text x="230" y="55" font-family="Georgia, serif" font-size="36" font-weight="normal" fill="#766659">150</text>
  
  <!-- Subtle tagline -->
  <text x="110" y="80" font-family="Georgia, serif" font-size="14" fill="#766659">Scripture-Fed, Spirit-Led Prayer</text>
</svg>