<?xml version="1.0" encoding="UTF-8"?>
<svg xmlns="http://www.w3.org/2000/svg" viewBox="0 0 160 160" width="160" height="160">
  <!-- Orange hexagon - doubled size -->
  <polygon points="80,10 100,22 100,46 80,58 60,46 60,22" fill="#E93C02"/>
  
  <!-- White harp/lyre symbol -->
  <g transform="translate(80, 34)" fill="white">
    <!-- Harp frame -->
    <path d="M-15,-18 C-18,-18 -21,-15 -21,-12 L-21,12 C-21,15 -18,18 -15,18 L15,18 C18,18 21,15 21,12 L21,-12 C21,-15 18,-18 15,-18 Z"/>
    <!-- Harp strings -->
    <line x1="-12" y1="-12" x2="-12" y2="12" stroke="#E93C02" stroke-width="2.2"/>
    <line x1="-4" y1="-15" x2="-4" y2="15" stroke="#E93C02" stroke-width="2.2"/>
    <line x1="4" y1="-15" x2="4" y2="15" stroke="#E93C02" stroke-width="2.2"/>
    <line x1="12" y1="-12" x2="12" y2="12" stroke="#E93C02" stroke-width="2.2"/>
  </g>
  
  <!-- PRAY150 Text -->
  <text x="80" y="90" font-family="Georgia, serif" font-size="28" font-weight="bold" fill="#333E4D" text-anchor="middle">PRAY150</text>
</svg>