<?xml version="1.0" encoding="UTF-8"?>
<svg xmlns="http://www.w3.org/2000/svg" viewBox="0 0 450 90" width="450" height="90">
  <!-- Orange hexagon - proper proportions matching reference -->
  <polygon points="27,15 42,22.5 42,37.5 27,45 12,37.5 12,22.5" fill="#E93C02"/>
  
  <!-- White harp/lyre symbol -->
  <g transform="translate(27, 30)" fill="white">
    <!-- Harp frame -->
    <path d="M-8,-10 C-10,-10 -12,-8 -12,-6 L-12,6 C-12,8 -10,10 -8,10 L8,10 C10,10 12,8 12,6 L12,-6 C12,-8 10,-10 8,-10 Z"/>
    <!-- Harp strings -->
    <line x1="-6" y1="-6" x2="-6" y2="6" stroke="#E93C02" stroke-width="1.2"/>
    <line x1="-2" y1="-8" x2="-2" y2="8" stroke="#E93C02" stroke-width="1.2"/>
    <line x1="2" y1="-8" x2="2" y2="8" stroke="#E93C02" stroke-width="1.2"/>
    <line x1="6" y1="-6" x2="6" y2="6" stroke="#E93C02" stroke-width="1.2"/>
  </g>
  
  <!-- PRAY150 Text -->
  <text x="70" y="42" font-family="Georgia, serif" font-size="36" font-weight="bold" fill="#333E4D">PRAY150</text>
</svg>